<?xml version="1.0" encoding="UTF-8"?>
<svg version="1.1" xmlns="http://www.w3.org/2000/svg" width="2265" height="206">
<path d="M0 0 C26.57450488 -0.99654393 51.39589543 9.51044771 74.6875 21.15625 C73.24409024 25.92833941 71.22433842 30.24510878 68.9375 34.65625 C59.02391079 53.99561117 59.02391079 53.99561117 54.84375 75.07421875 C54.78852173 75.89392654 54.73329346 76.71363434 54.6763916 77.55818176 C54.50217132 80.15279092 54.34308735 82.74796162 54.1875 85.34375 C52.40885612 114.71353775 52.40885612 114.71353775 46.6875 126.15625 C43.02983136 125.57915117 41.40699786 124.17310488 38.8125 121.59375 C17.66846408 102.38130627 -11.31270203 102.66385247 -38.3125 103.15625 C-37.23848892 100.24107708 -36.53439824 98.37814824 -34.3125 96.15625 C-34.57926204 94.17133358 -34.57926204 94.17133358 -35.3125 92.15625 C-35.6425 91.16625 -35.9725 90.17625 -36.3125 89.15625 C-35.8175 88.16625 -35.8175 88.16625 -35.3125 87.15625 C-34.89547878 84.2404809 -34.89547878 84.2404809 -35.3125 81.15625 C-35.97016357 80.65311279 -36.62782715 80.14997559 -37.30541992 79.6315918 C-40.53976534 75.64265758 -39.82374773 71.40355872 -39.73828125 66.42578125 C-39.73499313 65.36195724 -39.73170502 64.29813324 -39.72831726 63.20207214 C-39.71256381 59.79055432 -39.66860135 56.38001327 -39.625 52.96875 C-39.61350319 50.7220134 -39.60371964 48.47526734 -39.59570312 46.22851562 C-39.52837319 34.17579467 -39.20088671 22.17713479 -38.3125 10.15625 C-26.32929085 3.3452807 -13.63510871 0.92129113 0 0 Z M-13.3125 12.15625 C-12.6525 13.47625 -11.9925 14.79625 -11.3125 16.15625 C-9.3325 15.82625 -7.3525 15.49625 -5.3125 15.15625 C-5.6425 14.16625 -5.9725 13.17625 -6.3125 12.15625 C-8.6225 12.15625 -10.9325 12.15625 -13.3125 12.15625 Z M3.875 17.53125 C0.40329259 21.69729889 -0.39063813 25.28281036 -0.8125 30.59375 C-1.39195096 34.0336652 -1.70071921 35.63450487 -4.3828125 37.921875 C-6.1157874 38.88640537 -7.86977955 39.81393145 -9.640625 40.70703125 C-15.64142145 43.96184921 -20.96766303 49.54588403 -23.75390625 55.82421875 C-25.51555802 63.17880689 -24.13721804 71.00302414 -20.34765625 77.47265625 C-19.60499074 78.68053865 -18.8300784 79.86881768 -18.03515625 81.04296875 C-17.3125 83.15625 -17.3125 83.15625 -18.2109375 85.734375 C-18.69820312 86.61609375 -19.18546875 87.4978125 -19.6875 88.40625 C-20.16960937 89.29828125 -20.65171875 90.1903125 -21.1484375 91.109375 C-21.53257812 91.78484375 -21.91671875 92.4603125 -22.3125 93.15625 C-21.6525 93.48625 -20.9925 93.81625 -20.3125 94.15625 C-17.66497996 91.57840154 -15.36817935 89.23976902 -13.3125 86.15625 C-10.58362977 86.03955489 -8.02822238 86.0740468 -5.3125 86.21875 C3.58830274 86.4531045 9.39776819 84.6983133 17.0625 80.15625 C21.66560064 74.89556356 23.77361782 67.87326672 24.1875 60.90625 C23.48384851 55.62886382 21.8515621 51.24161894 17.96875 47.5 C14.98489576 45.74238723 12.36072471 45.41376921 8.9375 44.96875 C7.18179688 44.73091797 7.18179688 44.73091797 5.390625 44.48828125 C4.49859375 44.37871094 3.6065625 44.26914063 2.6875 44.15625 C3.0175 41.51625 3.3475 38.87625 3.6875 36.15625 C4.491875 35.970625 5.29625 35.785 6.125 35.59375 C12.17822093 33.15122226 17.13185611 29.4439616 20.8125 24.03125 C21.788589 20.82410044 21.86935942 19.2797356 20.6875 16.15625 C19.25048958 14.24023611 18.06901269 13.34700634 15.9375 12.28125 C11.05390126 12.00993896 7.44457116 14.51694546 3.875 17.53125 Z M-26.3125 14.15625 C-26.6425 15.80625 -26.9725 17.45625 -27.3125 19.15625 C-25.3325 18.49625 -23.3525 17.83625 -21.3125 17.15625 C-21.3125 16.16625 -21.3125 15.17625 -21.3125 14.15625 C-22.9625 14.15625 -24.6125 14.15625 -26.3125 14.15625 Z M27.6875 14.15625 C28.0175 15.14625 28.3475 16.13625 28.6875 17.15625 C31.6575 17.65125 31.6575 17.65125 34.6875 18.15625 C34.3575 16.83625 34.0275 15.51625 33.6875 14.15625 C31.7075 14.15625 29.7275 14.15625 27.6875 14.15625 Z M42.6875 17.15625 C42.6875 18.47625 42.6875 19.79625 42.6875 21.15625 C44.9975 21.81625 47.3075 22.47625 49.6875 23.15625 C50.0175 21.83625 50.3475 20.51625 50.6875 19.15625 C47.78149739 17.89960022 45.89145416 17.15625 42.6875 17.15625 Z M55.6875 22.15625 C56.0175 23.14625 56.3475 24.13625 56.6875 25.15625 C59.69597418 26.38145264 59.69597418 26.38145264 62.6875 27.15625 C63.0175 26.16625 63.3475 25.17625 63.6875 24.15625 C60.59940305 22.39162317 59.45437864 22.15625 55.6875 22.15625 Z M-7.3125 92.15625 C-7.3125 93.47625 -7.3125 94.79625 -7.3125 96.15625 C-4.6725 96.81625 -2.0325 97.47625 0.6875 98.15625 C0.3575 96.50625 0.0275 94.85625 -0.3125 93.15625 C-2.6225 92.82625 -4.9325 92.49625 -7.3125 92.15625 Z M5.6875 94.15625 C5.6875 95.80625 5.6875 97.45625 5.6875 99.15625 C8.3275 99.48625 10.9675 99.81625 13.6875 100.15625 C13.6875 98.83625 13.6875 97.51625 13.6875 96.15625 C11.0475 95.49625 8.4075 94.83625 5.6875 94.15625 Z M19.6875 98.15625 C19.3575 99.80625 19.0275 101.45625 18.6875 103.15625 C20.6675 103.81625 22.6475 104.47625 24.6875 105.15625 C25.3475 103.50625 26.0075 101.85625 26.6875 100.15625 C24.3775 99.49625 22.0675 98.83625 19.6875 98.15625 Z M33.6875 104.15625 C33.0275 105.47625 32.3675 106.79625 31.6875 108.15625 C33.93917846 109.87440438 33.93917846 109.87440438 36.6875 111.15625 C38.99037793 110.46484649 38.99037793 110.46484649 40.6875 109.15625 C40.6875 108.49625 40.6875 107.83625 40.6875 107.15625 C37.46635843 104.84032978 37.46635843 104.84032978 33.6875 104.15625 Z " fill="#000000" transform="translate(157.3125,33.84375)"/>
<path d="M0 0 C7.26 0 14.52 0 22 0 C22 32.01 22 64.02 22 97 C15.07 97 8.14 97 1 97 C0.67 96.34 0.34 95.68 0 95 C-1.68996094 95.72896484 -1.68996094 95.72896484 -3.4140625 96.47265625 C-8.11903207 98.22899883 -12.38838189 98.49981388 -17.375 98.4375 C-18.6273645 98.42831543 -18.6273645 98.42831543 -19.9050293 98.41894531 C-26.2671597 98.25773745 -31.44235612 97.24008388 -37 94 C-38.5778125 93.13375 -38.5778125 93.13375 -40.1875 92.25 C-47.41546519 86.46762785 -52.16980749 80.20511025 -54 71 C-55.33883682 58.54911054 -54.20514752 47.65418819 -46.875 37.1875 C-41.5140139 30.75431668 -33.34184926 25.60602965 -24.87182617 24.79663086 C-22.45273585 24.6956139 -20.04609292 24.67798313 -17.625 24.6875 C-16.81289063 24.67138672 -16.00078125 24.65527344 -15.1640625 24.63867188 C-14.3596875 24.63802734 -13.5553125 24.63738281 -12.7265625 24.63671875 C-12.01064941 24.63373779 -11.29473633 24.63075684 -10.55712891 24.62768555 C-8 25 -8 25 0 28 C0 18.76 0 9.52 0 0 Z M-28 49 C-31.3134053 53.60137476 -32.68213736 58.09814415 -32.37890625 63.76171875 C-31.43018321 69.36603115 -29.32915626 72.91497448 -24.9375 76.5 C-20.1644973 78.78898839 -15.15351334 78.86397135 -10 78 C-5.61324557 76.20397373 -3.47065903 73.78949257 -1.0625 69.75 C0.65418529 63.69111075 0.96907136 58.5581267 -1.5625 52.6875 C-3.83457309 48.73503952 -6.59817668 46.29465392 -11 45 C-17.60125807 44.07889422 -23.0157617 44.13732849 -28 49 Z " fill="#000000" transform="translate(869,58)"/>
<path d="M0 0 C0.87817383 0.00644531 1.75634766 0.01289062 2.66113281 0.01953125 C12.14710056 0.28506847 19.54798446 2.71131321 26.6875 9.125 C34.87328177 18.11230623 36.76377298 28.81342325 36.5234375 40.57421875 C35.84745313 50.27942294 32.31721904 58.72780719 25.25 65.5 C17.16309367 71.45944761 9.82602476 73.85161566 -0.125 73.8125 C-0.93710938 73.82861328 -1.74921875 73.84472656 -2.5859375 73.86132812 C-3.7925 73.86229492 -3.7925 73.86229492 -5.0234375 73.86328125 C-5.73935059 73.86626221 -6.45526367 73.86924316 -7.19287109 73.87231445 C-9.75 73.5 -9.75 73.5 -17.75 70.5 C-17.75 78.75 -17.75 87 -17.75 95.5 C-25.01 95.5 -32.27 95.5 -39.75 95.5 C-39.75 64.48 -39.75 33.46 -39.75 1.5 C-32.82 1.5 -25.89 1.5 -18.75 1.5 C-18.42 2.16 -18.09 2.82 -17.75 3.5 C-16.63109375 3.0153125 -15.5121875 2.530625 -14.359375 2.03125 C-9.54061507 0.2342806 -5.10821779 -0.03921856 0 0 Z M-15 26.0625 C-18.85748318 31.43542299 -18.30681692 37.06131423 -17.75 43.5 C-15.51263748 48.40498706 -12.63949139 51.229879 -7.75 53.5 C-2.21716738 54.24480439 2.55794852 54.19494972 7.75 52.0625 C11.76530701 47.94681031 14.05194131 43.7124153 14.41015625 37.90234375 C14.01121449 31.45116366 11.90085692 27.57499403 7.6875 22.6875 C0.87862651 17.06277842 -9.82649913 20.17045735 -15 26.0625 Z " fill="#000000" transform="translate(1987.75,82.5)"/>
<path d="M0 0 C0.87817383 0.00644531 1.75634766 0.01289062 2.66113281 0.01953125 C12.14710056 0.28506847 19.54798446 2.71131321 26.6875 9.125 C34.87328177 18.11230623 36.76377298 28.81342325 36.5234375 40.57421875 C35.84745313 50.27942294 32.31721904 58.72780719 25.25 65.5 C17.16309367 71.45944761 9.82602476 73.85161566 -0.125 73.8125 C-0.93710938 73.82861328 -1.74921875 73.84472656 -2.5859375 73.86132812 C-3.7925 73.86229492 -3.7925 73.86229492 -5.0234375 73.86328125 C-5.73935059 73.86626221 -6.45526367 73.86924316 -7.19287109 73.87231445 C-9.75 73.5 -9.75 73.5 -17.75 70.5 C-17.75 78.75 -17.75 87 -17.75 95.5 C-25.01 95.5 -32.27 95.5 -39.75 95.5 C-39.75 64.48 -39.75 33.46 -39.75 1.5 C-32.82 1.5 -25.89 1.5 -18.75 1.5 C-18.42 2.16 -18.09 2.82 -17.75 3.5 C-16.63109375 3.0153125 -15.5121875 2.530625 -14.359375 2.03125 C-9.54061507 0.2342806 -5.10821779 -0.03921856 0 0 Z M-15 26.0625 C-18.85748318 31.43542299 -18.30681692 37.06131423 -17.75 43.5 C-15.51263748 48.40498706 -12.63949139 51.229879 -7.75 53.5 C-2.21716738 54.24480439 2.55794852 54.19494972 7.75 52.0625 C11.76530701 47.94681031 14.05194131 43.7124153 14.41015625 37.90234375 C14.01121449 31.45116366 11.90085692 27.57499403 7.6875 22.6875 C0.87862651 17.06277842 -9.82649913 20.17045735 -15 26.0625 Z " fill="#000000" transform="translate(1905.75,82.5)"/>
<path d="M0 0 C8.25 0 16.5 0 25 0 C29.49975416 10.12444686 29.49975416 10.12444686 30.80834961 13.68896484 C31.25614273 14.90170578 31.25614273 14.90170578 31.71298218 16.13894653 C32.0229715 16.98770355 32.33296082 17.83646057 32.65234375 18.7109375 C32.98924225 19.62551727 33.32614075 20.54009705 33.67324829 21.48239136 C34.76414566 24.44556826 35.85090251 27.41024394 36.9375 30.375 C38.07268721 33.46349688 39.20879444 36.5516542 40.34501648 39.63977051 C41.11058893 41.72061722 41.87581651 43.80159085 42.64070129 45.88269043 C45.0777461 52.50956749 47.53393944 59.12897588 50.0078125 65.7421875 C50.31399002 66.56161835 50.62016754 67.38104919 50.93562317 68.22531128 C52.67199243 72.87195752 52.67199243 72.87195752 54.41452026 77.51629639 C55.19712655 79.59836647 55.97589755 81.68183353 56.75390625 83.765625 C57.40854858 85.51020996 57.40854858 85.51020996 58.07641602 87.29003906 C59 90 59 90 59 92 C50.75 92 42.5 92 34 92 C32.2675 87.111875 32.2675 87.111875 30.5 82.125 C30.13455078 81.09906738 29.76910156 80.07313477 29.39257812 79.01611328 C29.10833984 78.20899902 28.82410156 77.40188477 28.53125 76.5703125 C28.23798828 75.74289551 27.94472656 74.91547852 27.64257812 74.06298828 C27 72 27 72 27 70 C17.76 70.33 8.52 70.66 -1 71 C-3.31 77.93 -5.62 84.86 -8 92 C-15.92 92 -23.84 92 -32 92 C-27.65143722 79.38203915 -27.65143722 79.38203915 -25.4765625 73.078125 C-23.55374235 67.50477078 -21.63146522 61.93122992 -19.70996094 56.35742188 C-17.59237032 50.2150746 -15.47356521 44.07314716 -13.35415649 37.931427 C-12.49503438 35.44122121 -11.63628831 32.95088566 -10.77792358 30.4604187 C-9.55217347 26.90425421 -8.32505872 23.34856322 -7.09765625 19.79296875 C-6.729216 18.72306702 -6.36077576 17.65316528 -5.98117065 16.55084229 C-5.63297272 15.54301697 -5.28477478 14.53519165 -4.92602539 13.49682617 C-4.62531631 12.62499191 -4.32460724 11.75315765 -4.01478577 10.85490417 C-2.72269609 7.21985889 -1.35458354 3.61222277 0 0 Z M12 31 C10.99422987 33.76886123 9.99519853 36.53984104 9 39.3125 C8.71382812 40.09818359 8.42765625 40.88386719 8.1328125 41.69335938 C7.86210938 42.45068359 7.59140625 43.20800781 7.3125 43.98828125 C7.06113281 44.68477783 6.80976562 45.38127441 6.55078125 46.09887695 C5.86086464 48.150368 5.86086464 48.150368 6 51 C10.62 51 15.24 51 20 51 C18.22009119 43.9693602 16.17243856 37.52201837 13 31 C12.67 31 12.34 31 12 31 Z " fill="#000000" transform="translate(944,63)"/>
<path d="M0 0 C1.65 0 3.3 0 5 0 C5.19335938 0.83144531 5.38671875 1.66289062 5.5859375 2.51953125 C5.97652344 4.14955078 5.97652344 4.14955078 6.375 5.8125 C6.63023438 6.89144531 6.88546875 7.97039063 7.1484375 9.08203125 C7.88732881 12.15533343 7.88732881 12.15533343 10 15 C9.828125 17.0859375 9.828125 17.0859375 9.25 19.375 C8.97929687 20.50035156 8.97929687 20.50035156 8.703125 21.6484375 C8 24 8 24 6.98193359 26.02441406 C5.56277085 30.32495 5.64185831 34.45816637 5.5859375 38.9609375 C5.56657135 39.94252838 5.5472052 40.92411926 5.5272522 41.93545532 C5.46764277 45.08188183 5.42137366 48.22835366 5.375 51.375 C5.33675854 53.4218905 5.29770336 55.46876598 5.2578125 57.515625 C5.18061257 61.61031906 5.1234991 65.70460878 5.08105469 69.79980469 C5.03672516 74.02181579 4.93591311 78.23793822 4.80175781 82.45800781 C4.75531369 84.52668053 4.7093957 86.59536514 4.6640625 88.6640625 C4.62356781 89.6155014 4.58307312 90.56694031 4.54135132 91.54721069 C4.46986497 96.05737283 4.49130409 98.97761989 7.50634766 102.48852539 C8.32925293 103.31731201 9.1521582 104.14609863 10 105 C10.234375 107.51953125 10.234375 107.51953125 9.75 109.8125 C9.47952553 111.20451087 9.22403759 112.59976507 9 114 C9.33 114.33 9.66 114.66 10 115 C10.3125 117.3125 10.3125 117.3125 10 120 C9.319375 120.53625 8.63875 121.0725 7.9375 121.625 C5.44605382 124.6790308 5.8814163 125.90690067 6.25 129.75 C6.47942617 131.50281592 6.72305795 133.25406097 7 135 C5.68 135.33 4.36 135.66 3 136 C3.04125 137.27875 3.0825 138.5575 3.125 139.875 C3.1953125 142.0546875 3.1953125 142.0546875 3 144 C-2.13947925 149.13947925 -12.48881599 148.17949645 -19.4375 148.1875 C-26.50401947 148.15296178 -26.50401947 148.15296178 -29.16748047 147.33154297 C-33.41852666 146.83396318 -36.86570522 148.21131941 -40.88671875 149.52734375 C-42.64776407 150.07754561 -44.40883253 150.62767345 -46.16992188 151.17773438 C-48.92475683 152.05374986 -51.67802682 152.93445863 -54.43041992 153.81811523 C-57.09974806 154.67062066 -59.77409741 155.5057273 -62.44921875 156.33984375 C-63.2568718 156.60546616 -64.06452484 156.87108856 -64.89665222 157.14476013 C-70.60367041 158.91725877 -76.02337666 159.64497691 -82 159 C-85.8989845 156.86264199 -88.47190436 153.58428691 -89.875 149.375 C-89.91625 148.59125 -89.9575 147.8075 -90 147 C-90.185625 146.21625 -90.37125 145.4325 -90.5625 144.625 C-91.11839968 141.2896019 -91.30691863 138.37610488 -91 135 C-88.78136971 132.09282927 -87.48055071 131.16018357 -84 130 C-81.60509014 129.93029948 -79.20832309 129.91551997 -76.8125 129.9375 C-75.54019531 129.94652344 -74.26789063 129.95554688 -72.95703125 129.96484375 C-71.49330078 129.98224609 -71.49330078 129.98224609 -70 130 C-71.72943241 125.83373827 -71.72943241 125.83373827 -74.796875 122.6640625 C-77.62842625 121.81058074 -80.30028022 121.56737303 -83.25 121.375 C-84.32765625 121.30023438 -85.4053125 121.22546875 -86.515625 121.1484375 C-87.74539062 121.07496094 -87.74539062 121.07496094 -89 121 C-89 117.37 -89 113.74 -89 110 C-92.63 108.02 -96.26 106.04 -100 104 C-101.66689281 93.28426052 -101.66689281 93.28426052 -98.64208984 89.13916016 C-96.25232994 86.59103043 -93.74974367 84.2610162 -91.06787109 82.02294922 C-87.70735296 79.14066197 -85.63501278 77.25636697 -85.00390625 72.75 C-85.0000888 69.08525194 -85.42714396 67.23309296 -87 64 C-88.47364719 59.4090222 -87.43830541 56.55922744 -85.75 52.125 C-85.09257813 50.36542969 -85.09257813 50.36542969 -84.421875 48.5703125 C-83.95265625 47.39210937 -83.4834375 46.21390625 -83 45 C-82.67515625 43.77796875 -82.3503125 42.5559375 -82.015625 41.296875 C-78.8963351 36.19478067 -74.58140277 35.60305117 -69 34.125 C-67.51306641 33.68414062 -67.51306641 33.68414062 -65.99609375 33.234375 C-59.31567623 31.33563834 -52.92682581 30.44431942 -46 30 C-46 34.95 -46 39.9 -46 45 C-41.2826654 44.14783775 -41.2826654 44.14783775 -36.57739258 43.2331543 C-34.76953125 42.94921875 -34.76953125 42.94921875 -31 43 C-28.07421875 45.39453125 -28.07421875 45.39453125 -26 48 C-25.67 48.33 -25.34 48.66 -25 49 C-24.74988655 46.77308629 -24.52571648 44.54324878 -24.3125 42.3125 C-24.18488281 41.07113281 -24.05726562 39.82976563 -23.92578125 38.55078125 C-24.00855616 34.59065535 -24.91141812 33.25417934 -27 30 C-27.80915035 24.64940219 -27.94190907 18.94929343 -25.375 14.0625 C-21.56722933 9.15247992 -17.88141742 6.19931176 -12 4 C-7.05882353 29.08823529 -7.05882353 29.08823529 -11 35 C-11.31052262 38.19960755 -11.31052262 38.19960755 -11.265625 41.87109375 C-11.26753845 42.54866226 -11.2694519 43.22623077 -11.27142334 43.92433167 C-11.27278437 45.36256276 -11.26909359 46.80080618 -11.26074219 48.23901367 C-11.25019021 50.39857114 -11.26056105 52.55726788 -11.2734375 54.71679688 C-11.28057565 62.97385658 -10.70136048 70.89334672 -9 79 C-8.25222833 75.62847797 -7.85083724 72.45159327 -7.76293945 69.0012207 C-7.73653885 68.03283768 -7.71013824 67.06445465 -7.68293762 66.06672668 C-7.65995102 65.03021469 -7.63696442 63.9937027 -7.61328125 62.92578125 C-7.58775681 61.84677048 -7.56223236 60.7677597 -7.53593445 59.65605164 C-7.48399136 57.374027 -7.43455677 55.09194407 -7.38745117 52.80981445 C-7.31313746 49.34224482 -7.22231435 45.87535732 -7.13085938 42.40820312 C-7.08231253 40.18491789 -7.03475492 37.96161079 -6.98828125 35.73828125 C-6.95922195 34.71189041 -6.93016266 33.68549957 -6.90022278 32.62800598 C-6.80064716 26.84448271 -7.25829014 21.68535603 -8.68650818 16.07008362 C-9 14 -9 14 -7.734375 10.9765625 C-6.75210938 9.81253906 -6.75210938 9.81253906 -5.75 8.625 C-3.46001311 5.8128961 -1.48643097 3.32171818 0 0 Z M-2.625 12.5 C-4.60366408 16.09757105 -3.86798379 19.16027512 -3 23 C-2.38761101 25.01728138 -1.74023321 27.02604477 -1 29 C-0.01 28.67 0.98 28.34 2 28 C3.29312967 25.28682052 3.29312967 25.28682052 4.25 22.0625 C4.60578125 20.98097656 4.9615625 19.89945313 5.328125 18.78515625 C6.30094391 16.0648108 6.30094391 16.0648108 5 14 C4.34 14 3.68 14 3 14 C2.67 16.31 2.34 18.62 2 21 C1.34 21 0.68 21 0 21 C0 17.7 0 14.4 0 11 C-1.24611205 10.88695332 -1.24611205 10.88695332 -2.625 12.5 Z M-17 12 C-20.67919936 16.0471193 -23.65135256 19.32703626 -24.375 24.875 C-23.9061461 28.78211583 -22.35801313 30.90510776 -20 34 C-17.6568787 33.74438677 -15.32156597 33.40729228 -13 33 C-10.82393701 28.64787402 -11.51029438 22.93889259 -12.671875 18.33984375 C-13.39132348 16.19846644 -14.15068534 14.09295399 -15 12 C-15.66 12 -16.32 12 -17 12 Z M-2 34 C-3.00608573 40.95384346 -3.33665636 47.87320057 -3.60546875 54.890625 C-3.65318924 56.11279724 -3.70090973 57.33496948 -3.75007629 58.59417725 C-3.84864493 61.16589922 -3.94517923 63.73769988 -4.03979492 66.30957031 C-4.18754208 70.25112256 -4.35048852 74.19187307 -4.51367188 78.1328125 C-4.60770985 80.63538156 -4.70084037 83.13798492 -4.79296875 85.640625 C-4.84390182 86.81981506 -4.8948349 87.99900513 -4.9473114 89.21392822 C-4.98427628 90.30896667 -5.02124115 91.40400513 -5.05932617 92.53222656 C-5.09628098 93.49404846 -5.13323578 94.45587036 -5.17131042 95.44683838 C-4.99097102 98.13456533 -4.3758001 99.7100692 -3 102 C-1.02 101.01 -1.02 101.01 1 100 C1 78.55 1 57.1 1 35 C0.01 34.67 -0.98 34.34 -2 34 Z M-19 37 C-22.10258906 40.10258906 -21.07329252 49.17021442 -21.09765625 53.34765625 C-21.09109231 55.58595855 -21.0792901 57.82425105 -21.0625 60.0625 C-21.05798828 61.21427734 -21.05347656 62.36605469 -21.04882812 63.55273438 C-21.03714426 66.36854518 -21.02076281 69.18424398 -21 72 C-18.69 72.33 -16.38 72.66 -14 73 C-14.13958564 68.47895122 -14.28777757 63.95822354 -14.4375 59.4375 C-14.47681641 58.16068359 -14.51613281 56.88386719 -14.55664062 55.56835938 C-14.59853516 54.32763672 -14.64042969 53.08691406 -14.68359375 51.80859375 C-14.72025146 50.67220459 -14.75690918 49.53581543 -14.79467773 48.36499023 C-15.00804301 44.86818455 -15.45954277 41.46008025 -16 38 C-16.99 37.67 -17.98 37.34 -19 37 Z M-76 45 C-82.13752785 52.64579648 -82.13752785 52.64579648 -84 62 C-83.37212429 64.34406932 -82.70491267 66.67793475 -82 69 C-81.5101456 74.4863693 -82.21844183 78.2191969 -85 83 C-86.94189261 84.6491657 -88.96833052 86.08396213 -91.05859375 87.5390625 C-93.89364851 89.67248399 -95.44519593 91.82560837 -97 95 C-97.33524876 98.75129837 -97.33524876 98.75129837 -97 102 C-88.32341162 106.39159019 -79.53331324 107.15947586 -70 108 C-70.65048644 102.58675655 -71.99003933 100.70150216 -76 97 C-76 96.34 -76 95.68 -76 95 C-71.8638516 96.32215342 -70.04095981 97.77608852 -67.5625 101.3125 C-65.47111097 104.16480835 -63.56881374 106.54716004 -60.75 108.6875 C-57.69560834 111.25596571 -56.41923542 113.29421862 -55 117 C-55 118.32 -55 119.64 -55 121 C-55.99 121.495 -55.99 121.495 -57 122 C-57.226875 120.948125 -57.45375 119.89625 -57.6875 118.8125 C-58.82150268 114.82729059 -60.75034524 112.61557579 -64 110 C-64.99 110 -65.98 110 -67 110 C-67.33 110.99 -67.66 111.98 -68 113 C-68.58007812 112.7834375 -69.16015625 112.566875 -69.7578125 112.34375 C-74.32553887 110.71564951 -78.0780464 109.62138818 -83 110 C-83.66 112.31 -84.32 114.62 -85 117 C-84.10796875 117.17015625 -83.2159375 117.3403125 -82.296875 117.515625 C-80.54117188 117.87914062 -80.54117188 117.87914062 -78.75 118.25 C-77.58984375 118.48203125 -76.4296875 118.7140625 -75.234375 118.953125 C-71.74703664 120.08187703 -70.28781339 121.18925784 -68 124 C-66.39274365 127.21451269 -66.94251815 130.43612536 -67 134 C-67.804375 133.75830078 -67.804375 133.75830078 -68.625 133.51171875 C-71.46128098 132.90061216 -74.09914763 132.83063033 -77 132.8125 C-78.546875 132.79123047 -78.546875 132.79123047 -80.125 132.76953125 C-82.99233796 132.99938579 -84.62602249 133.40810386 -87 135 C-87.80528889 137.05000871 -87.80528889 137.05000871 -88 139 C-85.69 139.66 -83.38 140.32 -81 141 C-83.475 141.99 -83.475 141.99 -86 143 C-86.2978959 145.92930971 -86.49555732 148.14263757 -86 151 C-83.41404481 154.19925291 -83.41404481 154.19925291 -80 156 C-74.40138026 155.67389879 -69.5051139 154.3787665 -64.25390625 152.41796875 C-63.55732407 152.16251785 -62.86074188 151.90706696 -62.14305115 151.64387512 C-60.68686865 151.1062208 -59.23236968 150.56398606 -57.77954102 150.01733398 C-55.55003324 149.18283372 -53.31189709 148.37523326 -51.07226562 147.56835938 C-49.65304817 147.04066711 -48.23440564 146.51142546 -46.81640625 145.98046875 C-46.14670303 145.74176559 -45.47699982 145.50306244 -44.78700256 145.25712585 C-41.29359796 143.99012127 -41.29359796 143.99012127 -39.07128906 141.18701172 C-38.98228406 138.45650898 -38.96304202 135.7593275 -39.04296875 133.02734375 C-39.07487305 131.30741211 -39.07487305 131.30741211 -39.10742188 129.55273438 C-39.16090014 127.13838635 -39.22604638 124.72426916 -39.30273438 122.31054688 C-39.32883789 120.59254883 -39.32883789 120.59254883 -39.35546875 118.83984375 C-39.39643677 117.26771118 -39.39643677 117.26771118 -39.43823242 115.66381836 C-39 113 -39 113 -37.2121582 111.20922852 C-34.26110426 109.5960986 -31.25157163 108.81289291 -28 108 C-28.04125 107.21625 -28.0825 106.4325 -28.125 105.625 C-28 103 -28 103 -26 101 C-25.62745981 98.44968278 -25.62745981 98.44968278 -25.5859375 95.4609375 C-25.52720459 93.76493408 -25.52720459 93.76493408 -25.46728516 92.03466797 C-25.43683105 90.82697754 -25.40637695 89.61928711 -25.375 88.375 C-25.34067871 87.15055176 -25.30635742 85.92610352 -25.27099609 84.66455078 C-25.20548159 82.22179571 -25.14436814 79.77891821 -25.08789062 77.3359375 C-25.01432105 74.54356345 -24.90324493 71.75846933 -24.765625 68.96875 C-24.48428346 62.02899201 -24.75406604 56.61541294 -28.515625 50.6015625 C-30.2254742 48.7567252 -31.64814105 47.87851541 -34 47 C-35.58165588 47.20630294 -37.1624751 47.42452302 -38.734375 47.6953125 C-51.21798713 49.3741431 -63.69800478 46.98635136 -76 45 Z M-21 76 C-21.79706768 79.49992696 -22.11863027 82.7142231 -22.09765625 86.30078125 C-22.09443359 87.27724609 -22.09121094 88.25371094 -22.08789062 89.25976562 C-22.07951172 90.26716797 -22.07113281 91.27457031 -22.0625 92.3125 C-22.05798828 93.33923828 -22.05347656 94.36597656 -22.04882812 95.42382812 C-22.03708184 97.94927882 -22.02065565 100.47460905 -22 103 C-20.52031676 102.85950482 -19.04125484 102.71245174 -17.5625 102.5625 C-16.73878906 102.48128906 -15.91507812 102.40007812 -15.06640625 102.31640625 C-13.01337975 102.21069185 -13.01337975 102.21069185 -12 101 C-11.4319529 92.47929345 -12.31631725 84.34324936 -14 76 C-16.31 76 -18.62 76 -21 76 Z M-24 106 C-24.042721 107.66611905 -24.04063832 109.33382885 -24 111 C-22.91891551 112.30661495 -22.91891551 112.30661495 -20.31616211 112.11352539 C-18.56444702 112.10567017 -18.56444702 112.10567017 -16.77734375 112.09765625 C-14.88725586 112.09282227 -14.88725586 112.09282227 -12.95898438 112.08789062 C-11.61848891 112.07953403 -10.27799412 112.07106907 -8.9375 112.0625 C-7.59310058 112.0574866 -6.2486994 112.05292342 -4.90429688 112.04882812 C-1.60282059 112.03699488 1.69856803 112.02050971 5 112 C5.66 110.35 6.32 108.7 7 107 C5.31410052 104.90639934 4.46309977 104.0677707 1.7578125 103.671875 C0.45457031 103.71054688 0.45457031 103.71054688 -0.875 103.75 C-1.84308594 103.77707031 -2.81117187 103.80414063 -3.80859375 103.83203125 C-14.01115661 104.15925548 -14.01115661 104.15925548 -24 106 Z M-36 114 C-36.08732726 117.89569135 -36.14050185 121.79112982 -36.1875 125.6875 C-36.21263672 126.79029297 -36.23777344 127.89308594 -36.26367188 129.02929688 C-36.27333984 130.09599609 -36.28300781 131.16269531 -36.29296875 132.26171875 C-36.3086792 133.24100342 -36.32438965 134.22028809 -36.34057617 135.22924805 C-35.93643477 138.51713394 -35.03034146 140.39533056 -33 143 C-32.01 143 -31.02 143 -30 143 C-29.505 138.545 -29.505 138.545 -29 134 C-28.34 134 -27.68 134 -27 134 C-27 126.41 -27 118.82 -27 111 C-30.69418201 111 -32.77836178 112.28179295 -36 114 Z M-22 115 C-22.33 117.64 -22.66 120.28 -23 123 C-18.91542868 122.97720863 -14.83365935 122.89991093 -10.75 122.8125 C-9.59113281 122.80669922 -8.43226562 122.80089844 -7.23828125 122.79492188 C-0.6020559 122.82439408 -0.6020559 122.82439408 4.796875 119.44921875 C5.19390625 118.64097656 5.5909375 117.83273438 6 117 C2.111175 114.26847782 -0.45926233 113.6348176 -5.1875 113.75 C-6.88519531 113.78867188 -6.88519531 113.78867188 -8.6171875 113.828125 C-13.10066815 114.05592309 -17.54645143 114.43702321 -22 115 Z M-24 126 C-24.04241723 128.33294775 -24.04092937 130.66702567 -24 133 C-22.25454395 134.74545605 -19.83875783 134.1302316 -17.46875 134.1328125 C-15.78845703 134.13474609 -15.78845703 134.13474609 -14.07421875 134.13671875 C-12.30498047 134.13091797 -12.30498047 134.13091797 -10.5 134.125 C-9.32050781 134.12886719 -8.14101562 134.13273438 -6.92578125 134.13671875 C-5.80558594 134.13542969 -4.68539062 134.13414062 -3.53125 134.1328125 C-1.97760742 134.13112061 -1.97760742 134.13112061 -0.39257812 134.12939453 C1.95297823 134.26965153 1.95297823 134.26965153 3 133 C3.33340471 130.04195427 3.33340471 130.04195427 3 127 C-0.16102901 124.89264733 -0.91819323 124.75091797 -4.52734375 124.76953125 C-5.83928711 124.77243164 -5.83928711 124.77243164 -7.17773438 124.77539062 C-8.08845703 124.78763672 -8.99917969 124.79988281 -9.9375 124.8125 C-11.2977832 124.8134668 -11.2977832 124.8134668 -12.68554688 124.81445312 C-16.6386258 124.84063246 -20.17915436 124.90544428 -24 126 Z M-27 138 C-26.67 140.31 -26.34 142.62 -26 145 C-17.58780838 145.22105029 -9.14272292 145.44281688 -1 143 C-0.34 142.34 0.32 141.68 1 141 C1 139.68 1 138.36 1 137 C-4.81488676 134.09255662 -21.20235451 135.10117725 -27 138 Z " fill="#000000" transform="translate(112,11)"/>
<path d="M0 0 C1.98046875 1.3671875 1.98046875 1.3671875 4.66796875 3.5546875 C3.14853145 8.4150562 0.33878221 11.61548106 -2.95703125 15.3671875 C-3.47265625 15.96466797 -3.98828125 16.56214844 -4.51953125 17.17773438 C-5.78449397 18.64181159 -7.05746959 20.09895905 -8.33203125 21.5546875 C-11.3739646 20.92371879 -12.93691869 20.18503406 -15.70703125 18.4921875 C-22.10658392 15.22050608 -29.99887822 15.35140944 -36.8359375 17.25 C-42.70078915 19.89864268 -46.05815481 24.18891698 -49.08203125 29.8046875 C-51.97077698 38.47092469 -52.12734295 46.60369291 -48.2109375 54.94140625 C-44.59883701 61.13211673 -40.24254994 64.582962 -33.33203125 66.5546875 C-26.27594775 67.50340461 -20.15718555 67.34359184 -14.015625 63.52734375 C-12.14922055 62.44907297 -10.43344622 61.99152431 -8.33203125 61.5546875 C-6.91359116 63.11557776 -5.497361 64.6784764 -4.08203125 66.2421875 C-2.89867187 67.54736328 -2.89867187 67.54736328 -1.69140625 68.87890625 C4.66796875 76.09111134 4.66796875 76.09111134 4.66796875 78.5546875 C-5.08146155 87.14095367 -14.68347626 89.88312063 -27.39453125 89.9921875 C-28.77753418 90.0075354 -28.77753418 90.0075354 -30.18847656 90.02319336 C-42.60899128 89.86500547 -54.29977941 85.42304968 -63.58203125 77.0546875 C-73.66636448 66.22336662 -76.8432891 52.47106973 -76.578125 38.07421875 C-75.7298429 25.94243829 -71.01124099 14.23389724 -62.33203125 5.5546875 C-44.95753646 -8.55626175 -19.48833755 -12.07819915 0 0 Z " fill="#000000" transform="translate(349.33203125,67.4453125)"/>
<path d="M0 0 C7.26 0 14.52 0 22 0 C22.33 9.24 22.66 18.48 23 28 C24.65 27.01 26.3 26.02 28 25 C30.70923005 24.68311429 33.11229392 24.52305099 35.8125 24.5625 C36.87936035 24.57277222 36.87936035 24.57277222 37.96777344 24.58325195 C45.07892102 24.80089024 49.34802454 26.27823571 54.375 31.4375 C59.45262478 39.44452369 59.14049283 47.77769492 59.09765625 56.9609375 C59.0962413 58.10664215 59.09482635 59.2523468 59.09336853 60.43276978 C59.0877858 64.08020678 59.07523641 67.72758165 59.0625 71.375 C59.05748277 73.85286369 59.05292025 76.33072835 59.04882812 78.80859375 C59.03867433 84.87243883 59.0190954 90.93615014 59 97 C51.41 97 43.82 97 36 97 C35.95101563 93.56980469 35.90203125 90.13960938 35.8515625 86.60546875 C35.797578 83.28926162 35.74026052 79.97312773 35.68261719 76.65698242 C35.64429584 74.34942056 35.60944859 72.04179832 35.578125 69.73413086 C35.53254318 66.42019037 35.47453712 63.10666673 35.4140625 59.79296875 C35.40251129 58.7585112 35.39096008 57.72405365 35.37905884 56.6582489 C35.35918915 55.6974794 35.33931946 54.7367099 35.31884766 53.74682617 C35.30552399 52.90077316 35.29220032 52.05472015 35.2784729 51.18302917 C35.12741711 48.70908991 35.12741711 48.70908991 33 46 C30.79274927 45.63637182 30.79274927 45.63637182 28.375 45.8125 C27.14910156 45.85310547 27.14910156 45.85310547 25.8984375 45.89453125 C24.95871094 45.94673828 24.95871094 45.94673828 24 46 C23.1477347 48.9774696 22.85287628 51.67571776 22.79467773 54.76855469 C22.77473251 55.70922791 22.75478729 56.64990112 22.73423767 57.61907959 C22.70916893 59.13021332 22.70916893 59.13021332 22.68359375 60.671875 C22.66281265 61.70942932 22.64203156 62.74698364 22.62062073 63.815979 C22.55528592 67.12725258 22.49631483 70.43860482 22.4375 73.75 C22.39429951 75.99610185 22.35068473 78.24219578 22.30664062 80.48828125 C22.1988421 85.99210807 22.09964877 91.49599543 22 97 C14.74 97 7.48 97 0 97 C0 64.99 0 32.98 0 0 Z " fill="#000000" transform="translate(1704,58)"/>
<path d="M0 0 C7.26 0 14.52 0 22 0 C22.33 9.24 22.66 18.48 23 28 C24.65 27.01 26.3 26.02 28 25 C30.70923005 24.68311429 33.11229392 24.52305099 35.8125 24.5625 C36.87936035 24.57277222 36.87936035 24.57277222 37.96777344 24.58325195 C45.07892102 24.80089024 49.34802454 26.27823571 54.375 31.4375 C59.45262478 39.44452369 59.14049283 47.77769492 59.09765625 56.9609375 C59.0962413 58.10664215 59.09482635 59.2523468 59.09336853 60.43276978 C59.0877858 64.08020678 59.07523641 67.72758165 59.0625 71.375 C59.05748277 73.85286369 59.05292025 76.33072835 59.04882812 78.80859375 C59.03867433 84.87243883 59.0190954 90.93615014 59 97 C51.41 97 43.82 97 36 97 C35.95101563 93.56980469 35.90203125 90.13960938 35.8515625 86.60546875 C35.797578 83.28926162 35.74026052 79.97312773 35.68261719 76.65698242 C35.64429584 74.34942056 35.60944859 72.04179832 35.578125 69.73413086 C35.53254318 66.42019037 35.47453712 63.10666673 35.4140625 59.79296875 C35.40251129 58.7585112 35.39096008 57.72405365 35.37905884 56.6582489 C35.35918915 55.6974794 35.33931946 54.7367099 35.31884766 53.74682617 C35.30552399 52.90077316 35.29220032 52.05472015 35.2784729 51.18302917 C35.12741711 48.70908991 35.12741711 48.70908991 33 46 C30.79274927 45.63637182 30.79274927 45.63637182 28.375 45.8125 C27.14910156 45.85310547 27.14910156 45.85310547 25.8984375 45.89453125 C24.95871094 45.94673828 24.95871094 45.94673828 24 46 C23.1477347 48.9774696 22.85287628 51.67571776 22.79467773 54.76855469 C22.77473251 55.70922791 22.75478729 56.64990112 22.73423767 57.61907959 C22.70916893 59.13021332 22.70916893 59.13021332 22.68359375 60.671875 C22.66281265 61.70942932 22.64203156 62.74698364 22.62062073 63.815979 C22.55528592 67.12725258 22.49631483 70.43860482 22.4375 73.75 C22.39429951 75.99610185 22.35068473 78.24219578 22.30664062 80.48828125 C22.1988421 85.99210807 22.09964877 91.49599543 22 97 C14.74 97 7.48 97 0 97 C0 64.99 0 32.98 0 0 Z " fill="#000000" transform="translate(1478,58)"/>
<path d="M0 0 C8.67216944 6.09520806 13.62600873 13.85524539 15.625 24.25 C16.83333333 36.33333333 16.83333333 36.33333333 15 40 C-0.51 40 -16.02 40 -32 40 C-28.78680058 45.60564505 -28.78680058 45.60564505 -24 48 C-19.19016279 48.70553324 -14.06603878 49.31644709 -9.8359375 46.62109375 C-8.05318616 44.9884992 -8.05318616 44.9884992 -6.59765625 43.21484375 C-5 42 -5 42 -2.69921875 42.10546875 C0.55084404 43.18255179 3.29301886 44.64888047 6.25 46.375 C7.83554688 47.28378906 7.83554688 47.28378906 9.453125 48.2109375 C12 50 12 50 13 53 C9.42011039 60.29986186 2.62244362 65.02955688 -4.67578125 68.140625 C-16.84051359 71.28544417 -30.35412882 69.86235286 -41.22265625 63.75 C-48.91542084 58.68859227 -52.97556008 50.8122679 -55 42 C-56.4379793 28.88962644 -55.22439144 17.24949796 -46.8125 6.625 C-35.52932749 -5.22727989 -14.23284351 -9.10364896 0 0 Z M-29.875 18.9375 C-31.31923475 21.19370234 -31.31923475 21.19370234 -31 25 C-23.41 25 -15.82 25 -8 25 C-9.08861267 19.55693663 -9.71132484 18.28494268 -14 15 C-20.23953886 12.8944766 -25.23235352 14.14009863 -29.875 18.9375 Z " fill="#000000" transform="translate(2180,87)"/>
<path d="M0 0 C8.67216944 6.09520806 13.62600873 13.85524539 15.625 24.25 C16.83333333 36.33333333 16.83333333 36.33333333 15 40 C-0.51 40 -16.02 40 -32 40 C-28.78680058 45.60564505 -28.78680058 45.60564505 -24 48 C-19.19016279 48.70553324 -14.06603878 49.31644709 -9.8359375 46.62109375 C-8.05318616 44.9884992 -8.05318616 44.9884992 -6.59765625 43.21484375 C-5 42 -5 42 -2.69921875 42.10546875 C0.55084404 43.18255179 3.29301886 44.64888047 6.25 46.375 C7.83554688 47.28378906 7.83554688 47.28378906 9.453125 48.2109375 C12 50 12 50 13 53 C9.42011039 60.29986186 2.62244362 65.02955688 -4.67578125 68.140625 C-16.84051359 71.28544417 -30.35412882 69.86235286 -41.22265625 63.75 C-48.91542084 58.68859227 -52.97556008 50.8122679 -55 42 C-56.4379793 28.88962644 -55.22439144 17.24949796 -46.8125 6.625 C-35.52932749 -5.22727989 -14.23284351 -9.10364896 0 0 Z M-29.875 18.9375 C-31.31923475 21.19370234 -31.31923475 21.19370234 -31 25 C-23.41 25 -15.82 25 -8 25 C-9.08861267 19.55693663 -9.71132484 18.28494268 -14 15 C-20.23953886 12.8944766 -25.23235352 14.14009863 -29.875 18.9375 Z " fill="#000000" transform="translate(1598,87)"/>
<path d="M0 0 C8.67216944 6.09520806 13.62600873 13.85524539 15.625 24.25 C16.83333333 36.33333333 16.83333333 36.33333333 15 40 C-0.51 40 -16.02 40 -32 40 C-28.78680058 45.60564505 -28.78680058 45.60564505 -24 48 C-19.19016279 48.70553324 -14.06603878 49.31644709 -9.8359375 46.62109375 C-8.05318616 44.9884992 -8.05318616 44.9884992 -6.59765625 43.21484375 C-5 42 -5 42 -2.69921875 42.10546875 C0.55084404 43.18255179 3.29301886 44.64888047 6.25 46.375 C7.83554687 47.28378906 7.83554687 47.28378906 9.453125 48.2109375 C12 50 12 50 13 53 C9.42011039 60.29986186 2.62244362 65.02955688 -4.67578125 68.140625 C-16.84051359 71.28544417 -30.35412882 69.86235286 -41.22265625 63.75 C-48.91542084 58.68859227 -52.97556008 50.8122679 -55 42 C-56.4379793 28.88962644 -55.22439144 17.24949796 -46.8125 6.625 C-35.52932749 -5.22727989 -14.23284351 -9.10364896 0 0 Z M-29.875 18.9375 C-31.31923475 21.19370234 -31.31923475 21.19370234 -31 25 C-23.41 25 -15.82 25 -8 25 C-9.08861267 19.55693663 -9.71132484 18.28494268 -14 15 C-20.23953886 12.8944766 -25.23235352 14.14009863 -29.875 18.9375 Z " fill="#000000" transform="translate(796,87)"/>
<path d="M0 0 C8.67216944 6.09520806 13.62600873 13.85524539 15.625 24.25 C16.83333333 36.33333333 16.83333333 36.33333333 15 40 C-0.51 40 -16.02 40 -32 40 C-28.78680058 45.60564505 -28.78680058 45.60564505 -24 48 C-19.19016279 48.70553324 -14.06603878 49.31644709 -9.8359375 46.62109375 C-8.05318616 44.9884992 -8.05318616 44.9884992 -6.59765625 43.21484375 C-5 42 -5 42 -2.69921875 42.10546875 C0.55084404 43.18255179 3.29301886 44.64888047 6.25 46.375 C7.83554687 47.28378906 7.83554687 47.28378906 9.453125 48.2109375 C12 50 12 50 13 53 C9.42011039 60.29986186 2.62244362 65.02955688 -4.67578125 68.140625 C-16.84051359 71.28544417 -30.35412882 69.86235286 -41.22265625 63.75 C-48.91542084 58.68859227 -52.97556008 50.8122679 -55 42 C-56.4379793 28.88962644 -55.22439144 17.24949796 -46.8125 6.625 C-35.52932749 -5.22727989 -14.23284351 -9.10364896 0 0 Z M-29.875 18.9375 C-31.31923475 21.19370234 -31.31923475 21.19370234 -31 25 C-23.41 25 -15.82 25 -8 25 C-9.08861267 19.55693663 -9.71132484 18.28494268 -14 15 C-20.23953886 12.8944766 -25.23235352 14.14009863 -29.875 18.9375 Z " fill="#000000" transform="translate(615,87)"/>
<path d="M0 0 C46.94736842 0 46.94736842 0 54.4375 5.9296875 C54.953125 6.57164063 55.46875 7.21359375 56 7.875 C56.53625 8.51179688 57.0725 9.14859375 57.625 9.8046875 C62.42815912 17.47336769 61.98204776 27.27426414 61 36 C59.13231456 42.80371126 55.12844113 48.40360219 49 52 C41 55 41 55 23 55 C23 67.21 23 79.42 23 92 C15.41 92 7.82 92 0 92 C0 61.64 0 31.28 0 0 Z M23 19 C23 24.61 23 30.22 23 36 C30.93714071 36.17105605 30.93714071 36.17105605 37 32 C38.01233652 28.49575818 38.26911856 26.65784536 36.875 23.25 C34.64621355 20.57545626 33.36686824 19.84171706 30 19 C27.69 19 25.38 19 23 19 Z " fill="#000000" transform="translate(1639,63)"/>
<path d="M0 0 C8.50337148 5.36025411 14.28238854 11.66228372 17.08447266 21.49121094 C19.76123284 33.73025169 17.90912778 46.17225222 11.23046875 56.67578125 C6.26940965 63.20572229 -1.60645808 67.57456672 -9.453125 69.60546875 C-23.22740238 71.0441487 -35.57996879 70.20567404 -46.828125 61.48046875 C-53.19005684 55.43729759 -57.16437308 47.38170958 -57.69140625 38.6640625 C-57.98288316 26.71480463 -57.2319905 17.68761257 -49.203125 8.23046875 C-36.75757079 -4.62313642 -16.25440328 -8.19607623 0 0 Z M-31.453125 20.60546875 C-34.76785125 25.20867793 -36.1294466 29.7024619 -35.8359375 35.3671875 C-34.92766663 40.67779166 -32.71747542 44.37195615 -28.890625 48.10546875 C-24.01384983 50.2335161 -19.69437435 50.38541657 -14.453125 49.60546875 C-9.30458819 47.03120035 -6.271117 44.05944474 -4.453125 38.60546875 C-3.7140812 31.78445796 -4.32612875 26.22025361 -8.453125 20.60546875 C-12.08891995 17.05835173 -15.01942285 16.31968648 -19.953125 16.10546875 C-24.88682715 16.31968648 -27.81733005 17.05835173 -31.453125 20.60546875 Z " fill="#000000" transform="translate(1352.453125,86.39453125)"/>
<path d="M0 0 C8.50337148 5.36025411 14.28238854 11.66228372 17.08447266 21.49121094 C19.76123284 33.73025169 17.90912778 46.17225222 11.23046875 56.67578125 C6.26940965 63.20572229 -1.60645808 67.57456672 -9.453125 69.60546875 C-23.22740238 71.0441487 -35.57996879 70.20567404 -46.828125 61.48046875 C-53.19005684 55.43729759 -57.16437308 47.38170958 -57.69140625 38.6640625 C-57.98288316 26.71480463 -57.2319905 17.68761257 -49.203125 8.23046875 C-36.75757079 -4.62313642 -16.25440328 -8.19607623 0 0 Z M-31.453125 20.60546875 C-34.76785125 25.20867793 -36.1294466 29.7024619 -35.8359375 35.3671875 C-34.92766663 40.67779166 -32.71747542 44.37195615 -28.890625 48.10546875 C-24.01384983 50.2335161 -19.69437435 50.38541657 -14.453125 49.60546875 C-9.30458819 47.03120035 -6.271117 44.05944474 -4.453125 38.60546875 C-3.7140812 31.78445796 -4.32612875 26.22025361 -8.453125 20.60546875 C-12.08891995 17.05835173 -15.01942285 16.31968648 -19.953125 16.10546875 C-24.88682715 16.31968648 -27.81733005 17.05835173 -31.453125 20.60546875 Z " fill="#000000" transform="translate(410.453125,86.39453125)"/>
<path d="M0 0 C1.06686035 0.01027222 1.06686035 0.01027222 2.15527344 0.02075195 C9.26642102 0.23839024 13.53552454 1.71573571 18.5625 6.875 C23.64012478 14.88202369 23.32799283 23.21519492 23.28515625 32.3984375 C23.2837413 33.54414215 23.28232635 34.6898468 23.28086853 35.87026978 C23.2752858 39.51770678 23.26273641 43.16508165 23.25 46.8125 C23.24498277 49.29036369 23.24042025 51.76822835 23.23632812 54.24609375 C23.22617433 60.30993883 23.2065954 66.37365014 23.1875 72.4375 C15.5975 72.4375 8.0075 72.4375 0.1875 72.4375 C0.13851562 69.00730469 0.08953125 65.57710938 0.0390625 62.04296875 C-0.014922 58.72676162 -0.07223948 55.41062773 -0.12988281 52.09448242 C-0.16820416 49.78692056 -0.20305141 47.47929832 -0.234375 45.17163086 C-0.27995682 41.85769037 -0.33796288 38.54416673 -0.3984375 35.23046875 C-0.40998871 34.1960112 -0.42153992 33.16155365 -0.43344116 32.0957489 C-0.45331085 31.1349794 -0.47318054 30.1742099 -0.49365234 29.18432617 C-0.50697601 28.33827316 -0.52029968 27.49222015 -0.5340271 26.62052917 C-0.68508289 24.14658991 -0.68508289 24.14658991 -2.8125 21.4375 C-5.01975073 21.07387182 -5.01975073 21.07387182 -7.4375 21.25 C-8.25476562 21.27707031 -9.07203125 21.30414063 -9.9140625 21.33203125 C-10.85378906 21.38423828 -10.85378906 21.38423828 -11.8125 21.4375 C-12.6647653 24.4149696 -12.95962372 27.11321776 -13.01782227 30.20605469 C-13.03776749 31.14672791 -13.05771271 32.08740112 -13.07826233 33.05657959 C-13.10333107 34.56771332 -13.10333107 34.56771332 -13.12890625 36.109375 C-13.14968735 37.14692932 -13.17046844 38.18448364 -13.19187927 39.253479 C-13.25721408 42.56475258 -13.31618517 45.87610482 -13.375 49.1875 C-13.41820049 51.43360185 -13.46181527 53.67969578 -13.50585938 55.92578125 C-13.6136579 61.42960807 -13.71285123 66.93349543 -13.8125 72.4375 C-21.0725 72.4375 -28.3325 72.4375 -35.8125 72.4375 C-35.8125 49.0075 -35.8125 25.5775 -35.8125 1.4375 C-28.5525 1.4375 -21.2925 1.4375 -13.8125 1.4375 C-13.4825 2.0975 -13.1525 2.7575 -12.8125 3.4375 C-12.14863281 2.95152344 -11.48476562 2.46554688 -10.80078125 1.96484375 C-7.14572554 0.09670416 -4.01298776 -0.05862827 0 0 Z " fill="#000000" transform="translate(2096.8125,82.5625)"/>
<path d="M0 0 C1.06686035 0.01027222 1.06686035 0.01027222 2.15527344 0.02075195 C9.26642102 0.23839024 13.53552454 1.71573571 18.5625 6.875 C23.64012478 14.88202369 23.32799283 23.21519492 23.28515625 32.3984375 C23.2837413 33.54414215 23.28232635 34.6898468 23.28086853 35.87026978 C23.2752858 39.51770678 23.26273641 43.16508165 23.25 46.8125 C23.24498277 49.29036369 23.24042025 51.76822835 23.23632812 54.24609375 C23.22617433 60.30993883 23.2065954 66.37365014 23.1875 72.4375 C15.5975 72.4375 8.0075 72.4375 0.1875 72.4375 C0.13851562 69.00730469 0.08953125 65.57710938 0.0390625 62.04296875 C-0.014922 58.72676162 -0.07223948 55.41062773 -0.12988281 52.09448242 C-0.16820416 49.78692056 -0.20305141 47.47929832 -0.234375 45.17163086 C-0.27995682 41.85769037 -0.33796288 38.54416673 -0.3984375 35.23046875 C-0.40998871 34.1960112 -0.42153992 33.16155365 -0.43344116 32.0957489 C-0.45331085 31.1349794 -0.47318054 30.1742099 -0.49365234 29.18432617 C-0.50697601 28.33827316 -0.52029968 27.49222015 -0.5340271 26.62052917 C-0.68508289 24.14658991 -0.68508289 24.14658991 -2.8125 21.4375 C-5.01975073 21.07387182 -5.01975073 21.07387182 -7.4375 21.25 C-8.25476563 21.27707031 -9.07203125 21.30414063 -9.9140625 21.33203125 C-10.85378906 21.38423828 -10.85378906 21.38423828 -11.8125 21.4375 C-12.6647653 24.4149696 -12.95962372 27.11321776 -13.01782227 30.20605469 C-13.03776749 31.14672791 -13.05771271 32.08740112 -13.07826233 33.05657959 C-13.10333107 34.56771332 -13.10333107 34.56771332 -13.12890625 36.109375 C-13.14968735 37.14692932 -13.17046844 38.18448364 -13.19187927 39.253479 C-13.25721408 42.56475258 -13.31618517 45.87610482 -13.375 49.1875 C-13.41820049 51.43360185 -13.46181527 53.67969578 -13.50585938 55.92578125 C-13.6136579 61.42960807 -13.71285123 66.93349543 -13.8125 72.4375 C-21.0725 72.4375 -28.3325 72.4375 -35.8125 72.4375 C-35.8125 49.0075 -35.8125 25.5775 -35.8125 1.4375 C-28.5525 1.4375 -21.2925 1.4375 -13.8125 1.4375 C-13.4825 2.0975 -13.1525 2.7575 -12.8125 3.4375 C-12.14863281 2.95152344 -11.48476563 2.46554688 -10.80078125 1.96484375 C-7.14572554 0.09670416 -4.01298776 -0.05862827 0 0 Z " fill="#000000" transform="translate(712.8125,82.5625)"/>
<path d="M0 0 C1.06686035 0.01027222 1.06686035 0.01027222 2.15527344 0.02075195 C9.26642102 0.23839024 13.53552454 1.71573571 18.5625 6.875 C23.64012478 14.88202369 23.32799283 23.21519492 23.28515625 32.3984375 C23.2837413 33.54414215 23.28232635 34.6898468 23.28086853 35.87026978 C23.2752858 39.51770678 23.26273641 43.16508165 23.25 46.8125 C23.24498277 49.29036369 23.24042025 51.76822835 23.23632812 54.24609375 C23.22617433 60.30993883 23.2065954 66.37365014 23.1875 72.4375 C15.5975 72.4375 8.0075 72.4375 0.1875 72.4375 C0.13851562 69.00730469 0.08953125 65.57710938 0.0390625 62.04296875 C-0.014922 58.72676162 -0.07223948 55.41062773 -0.12988281 52.09448242 C-0.16820416 49.78692056 -0.20305141 47.47929832 -0.234375 45.17163086 C-0.27995682 41.85769037 -0.33796288 38.54416673 -0.3984375 35.23046875 C-0.40998871 34.1960112 -0.42153992 33.16155365 -0.43344116 32.0957489 C-0.45331085 31.1349794 -0.47318054 30.1742099 -0.49365234 29.18432617 C-0.50697601 28.33827316 -0.52029968 27.49222015 -0.5340271 26.62052917 C-0.68508289 24.14658991 -0.68508289 24.14658991 -2.8125 21.4375 C-5.01975073 21.07387182 -5.01975073 21.07387182 -7.4375 21.25 C-8.25476563 21.27707031 -9.07203125 21.30414063 -9.9140625 21.33203125 C-10.85378906 21.38423828 -10.85378906 21.38423828 -11.8125 21.4375 C-12.6647653 24.4149696 -12.95962372 27.11321776 -13.01782227 30.20605469 C-13.03776749 31.14672791 -13.05771271 32.08740112 -13.07826233 33.05657959 C-13.10333107 34.56771332 -13.10333107 34.56771332 -13.12890625 36.109375 C-13.14968735 37.14692932 -13.17046844 38.18448364 -13.19187927 39.253479 C-13.25721408 42.56475258 -13.31618517 45.87610482 -13.375 49.1875 C-13.41820049 51.43360185 -13.46181527 53.67969578 -13.50585938 55.92578125 C-13.6136579 61.42960807 -13.71285123 66.93349543 -13.8125 72.4375 C-21.0725 72.4375 -28.3325 72.4375 -35.8125 72.4375 C-35.8125 49.0075 -35.8125 25.5775 -35.8125 1.4375 C-28.5525 1.4375 -21.2925 1.4375 -13.8125 1.4375 C-13.4825 2.0975 -13.1525 2.7575 -12.8125 3.4375 C-12.14863281 2.95152344 -11.48476563 2.46554688 -10.80078125 1.96484375 C-7.14572554 0.09670416 -4.01298776 -0.05862827 0 0 Z " fill="#000000" transform="translate(470.8125,82.5625)"/>
<path d="M0 0 C5.13276188 3.14415256 8.21186948 7.19810845 10.125 12.9375 C10.25281786 15.61144964 10.16891871 18.25845857 10.125 20.9375 C6.85463272 21.08260162 3.58508993 21.17149373 0.3125 21.25 C-0.61626953 21.29189453 -1.54503906 21.33378906 -2.50195312 21.37695312 C-5.05258849 21.42299347 -7.3698172 21.42589905 -9.875 20.9375 C-11.8125 18.4375 -11.8125 18.4375 -12.875 15.9375 C-16.00135209 15.52003392 -16.00135209 15.52003392 -18.875 15.9375 C-19.205 17.2575 -19.535 18.5775 -19.875 19.9375 C-15.74743017 21.86369926 -11.79726382 23.26485929 -7.375 24.375 C0.36459387 26.43182358 5.38987059 29.39187993 10.125 35.9375 C12.37664566 42.69243698 12.51097369 53.12829328 9.5 59.625 C5.61427454 65.79324951 0.04735147 69.04693554 -6.875 70.9375 C-10.05552581 71.33489691 -13.17324427 71.35875329 -16.375 71.3125 C-17.17808594 71.32410156 -17.98117188 71.33570313 -18.80859375 71.34765625 C-25.55532292 71.31485206 -30.81226238 69.81690717 -36.625 66.25 C-42.6620741 60.04522939 -42.875 55.85167398 -42.875 46.9375 C-35.945 46.9375 -29.015 46.9375 -21.875 46.9375 C-21.215 48.5875 -20.555 50.2375 -19.875 51.9375 C-16.91549744 53.10572469 -15.51903708 53.19859611 -12.5625 52 C-11.7271875 51.4740625 -11.7271875 51.4740625 -10.875 50.9375 C-11.09580062 48.96211121 -11.09580062 48.96211121 -11.875 46.9375 C-14.64355567 45.9056656 -17.20818926 45.12557158 -20.0625 44.4375 C-28.71234554 42.29900451 -34.52579 39.21836916 -39.875 31.9375 C-42.73745769 26.0031365 -42.92013341 19.1561772 -41.33984375 12.77734375 C-38.66117681 6.11727022 -34.61908161 1.90668382 -28.18359375 -1.10546875 C-19.43003354 -3.6374903 -8.38730186 -3.79065745 0 0 Z " fill="#000000" transform="translate(2241.875,85.0625)"/>
<path d="M0 0 C5.13276188 3.14415256 8.21186948 7.19810845 10.125 12.9375 C10.25281786 15.61144964 10.16891871 18.25845857 10.125 20.9375 C6.85463272 21.08260162 3.58508993 21.17149373 0.3125 21.25 C-0.61626953 21.29189453 -1.54503906 21.33378906 -2.50195312 21.37695312 C-5.05258849 21.42299347 -7.3698172 21.42589905 -9.875 20.9375 C-11.8125 18.4375 -11.8125 18.4375 -12.875 15.9375 C-16.00135209 15.52003392 -16.00135209 15.52003392 -18.875 15.9375 C-19.205 17.2575 -19.535 18.5775 -19.875 19.9375 C-15.74743017 21.86369926 -11.79726382 23.26485929 -7.375 24.375 C0.36459387 26.43182358 5.38987059 29.39187993 10.125 35.9375 C12.37664566 42.69243698 12.51097369 53.12829328 9.5 59.625 C5.61427454 65.79324951 0.04735147 69.04693554 -6.875 70.9375 C-10.05552581 71.33489691 -13.17324427 71.35875329 -16.375 71.3125 C-17.17808594 71.32410156 -17.98117187 71.33570313 -18.80859375 71.34765625 C-25.55532292 71.31485206 -30.81226238 69.81690717 -36.625 66.25 C-42.6620741 60.04522939 -42.875 55.85167398 -42.875 46.9375 C-35.945 46.9375 -29.015 46.9375 -21.875 46.9375 C-21.215 48.5875 -20.555 50.2375 -19.875 51.9375 C-16.91549744 53.10572469 -15.51903708 53.19859611 -12.5625 52 C-11.7271875 51.4740625 -11.7271875 51.4740625 -10.875 50.9375 C-11.09580062 48.96211121 -11.09580062 48.96211121 -11.875 46.9375 C-14.64355567 45.9056656 -17.20818926 45.12557158 -20.0625 44.4375 C-28.71234554 42.29900451 -34.52579 39.21836916 -39.875 31.9375 C-42.73745769 26.0031365 -42.92013341 19.1561772 -41.33984375 12.77734375 C-38.66117681 6.11727022 -34.61908161 1.90668382 -28.18359375 -1.10546875 C-19.43003354 -3.6374903 -8.38730186 -3.79065745 0 0 Z " fill="#000000" transform="translate(1259.875,85.0625)"/>
<path d="M0 0 C5.13276188 3.14415256 8.21186948 7.19810845 10.125 12.9375 C10.25281786 15.61144964 10.16891871 18.25845857 10.125 20.9375 C6.85463272 21.08260162 3.58508993 21.17149373 0.3125 21.25 C-0.61626953 21.29189453 -1.54503906 21.33378906 -2.50195312 21.37695312 C-5.05258849 21.42299347 -7.3698172 21.42589905 -9.875 20.9375 C-11.8125 18.4375 -11.8125 18.4375 -12.875 15.9375 C-16.00135209 15.52003392 -16.00135209 15.52003392 -18.875 15.9375 C-19.205 17.2575 -19.535 18.5775 -19.875 19.9375 C-15.74743017 21.86369926 -11.79726382 23.26485929 -7.375 24.375 C0.36459387 26.43182358 5.38987059 29.39187993 10.125 35.9375 C12.37664566 42.69243698 12.51097369 53.12829328 9.5 59.625 C5.61427454 65.79324951 0.04735147 69.04693554 -6.875 70.9375 C-10.05552581 71.33489691 -13.17324427 71.35875329 -16.375 71.3125 C-17.17808594 71.32410156 -17.98117187 71.33570313 -18.80859375 71.34765625 C-25.55532292 71.31485206 -30.81226238 69.81690717 -36.625 66.25 C-42.6620741 60.04522939 -42.875 55.85167398 -42.875 46.9375 C-35.945 46.9375 -29.015 46.9375 -21.875 46.9375 C-21.215 48.5875 -20.555 50.2375 -19.875 51.9375 C-16.91549744 53.10572469 -15.51903708 53.19859611 -12.5625 52 C-11.7271875 51.4740625 -11.7271875 51.4740625 -10.875 50.9375 C-11.09580062 48.96211121 -11.09580062 48.96211121 -11.875 46.9375 C-14.64355567 45.9056656 -17.20818926 45.12557158 -20.0625 44.4375 C-28.71234554 42.29900451 -34.52579 39.21836916 -39.875 31.9375 C-42.73745769 26.0031365 -42.92013341 19.1561772 -41.33984375 12.77734375 C-38.66117681 6.11727022 -34.61908161 1.90668382 -28.18359375 -1.10546875 C-19.43003354 -3.6374903 -8.38730186 -3.79065745 0 0 Z " fill="#000000" transform="translate(1159.875,85.0625)"/>
<path d="M0 0 C2.644872 1.82784223 4.7592339 4.04207485 6.97265625 6.36328125 C5.39875074 8.49586314 3.8143323 10.61902718 2.22265625 12.73828125 C1.5575 13.64320312 1.5575 13.64320312 0.87890625 14.56640625 C-3.52091189 20.38969496 -3.52091189 20.38969496 -7.02734375 21.36328125 C-7.70796875 20.90953125 -8.38859375 20.45578125 -9.08984375 19.98828125 C-13.61130723 17.48704613 -17.97327806 17.71018612 -23.02734375 18.36328125 C-27.17513608 20.21497425 -28.60809116 21.65055185 -30.90234375 25.55078125 C-32.71805253 31.70401656 -33.01860484 36.80362762 -30.33984375 42.73828125 C-28.36255144 46.16104242 -26.883246 48.05063368 -23.02734375 49.36328125 C-16.72642917 50.02853618 -12.38341411 49.93399483 -7.02734375 46.36328125 C-2.60166538 47.59210301 -0.36585119 51.46670717 2.22265625 54.98828125 C2.91101563 55.90480469 2.91101563 55.90480469 3.61328125 56.83984375 C4.74016877 58.34236045 5.85738062 59.85212534 6.97265625 61.36328125 C4.45681955 64.04796605 2.23898245 65.97937004 -1.08984375 67.55078125 C-1.76144531 67.87433594 -2.43304687 68.19789063 -3.125 68.53125 C-11.61575961 72.24486765 -25.16119766 71.99807906 -33.77734375 68.73828125 C-35.99609375 67.6171875 -35.99609375 67.6171875 -38.02734375 66.36328125 C-39.0946875 65.72712891 -39.0946875 65.72712891 -40.18359375 65.078125 C-47.85747504 59.93834257 -52.57179754 52.1734834 -55.02734375 43.36328125 C-55.44088831 40.41120929 -55.50620371 37.52869839 -55.46484375 34.55078125 C-55.45509521 33.76251953 -55.44534668 32.97425781 -55.43530273 32.16210938 C-55.11007294 21.41078399 -51.90691103 14.29473016 -44.3984375 6.52734375 C-32.81939748 -4.0406763 -14.38086894 -6.53187131 0 0 Z " fill="#000000" transform="translate(554.02734375,85.63671875)"/>
<path d="M0 0 C0 6.27 0 12.54 0 19 C-2.31 19.66 -4.62 20.32 -7 21 C-8.53146378 24.00594421 -8.53146378 24.00594421 -9 27 C-6.03 27 -3.06 27 0 27 C0 32.94 0 38.88 0 45 C-2.97 45 -5.94 45 -9 45 C-9 62.49 -9 79.98 -9 98 C-16.59 98 -24.18 98 -32 98 C-32 80.51 -32 63.02 -32 45 C-33.98 45 -35.96 45 -38 45 C-38 39.06 -38 33.12 -38 27 C-36.02 27 -34.04 27 -32 27 C-31.97421875 26.2265625 -31.9484375 25.453125 -31.921875 24.65625 C-31.48047439 16.55052967 -30.51325142 10.42316805 -24.5625 4.625 C-16.76340207 -0.32076942 -8.97326183 -0.10943002 0 0 Z " fill="#000000" transform="translate(1410,57)"/>
<path d="M0 0 C7.59 0 15.18 0 23 0 C23 3.63 23 7.26 23 11 C25.97 11 28.94 11 32 11 C32 16.94 32 22.88 32 29 C29.03 29 26.06 29 23 29 C23.33 39.56 23.66 50.12 24 61 C26.64 61.99 29.28 62.98 32 64 C32.02683987 66.97922593 32.04676037 69.95821295 32.0625 72.9375 C32.07087891 73.78763672 32.07925781 74.63777344 32.08789062 75.51367188 C32.09111328 76.32255859 32.09433594 77.13144531 32.09765625 77.96484375 C32.10289307 78.7137085 32.10812988 79.46257324 32.11352539 80.23413086 C32 82 32 82 31 83 C28.13090273 83.18211752 25.30898906 83.2783968 22.4375 83.3125 C21.25704102 83.35600586 21.25704102 83.35600586 20.05273438 83.40039062 C14.29227105 83.46212684 9.73988516 82.39840823 5 79 C-0.3559885 72.46552433 -0.1532142 64.52896287 -0.09765625 56.44140625 C-0.0962413 55.65225327 -0.09482635 54.86310028 -0.09336853 54.05003357 C-0.08781555 51.55414885 -0.07527208 49.05835715 -0.0625 46.5625 C-0.05747891 44.86002735 -0.05291707 43.15755327 -0.04882812 41.45507812 C-0.03786158 37.30335012 -0.02062991 33.15169078 0 29 C-1.98 29 -3.96 29 -6 29 C-6 23.06 -6 17.12 -6 11 C-4.02 11 -2.04 11 0 11 C0 7.37 0 3.74 0 0 Z " fill="#000000" transform="translate(1438,73)"/>
<path d="M0 0 C7.59 0 15.18 0 23 0 C23 3.63 23 7.26 23 11 C25.97 11 28.94 11 32 11 C32 16.94 32 22.88 32 29 C29.03 29 26.06 29 23 29 C23.33 39.56 23.66 50.12 24 61 C26.64 61.99 29.28 62.98 32 64 C32.02683987 66.97922593 32.04676037 69.95821295 32.0625 72.9375 C32.07087891 73.78763672 32.07925781 74.63777344 32.08789062 75.51367188 C32.09111328 76.32255859 32.09433594 77.13144531 32.09765625 77.96484375 C32.10289307 78.7137085 32.10812988 79.46257324 32.11352539 80.23413086 C32 82 32 82 31 83 C28.13090273 83.18211752 25.30898906 83.2783968 22.4375 83.3125 C21.25704102 83.35600586 21.25704102 83.35600586 20.05273438 83.40039062 C14.29227105 83.46212684 9.73988516 82.39840823 5 79 C-0.3559885 72.46552433 -0.1532142 64.52896287 -0.09765625 56.44140625 C-0.0962413 55.65225327 -0.09482635 54.86310028 -0.09336853 54.05003357 C-0.08781555 51.55414885 -0.07527208 49.05835715 -0.0625 46.5625 C-0.05747891 44.86002735 -0.05291707 43.15755327 -0.04882812 41.45507812 C-0.03786158 37.30335012 -0.02062991 33.15169078 0 29 C-1.98 29 -3.96 29 -6 29 C-6 23.06 -6 17.12 -6 11 C-4.02 11 -2.04 11 0 11 C0 7.37 0 3.74 0 0 Z " fill="#000000" transform="translate(1180,73)"/>
<path d="M0 0 C7.59 0 15.18 0 23 0 C23 3.63 23 7.26 23 11 C25.97 11 28.94 11 32 11 C32 16.94 32 22.88 32 29 C29.03 29 26.06 29 23 29 C23.33 39.56 23.66 50.12 24 61 C26.64 61.99 29.28 62.98 32 64 C32.02683987 66.97922593 32.04676037 69.95821295 32.0625 72.9375 C32.07087891 73.78763672 32.07925781 74.63777344 32.08789062 75.51367188 C32.09111328 76.32255859 32.09433594 77.13144531 32.09765625 77.96484375 C32.10289307 78.7137085 32.10812988 79.46257324 32.11352539 80.23413086 C32 82 32 82 31 83 C28.13090273 83.18211752 25.30898906 83.2783968 22.4375 83.3125 C21.25704102 83.35600586 21.25704102 83.35600586 20.05273438 83.40039062 C14.29227105 83.46212684 9.73988516 82.39840823 5 79 C-0.3559885 72.46552433 -0.1532142 64.52896287 -0.09765625 56.44140625 C-0.0962413 55.65225327 -0.09482635 54.86310028 -0.09336853 54.05003357 C-0.08781555 51.55414885 -0.07527208 49.05835715 -0.0625 46.5625 C-0.05747891 44.86002735 -0.05291707 43.15755327 -0.04882812 41.45507812 C-0.03786158 37.30335012 -0.02062991 33.15169078 0 29 C-1.98 29 -3.96 29 -6 29 C-6 23.06 -6 17.12 -6 11 C-4.02 11 -2.04 11 0 11 C0 7.37 0 3.74 0 0 Z " fill="#000000" transform="translate(1048,73)"/>
<path d="M0 0 C7.26 0 14.52 0 22 0 C22 32.01 22 64.02 22 97 C14.74 97 7.48 97 0 97 C0 64.99 0 32.98 0 0 Z " fill="#000000" transform="translate(1803,58)"/>
<path d="M0 0 C0 7.26 0 14.52 0 22 C-4.24804688 22.68359375 -4.24804688 22.68359375 -8.49609375 23.3671875 C-9.32238281 23.57601562 -10.14867187 23.78484375 -11 24 C-12.17559215 26.3511843 -12.15516463 27.82717914 -12.20532227 30.44970703 C-12.22526749 31.37051056 -12.24521271 32.29131409 -12.26576233 33.24002075 C-12.29083107 34.73382767 -12.29083107 34.73382767 -12.31640625 36.2578125 C-12.33718735 37.27600067 -12.35796844 38.29418884 -12.37937927 39.3432312 C-12.44489466 42.60375055 -12.50376902 45.86435206 -12.5625 49.125 C-12.60568332 51.33203983 -12.64929755 53.53907128 -12.69335938 55.74609375 C-12.80139096 61.16397942 -12.90044976 66.58192521 -13 72 C-20.26 72 -27.52 72 -35 72 C-35 48.57 -35 25.14 -35 1 C-26.66666667 1 -18.33333333 1 -10 1 C-8 0 -8 0 0 0 Z " fill="#000000" transform="translate(1041,83)"/>
<path d="M0 0 C0 7.26 0 14.52 0 22 C-4.24804688 22.68359375 -4.24804688 22.68359375 -8.49609375 23.3671875 C-9.32238281 23.57601562 -10.14867187 23.78484375 -11 24 C-12.17559215 26.3511843 -12.15516463 27.82717914 -12.20532227 30.44970703 C-12.22526749 31.37051056 -12.24521271 32.29131409 -12.26576233 33.24002075 C-12.29083107 34.73382767 -12.29083107 34.73382767 -12.31640625 36.2578125 C-12.33718735 37.27600067 -12.35796844 38.29418884 -12.37937927 39.3432312 C-12.44489466 42.60375055 -12.50376902 45.86435206 -12.5625 49.125 C-12.60568332 51.33203983 -12.64929755 53.53907128 -12.69335938 55.74609375 C-12.80139096 61.16397942 -12.90044976 66.58192521 -13 72 C-20.26 72 -27.52 72 -35 72 C-35 48.57 -35 25.14 -35 1 C-26.66666667 1 -18.33333333 1 -10 1 C-8 0 -8 0 0 0 Z " fill="#000000" transform="translate(671,83)"/>
<path d="M0 0 C14.08020661 -1.14421544 26.73137012 4.46570607 37.64453125 13.08984375 C44.94606256 19.42412858 44.94606256 19.42412858 47 23 C46.68099213 28.60922165 43.19598698 32.60648991 40 37 C39.58363281 37.57363281 39.16726562 38.14726562 38.73828125 38.73828125 C34.4108547 44.30211539 28.93915604 48.47338567 22 50 C13.71985191 50.94437534 3.44333023 49.58295726 -3.625 45 C-4.40875 44.34 -5.1925 43.68 -6 43 C-6.8971875 42.38125 -6.8971875 42.38125 -7.8125 41.75 C-9.88858534 38.69050582 -10.41641157 35.59568089 -10 32 C-7.30803448 26.59427167 -2.74805226 23.97835511 2.65625 21.7265625 C5.41227695 20.87219415 8.1480499 20.4179582 11 20 C7.36433437 13.31587248 3.70775764 6.64443293 0 0 Z M38 22 C37.01 23.98 36.02 25.96 35 28 C36.485 28.99 36.485 28.99 38 30 C39.32 28.02 40.64 26.04 42 24 C40.68 23.34 39.36 22.68 38 22 Z M-4 34 C-4.66 34.66 -5.32 35.32 -6 36 C-5.01 36.99 -4.02 37.98 -3 39 C-2.01 38.67 -1.02 38.34 0 38 C-0.33 37.01 -0.66 36.02 -1 35 C-1.99 34.67 -2.98 34.34 -4 34 Z M27.9375 36.875 C25.77541538 38.76703874 25.77541538 38.76703874 26 41 C27.65 40.34 29.3 39.68 31 39 C31 37.68 31 36.36 31 35 C29.6587587 34.88788787 29.6587587 34.88788787 27.9375 36.875 Z M8 42 C8 42.99 8 43.98 8 45 C10.31 45.33 12.62 45.66 15 46 C15.33 44.68 15.66 43.36 16 42 C13.36 42 10.72 42 8 42 Z " fill="#000000" transform="translate(154,140)"/>
<path d="M0 0 C7.26 0 14.52 0 22 0 C22 23.43 22 46.86 22 71 C14.74 71 7.48 71 0 71 C0 47.57 0 24.14 0 0 Z " fill="#000000" transform="translate(2029,84)"/>
<path d="M0 0 C7.26 0 14.52 0 22 0 C22 23.43 22 46.86 22 71 C14.74 71 7.48 71 0 71 C0 47.57 0 24.14 0 0 Z " fill="#000000" transform="translate(1834,84)"/>
<path d="M0 0 C7.26 0 14.52 0 22 0 C22 23.43 22 46.86 22 71 C14.74 71 7.48 71 0 71 C0 47.57 0 24.14 0 0 Z " fill="#000000" transform="translate(1772,84)"/>
<path d="M0 0 C7.26 0 14.52 0 22 0 C22 23.43 22 46.86 22 71 C14.74 71 7.48 71 0 71 C0 47.57 0 24.14 0 0 Z " fill="#000000" transform="translate(1088,84)"/>
<path d="M0 0 C3.8026029 2.0050088 5.61790841 3.42686262 8 7 C8.98127136 14.06287177 8.22531829 20.17292707 4 26 C-1.01075653 31.01075653 -6.34425673 33.16967443 -13.3125 33.25 C-17.65977742 33.17011129 -17.65977742 33.17011129 -20 32 C-18.86419384 26.01749388 -17.22942411 20.18323367 -15.625 14.3125 C-15.32078125 13.15943359 -15.0165625 12.00636719 -14.703125 10.81835938 C-14.40148437 9.71943359 -14.09984375 8.62050781 -13.7890625 7.48828125 C-13.51787598 6.48321533 -13.24668945 5.47814941 -12.96728516 4.44262695 C-10.71126089 -1.25437525 -5.21732121 -0.73897212 0 0 Z " fill="#000000" transform="translate(169,83)"/>
<path d="M0 0 C20.44582794 -2.69795079 20.44582794 -2.69795079 26.13427734 1.62011719 C29.77387699 5.97524664 32.75799243 11.42564097 34 17 C33 20 33 20 30.453125 21.46484375 C28.86757812 22.19380859 28.86757812 22.19380859 27.25 22.9375 C19.99623904 26.1453529 19.99623904 26.1453529 15 32 C12 31 12 31 10.55786133 28.36376953 C9.82732544 26.6406958 9.82732544 26.6406958 9.08203125 24.8828125 C8.81992355 24.26985321 8.55781586 23.65689392 8.2877655 23.02536011 C7.73559982 21.72790944 7.18871663 20.42819986 6.64672852 19.12646484 C5.8165877 17.13480712 4.96937834 15.15111805 4.11914062 13.16796875 C0 3.44290852 0 3.44290852 0 0 Z M27 16 C26.01 17.485 26.01 17.485 25 19 C26.32 18.67 27.64 18.34 29 18 C28.34 17.34 27.68 16.68 27 16 Z M15 22 C15.33 22.99 15.66 23.98 16 25 C17.32 24.34 18.64 23.68 20 23 C20 22.01 20 21.02 20 20 C17.67642489 19.81509993 17.67642489 19.81509993 15 22 Z " fill="#000000" transform="translate(129,139)"/>
<path d="M0 0 C3.17568542 1.65233922 5.37696485 3.75392971 7 7 C7.51512617 11.09157355 7.94367269 15.23589546 5.953125 18.95703125 C3.44324388 21.9910346 1.52328963 23.8503693 -2.42578125 24.23828125 C-10.23179022 24.43897702 -10.23179022 24.43897702 -14.0625 22.25 C-17.5291087 18.22426086 -18.45692243 15.50272501 -18.32421875 10.03125 C-17.79002404 6.68448796 -16.13123774 4.55748529 -14 2 C-9.5424425 -0.971705 -5.22586818 -0.75294249 0 0 Z " fill="#000000" transform="translate(2045,57)"/>
<path d="M0 0 C3.17568542 1.65233922 5.37696485 3.75392971 7 7 C7.51512617 11.09157355 7.94367269 15.23589546 5.953125 18.95703125 C3.44324388 21.9910346 1.52328963 23.8503693 -2.42578125 24.23828125 C-10.23179022 24.43897702 -10.23179022 24.43897702 -14.0625 22.25 C-17.5291087 18.22426086 -18.45692243 15.50272501 -18.32421875 10.03125 C-17.79002404 6.68448796 -16.13123774 4.55748529 -14 2 C-9.5424425 -0.971705 -5.22586818 -0.75294249 0 0 Z " fill="#000000" transform="translate(1850,57)"/>
<path d="M0 0 C3.17568542 1.65233922 5.37696485 3.75392971 7 7 C7.51512617 11.09157355 7.94367269 15.23589546 5.953125 18.95703125 C3.44324388 21.9910346 1.52328963 23.8503693 -2.42578125 24.23828125 C-10.23179022 24.43897702 -10.23179022 24.43897702 -14.0625 22.25 C-17.5291087 18.22426086 -18.45692243 15.50272501 -18.32421875 10.03125 C-17.79002404 6.68448796 -16.13123774 4.55748529 -14 2 C-9.5424425 -0.971705 -5.22586818 -0.75294249 0 0 Z " fill="#000000" transform="translate(1788,57)"/>
<path d="M0 0 C3.17568542 1.65233922 5.37696485 3.75392971 7 7 C7.51512617 11.09157355 7.94367269 15.23589546 5.953125 18.95703125 C3.44324388 21.9910346 1.52328963 23.8503693 -2.42578125 24.23828125 C-10.23179022 24.43897702 -10.23179022 24.43897702 -14.0625 22.25 C-17.5291087 18.22426086 -18.45692243 15.50272501 -18.32421875 10.03125 C-17.79002404 6.68448796 -16.13123774 4.55748529 -14 2 C-9.5424425 -0.971705 -5.22586818 -0.75294249 0 0 Z " fill="#000000" transform="translate(1104,57)"/>
<path d="M0 0 C0.4375 2.625 0.4375 2.625 0 6 C-1.67279282 7.71139573 -3.47480102 9.09100219 -5.375 10.54296875 C-7.26247356 11.99062173 -7.26247356 11.99062173 -7.9375 14.875 C-7.958125 15.57625 -7.97875 16.2775 -8 17 C-6.35 16.34 -4.7 15.68 -3 15 C-3.42330054 21.56115839 -4.23744479 28.42256522 -8 34 C-10.640625 34.78125 -10.640625 34.78125 -13 35 C-16.65583435 30.54941905 -17.38789129 27.00667337 -17.26953125 21.20703125 C-16.26663227 12.9948874 -11.23673659 7.07952961 -5 2 C-1.42172524 0 -1.42172524 0 0 0 Z " fill="#000000" transform="translate(154,75)"/>
<path d="M0 0 C0 0.66 0 1.32 0 2 C-7.425 3.485 -7.425 3.485 -15 5 C-13.618125 5.433125 -12.23625 5.86625 -10.8125 6.3125 C-7.22638692 7.50032925 -4.14653272 8.86847784 -1 11 C-1.33 11.66 -1.66 12.32 -2 13 C-4.57204139 13.59331981 -7.08651268 14.08070886 -9.6875 14.5 C-13.64306283 15.15506136 -17.40286673 15.79634919 -21.20703125 17.09375 C-24 18 -24 18 -29 18 C-29.66 13.71 -30.32 9.42 -31 5 C-20.93002189 0.73962464 -10.87642951 -0.3853853 0 0 Z M-27 8 C-26.67 10.31 -26.34 12.62 -26 15 C-20.72 13.68 -15.44 12.36 -10 11 C-13.63719605 8.57520264 -15.85703482 8.61337423 -20.1875 8.375 C-21.45980469 8.30023438 -22.73210938 8.22546875 -24.04296875 8.1484375 C-25.01878906 8.09945312 -25.99460937 8.05046875 -27 8 Z " fill="#000000" transform="translate(72,74)"/>
<path d="M0 0 C0.05680591 2.84029548 0.06597458 4.42518217 -1 7 C-4.56236314 10.20116926 -8.46478652 12.48826217 -13 14 C-12.66462741 7.51613002 -11.67351958 4.56224531 -7 0 C-3.86650268 -1.04449911 -3.01031744 -0.93423645 0 0 Z " fill="#000000" transform="translate(175,51)"/>
</svg>
