<?xml version="1.0" encoding="UTF-8"?>
<svg version="1.1" xmlns="http://www.w3.org/2000/svg" width="1800" height="725">
<path d="M0 0 C36.14663816 -0.627674 72.38170606 6.74727602 105.43426514 21.23797607 C107.77292076 22.26296648 110.11329747 23.28398183 112.45361328 24.30517578 C118.20624393 26.81785614 123.9539688 29.34158645 129.69921875 31.87109375 C131.12238907 32.49762344 131.12238907 32.49762344 132.5743103 33.1368103 C135.33090672 34.35235188 138.08569159 35.57190048 140.83984375 36.79296875 C141.65900772 37.15423355 142.47817169 37.51549835 143.32215881 37.88771057 C149.11831525 40.46520467 154.79641103 43.24348726 160.44921875 46.12109375 C159.73873698 47.5420573 159.02818224 48.96298439 158.31738281 50.38378906 C157.63340674 51.75241375 156.95052771 53.12158705 156.26855469 54.49121094 C153.94511219 59.15184411 151.59486398 63.79757442 149.22265625 68.43359375 C133.04525358 100.18991028 116.92225133 132.49206413 116.15893555 168.70141602 C114.45542063 248.77643578 114.45542063 248.77643578 99.44921875 271.12109375 C98.45921875 271.78109375 97.46921875 272.44109375 96.44921875 273.12109375 C95.8665625 272.58742188 95.28390625 272.05375 94.68359375 271.50390625 C78.776317 257.0472931 62.97608964 245.1572422 43.44921875 236.12109375 C42.4334375 235.63769531 41.41765625 235.15429688 40.37109375 234.65625 C26.44621791 228.39766509 11.36994435 226.45873727 -3.67578125 224.93359375 C-5.20582748 224.7684867 -6.73577605 224.60247206 -8.265625 224.43554688 C-22.86010759 222.8676512 -37.3638335 221.95190033 -52.05078125 221.99609375 C-53.33597656 221.99222656 -54.62117188 221.98835937 -55.9453125 221.984375 C-64.85895172 221.99333343 -73.66869222 222.42529841 -82.55078125 223.12109375 C-83.15185547 220.75927734 -83.15185547 220.75927734 -83.55078125 218.12109375 C-81.93359375 215.91015625 -81.93359375 215.91015625 -79.67578125 213.74609375 C-76.95028506 210.85265325 -75.58720081 209.2187644 -74.17578125 205.43359375 C-74.72341052 200.59620187 -76.87252082 199.19882186 -80.55078125 196.12109375 C-80.14859375 195.37859375 -80.14859375 195.37859375 -79.73828125 194.62109375 C-76.74709954 188.32386909 -74.26422445 183.09230349 -76.55078125 176.12109375 C-78.44916335 172.47035894 -80.13531338 169.61830009 -84.11474609 168.22045898 C-86.55078125 166.12109375 -86.55078125 166.12109375 -86.99853516 163.97618103 C-87.15130256 160.96907087 -87.13666934 157.99879437 -87.07421875 154.98828125 C-87.06992355 153.83662979 -87.06562836 152.68497833 -87.061203 151.49842834 C-87.04041202 147.66370819 -86.98340286 143.83042393 -86.92578125 139.99609375 C-86.90295173 137.31843541 -86.88196164 134.64081772 -86.86303711 131.96313477 C-86.81276198 125.56161846 -86.73398842 119.16076915 -86.64313602 112.75971127 C-86.56972921 107.5796292 -86.50544082 102.39950751 -86.44677734 97.21923828 C-86.34723477 88.49885753 -86.23568012 79.77868368 -86.11328125 71.05859375 C-86.10369133 70.3711483 -86.09410141 69.68370285 -86.08422089 68.97542572 C-85.96836824 60.77314979 -85.81389133 52.57288122 -85.61114502 44.37225342 C-85.55443929 41.31811387 -85.55565978 38.26979951 -85.57373047 35.21533203 C-85.5553704 33.49771028 -85.53608103 31.78009807 -85.515625 30.0625 C-85.53718155 29.31266342 -85.5587381 28.56282684 -85.58094788 27.79026794 C-85.53100586 25.71313477 -85.53100586 25.71313477 -84.55078125 22.12109375 C-82.1111229 19.95316901 -79.48180745 18.52636787 -76.55078125 17.12109375 C-75.514375 16.59644531 -74.47796875 16.07179687 -73.41015625 15.53125 C-50.04958076 5.40637746 -25.37990228 0.86554122 0 0 Z M-30.55078125 25.12109375 C-29.89078125 28.09109375 -29.23078125 31.06109375 -28.55078125 34.12109375 C-26.42517688 33.81273143 -24.3003106 33.49927761 -22.17578125 33.18359375 C-20.99242187 33.00957031 -19.8090625 32.83554688 -18.58984375 32.65625 C-15.64375744 32.28646589 -15.64375744 32.28646589 -13.55078125 31.12109375 C-13.82618829 27.30295928 -13.82618829 27.30295928 -15.55078125 24.12109375 C-20.58839141 23.80391089 -25.65039238 23.81432338 -30.55078125 25.12109375 Z M6.44921875 36.12109375 C-1.92556786 46.32429381 -3.67931055 57.57673588 -4.33984375 70.44140625 C-4.55078125 73.12109375 -4.55078125 73.12109375 -5.55078125 76.12109375 C-7.92530748 77.55476997 -10.27866835 78.85094025 -12.73828125 80.12109375 C-21.10080914 84.62840877 -28.33249633 89.97043474 -35.55078125 96.12109375 C-36.246875 96.70246094 -36.94296875 97.28382813 -37.66015625 97.8828125 C-46.08900958 105.55770877 -53.7342526 117.51795855 -54.8203125 128.9609375 C-55.34051478 144.54773912 -52.32957573 160.06191324 -42.30078125 172.37109375 C-41.39328125 173.27859375 -40.48578125 174.18609375 -39.55078125 175.12109375 C-38.89078125 175.12109375 -38.23078125 175.12109375 -37.55078125 175.12109375 C-38.79571535 177.66535228 -40.04652013 180.20643736 -41.30078125 182.74609375 C-41.64882813 183.45894531 -41.996875 184.17179688 -42.35546875 184.90625 C-44.00282489 188.23146887 -45.66745424 191.39260897 -47.80078125 194.43359375 C-49.85724599 197.59173603 -49.90281507 199.42473867 -49.55078125 203.12109375 C-45.56173709 203.59597996 -43.95687134 203.41365328 -40.64453125 201.02734375 C-37.38484701 198.16890604 -35.04125634 194.91715014 -32.67578125 191.30859375 C-32.27359375 190.71111328 -31.87140625 190.11363281 -31.45703125 189.49804688 C-30.48021472 188.04445084 -29.51431702 186.58352693 -28.55078125 185.12109375 C-27.19645446 185.26543243 -25.842329 185.41166036 -24.48828125 185.55859375 C-23.23917969 185.69394531 -23.23917969 185.69394531 -21.96484375 185.83203125 C-20.08959912 186.0565751 -18.22318321 186.35537576 -16.36328125 186.68359375 C3.61143825 188.97577468 21.77310178 184.15972567 37.57421875 171.74609375 C44.24613146 165.25477417 46.30057991 156.9207747 48.44921875 148.12109375 C48.71347656 147.07050781 48.97773438 146.01992188 49.25 144.9375 C51.85724777 132.71713461 51.38265546 120.20288584 44.82421875 109.30859375 C38.8927033 101.1618686 31.03994371 98.13860889 21.44921875 96.12109375 C20.45921875 95.89421875 19.46921875 95.66734375 18.44921875 95.43359375 C13.78713822 94.94796036 9.13177698 95.04610616 4.44921875 95.12109375 C4.60889615 89.63883642 4.84423304 84.05599677 7.44921875 79.12109375 C11.3904838 75.52484287 16.63910945 73.86760271 21.53613281 71.94482422 C25.75373083 70.12882426 29.08192609 67.17859548 32.44921875 64.12109375 C33.155625 63.49460937 33.86203125 62.868125 34.58984375 62.22265625 C40.30738896 56.86510463 44.9472197 50.89642721 46.51171875 43.05859375 C46.43411709 38.16968889 45.25117129 35.08612093 42.44921875 31.12109375 C38.89805746 27.74749053 35.64956672 25.23608369 30.68359375 24.9765625 C21.38634483 25.39201928 12.88551576 29.48713694 6.44921875 36.12109375 Z M59.44921875 28.12109375 C59.11921875 30.43109375 58.78921875 32.74109375 58.44921875 35.12109375 C63.77854307 36.82194194 68.88031358 37.64123344 74.44921875 38.12109375 C74.77921875 35.48109375 75.10921875 32.84109375 75.44921875 30.12109375 C70.16921875 29.46109375 64.88921875 28.80109375 59.44921875 28.12109375 Z M-57.23828125 28.99609375 C-58.41970703 29.23972656 -58.41970703 29.23972656 -59.625 29.48828125 C-60.57826172 29.80152344 -60.57826172 29.80152344 -61.55078125 30.12109375 C-62.86703319 32.75359763 -62.29891783 33.92288431 -61.61328125 36.74609375 C-61.26265625 38.18984375 -60.91203125 39.63359375 -60.55078125 41.12109375 C-55.60078125 39.80109375 -50.65078125 38.48109375 -45.55078125 37.12109375 C-47.03578125 32.66609375 -47.03578125 32.66609375 -48.55078125 28.12109375 C-51.74210228 28.12109375 -54.16997817 28.33678896 -57.23828125 28.99609375 Z M90.44921875 35.12109375 C88.96421875 39.08109375 88.96421875 39.08109375 87.44921875 43.12109375 C93.38921875 45.43109375 99.32921875 47.74109375 105.44921875 50.12109375 C109.59828995 43.31366334 109.59828995 43.31366334 109.44921875 40.12109375 C107.03492106 39.28029356 104.61817882 38.44827973 102.19921875 37.62109375 C101.51730469 37.38261719 100.83539063 37.14414063 100.1328125 36.8984375 C96.68508872 35.72688088 94.13218971 35.12109375 90.44921875 35.12109375 Z M120.44921875 45.12109375 C119.78921875 47.43109375 119.12921875 49.74109375 118.44921875 52.12109375 C123.39921875 54.43109375 128.34921875 56.74109375 133.44921875 59.12109375 C135.09921875 56.81109375 136.74921875 54.50109375 138.44921875 52.12109375 C136.87482404 48.97230433 133.7339415 48.58086883 130.57421875 47.49609375 C129.93613281 47.26664062 129.29804688 47.0371875 128.640625 46.80078125 C125.7764517 45.79622777 123.50671132 45.12109375 120.44921875 45.12109375 Z M-17.55078125 199.12109375 C-17.88078125 202.09109375 -18.21078125 205.06109375 -18.55078125 208.12109375 C-12.80593623 210.71553989 -6.84153161 212.12109375 -0.55078125 212.12109375 C0.59274791 209.83403544 0.55256314 208.52844613 0.51171875 205.99609375 C0.49109375 204.71734375 0.47046875 203.43859375 0.44921875 202.12109375 C-2.17537785 201.61889303 -4.80041494 201.11924018 -7.42578125 200.62109375 C-8.17214844 200.47800781 -8.91851562 200.33492187 -9.6875 200.1875 C-13.59156227 199.40532951 -13.59156227 199.40532951 -17.55078125 199.12109375 Z M11.44921875 203.12109375 C10.18972826 204.15516048 10.18972826 204.15516048 10.3515625 206.40625 C10.36316406 207.32277344 10.37476563 208.23929688 10.38671875 209.18359375 C10.40734375 210.81296875 10.42796875 212.44234375 10.44921875 214.12109375 C18.86421875 216.10109375 18.86421875 216.10109375 27.44921875 218.12109375 C30.6461784 211.93081675 30.6461784 211.93081675 30.44921875 208.12109375 C24.11704181 205.61848705 18.2823393 203.50071156 11.44921875 203.12109375 Z M40.44921875 212.12109375 C39.94306577 213.38948901 39.44452776 214.66092477 38.94921875 215.93359375 C38.67078125 216.64128906 38.39234375 217.34898437 38.10546875 218.078125 C37.29630255 220.23950591 37.29630255 220.23950591 37.44921875 223.12109375 C42.39921875 224.77109375 47.34921875 226.42109375 52.44921875 228.12109375 C54.42921875 224.82109375 56.40921875 221.52109375 58.44921875 218.12109375 C53.95277533 213.62465033 46.57339979 212.77260237 40.44921875 212.12109375 Z M72.44921875 224.12109375 C71.04463006 225.80017645 71.04463006 225.80017645 69.76171875 227.93359375 C69.30410156 228.64128906 68.84648437 229.34898437 68.375 230.078125 C67.11346538 232.24650978 67.11346538 232.24650978 68.44921875 235.12109375 C70.84944422 237.07101705 70.84944422 237.07101705 73.76171875 238.87109375 C75.20998047 239.82242188 75.20998047 239.82242188 76.6875 240.79296875 C79.26704175 242.29810478 79.26704175 242.29810478 81.6328125 242.0390625 C83.86622739 240.91034745 84.80579799 239.75222148 86.19921875 237.68359375 C86.6271875 237.06613281 87.05515625 236.44867188 87.49609375 235.8125 C88.61286201 234.15427222 88.61286201 234.15427222 88.44921875 232.12109375 C86.16047702 230.78250851 83.86852219 229.45008361 81.57421875 228.12109375 C80.92324219 227.73953125 80.27226562 227.35796875 79.6015625 226.96484375 C76.24571674 224.84558219 76.24571674 224.84558219 72.44921875 224.12109375 Z " fill="#000000" transform="translate(377.55078125,214.87890625)"/>
<path d="M0 0 C2.00720923 0.28674418 4.0085944 0.61866701 6 1 C6.32871094 2.84851563 6.32871094 2.84851563 6.6640625 4.734375 C9.1743427 19.99873766 9.1743427 19.99873766 17 33 C16.60726043 39.9177285 14.95508298 45.77881834 12.5625 52.25 C12.09360352 53.55710937 12.09360352 53.55710937 11.61523438 54.890625 C9.17377042 61.66271952 9.17377042 61.66271952 7.90014648 64.13476562 C6.51745698 68.53597093 6.82236126 72.80691183 6.90625 77.390625 C6.92734757 79.74932505 6.94531797 82.10805419 6.9609375 84.46679688 C6.96837353 85.44661341 6.96837353 85.44661341 6.97595978 86.44622421 C7.03703188 95.98035768 6.89365704 105.51355473 6.78125 115.046875 C6.7585712 117.05887705 6.73603027 119.07088065 6.71362305 121.08288574 C6.63228894 128.34885974 6.54812871 135.6148003 6.46356201 142.8807373 C6.42736819 145.99340634 6.39138047 149.10607769 6.35546875 152.21875 C6.34364311 153.23632448 6.33181747 154.25389896 6.31963348 155.30230904 C6.2620892 160.3268139 6.20908676 165.35129816 6.16564941 170.37594604 C6.14885742 172.30385347 6.13205263 174.23176078 6.11523438 176.15966797 C6.10728096 177.08890013 6.09932755 178.01813229 6.09113312 178.97552299 C6.04340515 184.03746978 5.96107024 189.09649409 5.83063507 194.15698242 C5.77724411 196.30105614 5.73509078 198.44501508 5.6973877 200.5894165 C5.6509974 203.09054202 5.58410052 205.59142161 5.49108887 208.09124756 C5.4044313 214.31406944 5.86870005 218.18960394 10.00793457 222.97943115 C11.69293524 224.61046541 11.69293524 224.61046541 14.59375 226.6484375 C17.22069537 229.21567956 17.3716684 229.57512101 17.44140625 233.02734375 C17.08877935 236.20098589 16.78023388 238.36354398 15.4375 241.1875 C14.05718257 244.53035407 13.64056681 246.50431466 15 250 C15.804375 250.928125 15.804375 250.928125 16.625 251.875 C18.23627065 254.36514555 18.43665701 256.04192849 17.93359375 258.9609375 C16.61894424 261.83226404 14.57025138 263.55834612 12.3125 265.75 C8.81265219 269.27093298 8.81265219 269.27093298 7.81640625 273.9453125 C8.34962087 276.74189269 9.06455568 279.31381585 10 282 C11.04999422 285.75897931 11.28509347 289.0799648 11 293 C9.8125 294.875 9.8125 294.875 8 296 C6.33941132 296.36240052 4.67278044 296.69884476 3 297 C3.03480469 297.79664063 3.06960938 298.59328125 3.10546875 299.4140625 C3.38727339 310.4447013 3.38727339 310.4447013 0 315 C-3.90162278 317.81357325 -7.35330882 318.6500816 -12.07421875 319.38671875 C-13.09005035 319.54736565 -13.09005035 319.54736565 -14.12640381 319.71125793 C-16.3115718 320.050752 -18.49886388 320.37118455 -20.6875 320.6875 C-21.4306546 320.79739258 -22.1738092 320.90728516 -22.93948364 321.02050781 C-51.96401201 325.27586432 -51.96401201 325.27586432 -63.95703125 320.75390625 C-69.04506833 318.8762941 -72.27684449 319.06965411 -77.49243164 320.62719727 C-78.12427872 320.81248489 -78.75612579 320.99777252 -79.40711975 321.18867493 C-81.49482501 321.80382609 -83.57731497 322.43500067 -85.66015625 323.06640625 C-87.12938215 323.50285126 -88.59890607 323.93829415 -90.06871033 324.37278748 C-93.94878368 325.52275087 -97.82463463 326.68635967 -101.69976807 327.85284424 C-105.56888183 329.01494767 -109.44182075 330.16414156 -113.31445312 331.31445312 C-124.00871743 334.49483666 -134.70048712 337.68375046 -145.37158203 340.94116211 C-146.29136337 341.22084335 -147.21114471 341.5005246 -148.15879822 341.78868103 C-149.76930214 342.27924488 -151.37878322 342.77318987 -152.98683167 343.27174377 C-161.61528705 345.8988808 -172.1808653 348.9150903 -181 346 C-184.38336224 343.86854107 -187.16513842 341.30841353 -190 338.5 C-190.7645752 337.7462207 -191.52915039 336.99244141 -192.31689453 336.21582031 C-196.54677373 331.666367 -198.92401971 328.27048238 -199.03125 321.97070312 C-198.8804502 319.827461 -198.61796322 317.73429126 -198.3046875 315.609375 C-197.95250221 311.43733389 -198.7232053 310.36764228 -201 307 C-201.8532027 302.51572532 -202.01228866 298.0208693 -199.93359375 293.87109375 C-195.74726577 288.58970451 -190.34748989 285.61674965 -183.77734375 284.40625 C-179.65648112 283.96305485 -175.63959777 283.85278391 -171.5 283.875 C-170.77941406 283.87113281 -170.05882812 283.86726563 -169.31640625 283.86328125 C-164.77838628 283.87148743 -160.47731061 284.25770903 -156 285 C-155.68428667 279.73811115 -156.10085653 276.44535331 -159 272 C-166.55685686 264.26321797 -175.6636699 263.54212716 -186.0625 263.3125 C-187.11888672 263.27833984 -188.17527344 263.24417969 -189.26367188 263.20898438 C-191.84234157 263.12730705 -194.42070562 263.05790057 -197 263 C-196.7834375 262.01773438 -196.7834375 262.01773438 -196.5625 261.015625 C-195.12092162 253.92786466 -194.77316473 247.22092278 -195 240 C-196.08269165 239.46258179 -196.08269165 239.46258179 -197.18725586 238.91430664 C-200.43836933 237.29910544 -203.6879506 235.6808454 -206.9375 234.0625 C-208.07380859 233.49853516 -209.21011719 232.93457031 -210.38085938 232.35351562 C-212.00024414 231.54624023 -212.00024414 231.54624023 -213.65234375 230.72265625 C-214.65257568 230.22515869 -215.65280762 229.72766113 -216.68334961 229.21508789 C-219 228 -219 228 -220 227 C-220.59891489 223.27247591 -220.89559877 219.50756181 -221.25 215.75 C-221.36601562 214.69941406 -221.48203125 213.64882813 -221.6015625 212.56640625 C-221.69695312 211.54933594 -221.79234375 210.53226563 -221.890625 209.484375 C-221.98375977 208.55334961 -222.07689453 207.62232422 -222.17285156 206.66308594 C-221.8270926 201.33605377 -218.31633464 198.09635449 -214.625 194.5625 C-212.08363965 192.08661754 -209.62962511 189.66565757 -207.4375 186.875 C-203.86208107 182.65783921 -199.7241892 178.9912235 -195.2578125 175.7265625 C-189.9959334 171.82596556 -188.54213927 167.31608517 -187.53125 161.1328125 C-186.83976264 154.95657314 -186.44283073 148.80150737 -189 143 C-190.52664243 141.18083434 -190.52664243 141.18083434 -192.25 139.5 C-193.76464844 137.88745117 -193.76464844 137.88745117 -195 136 C-193.96073111 128.3017119 -190.9932274 121.20646332 -188.1875 114 C-187.76146484 112.8759375 -187.33542969 111.751875 -186.89648438 110.59375 C-184.66763034 104.82098433 -182.33891515 99.42259888 -179.0090332 94.1953125 C-177.63190266 91.19914558 -177.36182064 88.25761226 -177 85 C-144.14618186 74.09820155 -144.14618186 74.09820155 -130.3125 70.375 C-129.47452881 70.14022949 -128.63655762 69.90545898 -127.77319336 69.66357422 C-119.99078908 67.64861776 -113.40380567 67.56025371 -105 67 C-105 77.56 -105 88.12 -105 99 C-91.77976784 98.36561703 -91.77976784 98.36561703 -78.7109375 96.40234375 C-75.31260157 95.89797977 -72.43175045 95.62428917 -69 96 C-66.453125 98.1953125 -66.453125 98.1953125 -64.25 101.125 C-63.51265625 102.07632813 -62.7753125 103.02765625 -62.015625 104.0078125 C-60.05717419 106.91512513 -58.48652976 109.82936375 -57 113 C-56.20324748 110.16179494 -55.84820041 107.56453204 -55.75390625 104.62109375 C-55.72176025 103.78739258 -55.68961426 102.95369141 -55.65649414 102.09472656 C-55.62547607 101.2178418 -55.59445801 100.34095703 -55.5625 99.4375 C-55.35161744 93.68540748 -55.01518876 88.34758875 -53.5625 82.75 C-52.92731131 79.79499175 -52.69603607 78.58421437 -54.1015625 75.8828125 C-55.16520854 74.53622614 -56.26399149 73.21671795 -57.39453125 71.92578125 C-63.308304 64.83213169 -62.76806961 54.70221452 -62.21142578 45.95751953 C-61.73005403 41.50066191 -60.20337396 37.85762045 -58 34 C-57.57589844 33.23429687 -57.15179688 32.46859375 -56.71484375 31.6796875 C-51.14931444 22.53299588 -42.63541423 15.59160534 -33 11 C-32.01 11 -31.02 11 -30 11 C-29.96559814 11.5669458 -29.93119629 12.1338916 -29.89575195 12.71801758 C-29.22315916 23.08220325 -28.30723145 33.00689746 -25.375 43 C-22.81276191 51.8414222 -20.85213618 61.17729195 -24.25 70.125 C-26 73 -26 73 -28.09057617 74.5625 C-31.0925414 78.39469804 -30.45264463 82.15069604 -30.30078125 86.875 C-30.28396805 87.88022705 -30.26715485 88.8854541 -30.24983215 89.92114258 C-30.18724406 93.28154143 -30.09404826 96.64034463 -30 100 C-29.94731249 102.40232004 -29.89574055 104.80466477 -29.84521484 107.20703125 C-29.70294817 113.51631189 -29.5163487 119.82336245 -29.31030273 126.13085938 C-29.22753113 128.73874071 -29.15116878 131.34683237 -29.08081055 133.95507812 C-28.97751104 137.78309671 -28.85611686 141.61015752 -28.73046875 145.4375 C-28.70220505 146.59789795 -28.67394135 147.7582959 -28.64482117 148.95385742 C-28.41924643 155.10916339 -27.73268506 159.49454159 -25 165 C-24.49169922 167.50585938 -24.49169922 167.50585938 -24.3046875 169.84375 C-24.22911621 170.74609375 -24.15354492 171.6484375 -24.07568359 172.578125 C-24.00945801 173.54234375 -23.94323242 174.5065625 -23.875 175.5 C-23.79717285 176.51578125 -23.7193457 177.5315625 -23.63916016 178.578125 C-22.656057 192.36217929 -22.33654845 206.18783256 -22 220 C-21.34 220 -20.68 220 -20 220 C-20.00490952 219.25690079 -20.00981903 218.51380157 -20.01487732 217.7481842 C-20.17548258 188.65640439 -19.66874368 159.57596716 -19.16577756 130.48939669 C-19.07229126 125.06035005 -18.98416198 119.63122562 -18.89716727 114.20207161 C-18.8015696 108.24911745 -18.7013201 102.29624774 -18.59924126 96.34340096 C-18.55689559 93.84250084 -18.51583229 91.34157865 -18.4761219 88.8406353 C-18.42044039 85.36429698 -18.35944466 81.88808995 -18.29711914 78.41186523 C-18.28201294 77.39941742 -18.26690674 76.3869696 -18.25134277 75.34384155 C-18.14800697 69.91655373 -17.82650865 64.59516137 -17.16062069 59.20629978 C-16.8965339 55.57878068 -17.54631119 52.22028914 -18.3125 48.6875 C-18.44333984 48.01138672 -18.57417969 47.33527344 -18.70898438 46.63867188 C-19.29793539 43.72236852 -19.97290019 41.06190357 -21.16796875 38.33203125 C-22.23789481 35.3332244 -22.04974647 34.00381999 -21 31 C-19.57945336 28.80460973 -18.14254684 26.75992112 -16.5625 24.6875 C-12.1015342 18.66197069 -8.05594938 12.45655065 -4.13696289 6.06713867 C-1.07391188 1.07391188 -1.07391188 1.07391188 0 0 Z M-4 22 C-5.61791038 23.7772956 -7.12609774 25.56387217 -8.625 27.4375 C-9.88183594 28.95150391 -9.88183594 28.95150391 -11.1640625 30.49609375 C-13.62124796 35.18565834 -13.05523902 37.96035847 -12 43 C-11.75854248 44.3135144 -11.75854248 44.3135144 -11.51220703 45.65356445 C-10.97917951 48.42940021 -10.37380285 51.18075633 -9.75 53.9375 C-9.46189453 55.35385742 -9.46189453 55.35385742 -9.16796875 56.79882812 C-8.59525247 59.31481759 -8.02955623 61.63353131 -7 64 C-4.50767727 65.75134124 -4.50767727 65.75134124 -2 66 C1.05912637 61.4440534 2.74417343 56.57182858 4.5625 51.4375 C5.16582593 49.74793121 5.7712238 48.05910054 6.37890625 46.37109375 C6.6426001 45.62786865 6.90629395 44.88464355 7.17797852 44.11889648 C8 42 8 42 9.10913086 39.87524414 C10.39492906 37.16869002 9.93992954 35.81978863 9 33 C7.7295036 30.95950578 6.40568804 28.94982535 5 27 C0.65806881 33.51289679 0.72658019 39.56598165 2 47 C-0.31 47 -2.62 47 -5 47 C-4.125 40.25 -4.125 40.25 -3 38 C-2.92818179 35.28239892 -2.90700494 32.59140612 -2.9375 29.875 C-2.94201172 29.12089844 -2.94652344 28.36679688 -2.95117188 27.58984375 C-2.96296501 25.72652873 -2.98090058 23.86325445 -3 22 C-3.33 22 -3.66 22 -4 22 Z M-44.609375 30.51171875 C-52.03337305 38.2389847 -56.63058308 47.18119602 -56.453125 57.9765625 C-55.53430334 64.10732085 -52.67247483 70.64163107 -47.97265625 74.7890625 C-45.21843769 76.47977092 -43.23598869 76.87309848 -40 77 C-35.58552004 75.7061007 -33.49573789 74.62619523 -30.625 71 C-26.71706012 63.78534175 -27.01170223 55.51970974 -29.3125 47.75 C-30.30936354 44.79702686 -31.42527118 41.90109393 -32.5625 39 C-34.32841387 34.46438964 -35.16717011 29.78142335 -36 25 C-39.6588096 25 -42.01380083 28.15476995 -44.609375 30.51171875 Z M-9 73 C-11.11139394 121.9022432 -11.11139394 121.9022432 -13.05865479 170.81121826 C-13.14324915 173.02794315 -13.22910525 175.24462033 -13.31634521 177.46124268 C-13.58468021 184.30661177 -13.81795704 191.15178188 -14 198 C-14.02692932 198.94957581 -14.05385864 199.89915161 -14.081604 200.87750244 C-14.15230319 203.64361564 -14.19948818 206.40905588 -14.23828125 209.17578125 C-14.26037155 209.99652634 -14.28246185 210.81727142 -14.30522156 211.66288757 C-14.33802388 216.31023121 -13.9249666 219.16239382 -11 223 C-7.27904594 222.68106108 -4.65383401 221.66110008 -2.05240822 218.91231728 C0.45828564 214.35016815 -0.36252066 208.54239376 -0.43237305 203.48901367 C-0.43378414 202.09913179 -0.43299034 200.70924618 -0.43016052 199.31936646 C-0.42872729 195.552926 -0.45810077 191.78728347 -0.49303031 188.02102828 C-0.52430998 184.08260769 -0.5272258 180.14416834 -0.53315735 176.2056427 C-0.54869114 168.75057188 -0.58971304 161.29586815 -0.6399048 153.84095889 C-0.69581294 145.35254368 -0.72328842 136.86411083 -0.74838197 128.3755573 C-0.80062953 110.91682595 -0.88856247 93.4584518 -1 76 C-4.80427492 73.7986134 -4.80427492 73.7986134 -9 73 Z M-46.75 82.25 C-49.48872143 86.08421001 -49.12174621 90.30910637 -49.11352539 94.87988281 C-49.11367142 95.56321686 -49.11381744 96.2465509 -49.1139679 96.95059204 C-49.11327315 99.20146904 -49.10550132 101.45226252 -49.09765625 103.703125 C-49.09579051 105.2668249 -49.09436734 106.83052538 -49.09336853 108.39422607 C-49.08955562 112.50416689 -49.0797358 116.61407221 -49.06866455 120.72399902 C-49.05842407 124.92016113 -49.05386526 129.11632899 -49.04882812 133.3125 C-49.03811242 141.54168293 -49.02105073 149.77083705 -49 158 C-44.87502491 159.3749917 -41.01916277 159.07547487 -36.7019043 159.02905273 C-35.81027588 159.01946533 -34.91864746 159.00987793 -34 159 C-33.75232105 144.67655589 -34.40045897 130.40510351 -35.11694336 116.10205078 C-35.28164697 112.75246055 -35.43387552 109.40278129 -35.58015156 106.05237007 C-35.72473717 102.82857688 -35.88910628 99.60578691 -36.05078125 96.3828125 C-36.10091873 95.18294708 -36.15105621 93.98308167 -36.20271301 92.74685669 C-36.26254868 91.64075043 -36.32238434 90.53464417 -36.3840332 89.39501953 C-36.43066605 88.42259308 -36.47729889 87.45016663 -36.52534485 86.44827271 C-37.07085026 83.63455412 -37.70965635 82.67943988 -40 81 C-42.89986477 80.56502028 -44.33943503 80.52816788 -46.75 82.25 Z M-172.125 101.30859375 C-172.74375 102.34113281 -173.3625 103.37367188 -174 104.4375 C-174.67546875 105.53835938 -175.3509375 106.63921875 -176.046875 107.7734375 C-176.69140625 108.83820313 -177.3359375 109.90296875 -178 111 C-179.07641199 112.52573994 -180.15896911 114.04717933 -181.25 115.5625 C-184.65205709 120.74524813 -188.55442682 126.9364571 -187.6796875 133.34765625 C-186.91166025 135.63961125 -185.99945465 137.79965023 -185 140 C-180.59349234 151.07476262 -180.06719088 163.75268258 -184.8125 174.80859375 C-187.3515829 179.49420397 -191.17869668 182.13756858 -195.3125 185.3125 C-203.03781059 191.26982906 -213.74606518 199.71618016 -215.29638672 209.95800781 C-215.58448398 214.32765375 -215.37096379 218.63675919 -215 223 C-211.83688775 224.30049101 -208.66892214 225.58873806 -205.5 226.875 C-204.613125 227.23980469 -203.72625 227.60460937 -202.8125 227.98046875 C-194.86864083 231.19305885 -187.77124399 233.1575745 -179.125 233.5 C-173.65808969 233.75857438 -168.43948928 234.30158076 -163.11328125 235.59765625 C-160.70539762 236.05608881 -158.44544673 236.06424116 -156 236 C-154.23117657 232.46235314 -155.1223107 228.75181272 -156 225 C-158.57154225 219.35882398 -163.23542862 216.04932553 -168.20703125 212.578125 C-168.79871094 212.05734375 -169.39039063 211.5365625 -170 211 C-170 210.01 -170 209.02 -170 208 C-164.1693411 208.12147206 -161.19748323 209.82457588 -156.95703125 213.78125 C-154.84375626 216.17713861 -153.30664295 218.62361628 -151.6875 221.375 C-148.47598662 226.73727633 -144.68710708 229.96776609 -139.78125 233.76171875 C-131.60067845 240.34524051 -124.55426529 248.57980551 -122.59765625 259.1796875 C-122.5 261.0625 -122.5 261.0625 -123 264 C-123.99 264.66 -124.98 265.32 -126 266 C-126.15855469 265.45472656 -126.31710938 264.90945313 -126.48046875 264.34765625 C-129.67061236 254.0369711 -134.44803031 245.39634125 -143.21875 238.91796875 C-145.2586223 237.69460225 -145.2586223 237.69460225 -149 238 C-149.2475 239.11375 -149.495 240.2275 -149.75 241.375 C-151 245 -151 245 -152.80078125 246.36328125 C-155 247 -155 247 -157.12109375 246.20703125 C-157.88550781 245.74683594 -158.64992187 245.28664063 -159.4375 244.8125 C-166.26332542 241.12695817 -174.31669083 238.39020172 -182.1875 239.0625 C-185.00484274 239.72920997 -185.00484274 239.72920997 -186.3125 241.5625 C-187.28928701 245.02565395 -188.18542118 248.4952575 -189 252 C-189.20496094 252.721875 -189.40992188 253.44375 -189.62109375 254.1875 C-189.74613281 254.785625 -189.87117188 255.38375 -190 256 C-188.16933559 257.83066441 -185.15299305 257.26182983 -182.6875 257.375 C-172.21009226 258.08840073 -161.88534645 259.46868952 -154 267 C-147.47441272 274.90423247 -148.49677974 284.36053644 -149 294 C-150.27230469 293.45859375 -150.27230469 293.45859375 -151.5703125 292.90625 C-164.13363262 287.93614534 -176.07128929 287.22725165 -189 292 C-191.91332928 293.88509542 -193.47091534 294.94183068 -195 298 C-195.4167552 300.95788569 -195.4167552 300.95788569 -195 304 C-192.63977773 306.47908238 -191.4360053 306.9892693 -187.984375 307.07421875 C-186.38335937 306.88279297 -186.38335937 306.88279297 -184.75 306.6875 C-183.67234375 306.56761719 -182.5946875 306.44773437 -181.484375 306.32421875 C-180.25460938 306.16373047 -180.25460938 306.16373047 -179 306 C-181.90007134 309.37717985 -184.84596153 309.97978622 -189.0390625 311.05859375 C-191.1537095 311.80604002 -191.1537095 311.80604002 -191.75 313.80078125 C-191.8325 314.52652344 -191.915 315.25226563 -192 316 C-192.09023437 316.75796875 -192.18046875 317.5159375 -192.2734375 318.296875 C-192.54453071 324.84481869 -191.40858173 329.0746228 -187 334 C-182.63918236 337.89419318 -178.88621908 340.76863747 -172.90869141 341.24780273 C-168.05592865 340.94014788 -164.02511087 339.63850697 -159.4609375 338.03515625 C-158.54815033 337.72232193 -157.63536316 337.40948761 -156.69491577 337.08717346 C-146.24031756 333.46243816 -135.92915474 329.46571517 -125.625 325.4375 C-123.72803569 324.70073116 -121.8309005 323.96440216 -119.93359375 323.22851562 C-114.6177441 321.16413654 -109.30744473 319.08588327 -104 317 C-103.21395386 316.69153137 -102.42790771 316.38306274 -101.61804199 316.06524658 C-99.48102147 315.22517367 -97.34562231 314.38114395 -95.2109375 313.53515625 C-94.0254834 313.06601807 -92.8400293 312.59687988 -91.61865234 312.11352539 C-89.11844761 311.24311916 -89.11844761 311.24311916 -88 310 C-87.92438108 307.92444966 -87.91693313 305.84635682 -87.9375 303.76953125 C-87.94910156 301.85237305 -87.94910156 301.85237305 -87.9609375 299.89648438 C-87.97952649 297.86025585 -87.999883 295.82405062 -88.02050781 293.7878418 C-88.03872558 291.82343955 -88.05067189 289.85898236 -88.0625 287.89453125 C-88.07410156 286.71737549 -88.08570313 285.54021973 -88.09765625 284.32739258 C-88.00346597 281.11809414 -87.5720961 278.1539548 -87 275 C-86.75833984 270.24735026 -87.09749804 266.1100279 -88 261.4375 C-90.03217908 250.69810107 -90.03217908 250.69810107 -87.0625 245.8125 C-81.89365432 240.36701188 -75.0267965 238.6179477 -67.75 238.17578125 C-65.97275517 238.18372038 -65.97275517 238.18372038 -65 237 C-65.09089849 234.80025658 -65.2617697 232.61510111 -65.453125 230.421875 C-65 228 -65 228 -62.51147461 226.07958984 C-58.7218692 221.432746 -59.30916598 217.13146359 -59.36328125 211.3046875 C-59.35290329 210.16146027 -59.34252533 209.01823303 -59.33183289 207.84036255 C-59.30214246 204.18493701 -59.30552013 200.53052422 -59.3125 196.875 C-59.30356993 193.24118411 -59.28743739 189.60763886 -59.2610321 185.97390747 C-59.24627516 183.71555061 -59.24221846 181.45708869 -59.25080872 179.19869995 C-59.22340703 171.53074014 -58.38290713 164.28563605 -56.43984985 156.85903931 C-55.33092947 152.17215227 -56.03226025 147.02822695 -56.1875 142.25 C-56.20619141 141.095 -56.22488281 139.94 -56.24414062 138.75 C-56.47118364 131.7714147 -57.35051961 126.92730097 -61 121 C-61.67655916 119.68603629 -62.34321621 118.36692796 -63 117.04296875 C-63.66560368 115.75726164 -64.33226741 114.47210275 -65 113.1875 C-65.33 112.53330078 -65.66 111.87910156 -66 111.20507812 C-67.8986522 107.57464745 -69.34967617 104.93083118 -73 103 C-75.67196174 103.10225011 -78.03255134 103.35358293 -80.6484375 103.79296875 C-89.67616822 105.07708195 -98.51696051 105.35499169 -107.625 105.3125 C-108.4028183 105.31134186 -109.1806366 105.31018372 -109.98202515 105.30899048 C-127.30173676 105.2583008 -144.04042836 103.36082829 -160.94140625 99.55078125 C-167.15563744 98.12392771 -167.15563744 98.12392771 -172.125 101.30859375 Z M-50 166 C-51.2749464 168.5498928 -51.21011487 170.48172206 -51.31640625 173.3359375 C-51.35838135 174.4506543 -51.40035645 175.56537109 -51.44360352 176.71386719 C-51.48283936 177.92204102 -51.5220752 179.13021484 -51.5625 180.375 C-51.6049585 181.60895508 -51.64741699 182.84291016 -51.69116211 184.11425781 C-52.10886008 197.40999608 -52.0992871 210.69858344 -52 224 C-48.41820559 225.51613298 -46.07993781 226.24639048 -42.1875 225.8125 C-41.39730469 225.73644531 -40.60710937 225.66039062 -39.79296875 225.58203125 C-36.0049701 224.79264412 -32.59958195 223.41917631 -29 222 C-27.84675799 194.12245778 -27.84675799 194.12245778 -33 167 C-38.3760418 164.37754058 -44.33902101 164.113007 -50 166 Z M-15.61328125 226.8046875 C-16.7046489 226.88872833 -17.79601654 226.97276917 -18.92045593 227.05935669 C-21.21411556 227.23752992 -23.50763758 227.41748259 -25.80102539 227.59912109 C-29.31791932 227.87542577 -32.83563058 228.1389989 -36.35351562 228.40234375 C-38.58599902 228.577342 -40.81842327 228.75309671 -43.05078125 228.9296875 C-44.10388992 229.00686005 -45.1569986 229.08403259 -46.24201965 229.1635437 C-47.21700912 229.24347565 -48.1919986 229.32340759 -49.1965332 229.40576172 C-50.48271294 229.50568924 -50.48271294 229.50568924 -51.7948761 229.6076355 C-54.28103387 229.8982052 -54.28103387 229.8982052 -57 232 C-57.42412922 236.49576978 -57.12416715 239.98768427 -55 244 C-52.59605157 245.20197422 -51.23153179 245.07574888 -48.55371094 244.98999023 C-47.63225281 244.96343857 -46.71079468 244.9368869 -45.76141357 244.90953064 C-44.26302948 244.85956688 -44.26302948 244.85956688 -42.734375 244.80859375 C-40.62631053 244.75034444 -38.5182373 244.69241175 -36.41015625 244.63476562 C-33.08106426 244.53783275 -29.75214738 244.43756855 -26.42333984 244.33129883 C-23.214712 244.23095472 -20.00593157 244.14395502 -16.796875 244.05859375 C-15.80604919 244.02326035 -14.81522339 243.98792694 -13.79437256 243.95152283 C-8.74291288 243.82497764 -4.7322482 243.97236342 0 246 C2.05655598 246.86885131 2.05655598 246.86885131 4 247 C5.96666344 245.89321443 5.96666344 245.89321443 7.6875 244.1875 C8.59048828 243.37345703 8.59048828 243.37345703 9.51171875 242.54296875 C11.49360824 240.48825392 11.97429115 239.12283117 12.5625 236.3125 C11.80570203 231.85580087 9.77835469 230.29682513 6.53125 227.3203125 C0.41914375 224.1322077 -8.91589095 226.28313879 -15.61328125 226.8046875 Z M-80.5625 247.8125 C-82.56161565 250.85463251 -82.80687392 253.39497988 -83 257 C-82.84144531 257.59941406 -82.68289062 258.19882812 -82.51953125 258.81640625 C-81.82812604 261.72238754 -81.86809981 264.45316883 -81.875 267.4375 C-81.87242187 268.54996094 -81.86984375 269.66242188 -81.8671875 270.80859375 C-82 274 -82 274 -82.4921875 276.4375 C-84.54001845 286.77117 -83.82514223 299.68882389 -78.8984375 309.10546875 C-77.6238759 311.06335178 -77.6238759 311.06335178 -75 313 C-71.13702641 313.00422567 -71.13702641 313.00422567 -68 311 C-67.89827593 307.8766944 -67.80127789 304.7597215 -67.83398438 301.63476562 C-67.76953125 299.63671875 -67.76953125 299.63671875 -67 296 C-63.94921875 293.51953125 -63.94921875 293.51953125 -61 292 C-61.16242188 291.20207031 -61.32484375 290.40414062 -61.4921875 289.58203125 C-62.10605688 285.25189108 -62.14570995 281.0538471 -62.125 276.6875 C-62.13080078 275.4819043 -62.13080078 275.4819043 -62.13671875 274.25195312 C-62.1290472 269.48408466 -61.80662432 264.86201089 -61.22705078 260.1315918 C-60.88698611 256.93900617 -60.8679717 253.77092061 -60.875 250.5625 C-60.87242187 249.36753906 -60.86984375 248.17257812 -60.8671875 246.94140625 C-60.79734745 244.06662703 -60.79734745 244.06662703 -62 242 C-68.80330722 241.2838624 -75.07570787 243.93159825 -80.5625 247.8125 Z M-19.33496094 248.20117188 C-24.14189731 248.43597645 -28.94574586 248.71627671 -33.75 249 C-35.42966953 249.09666696 -37.10935696 249.19302333 -38.7890625 249.2890625 C-42.85958997 249.52246689 -46.92985312 249.76005406 -51 250 C-51.70121643 252.39256249 -52.38614901 254.78790489 -53.0625 257.1875 C-53.26166016 257.86103516 -53.46082031 258.53457031 -53.66601562 259.22851562 C-54.76309811 263.17416316 -55.21781251 266.05551294 -54 270 C-50.83727341 270.99248553 -48.53318232 270.9624652 -45.2734375 270.44140625 C-44.33636963 270.30331543 -43.39930176 270.16522461 -42.43383789 270.02294922 C-41.42442139 269.87100098 -40.41500488 269.71905273 -39.375 269.5625 C-32.51624295 268.56875215 -25.88722758 267.88742835 -18.94921875 268.11328125 C-17.79824707 268.1505835 -16.64727539 268.18788574 -15.46142578 268.22631836 C-13.2454099 268.32325513 -11.03064904 268.45898064 -8.81982422 268.63891602 C-4.1665863 268.84102339 -1.20657935 268.8506945 2.68017578 266.11035156 C6.16721116 262.71579389 9.01207127 259.47011864 11 255 C8.93069442 253.80004765 6.85057805 252.64296159 4.75 251.5 C4.1828125 251.16613281 3.615625 250.83226562 3.03125 250.48828125 C-4.11266618 246.68336937 -11.50115523 247.83804078 -19.33496094 248.20117188 Z M-33.76708984 272.07910156 C-36.2209279 272.15964633 -38.67255255 272.26002939 -41.125 272.375 C-41.83970459 272.40561523 -42.55440918 272.43623047 -43.29077148 272.46777344 C-47.48357787 272.71188727 -51.1223299 273.36483791 -55 275 C-57.48524417 278.84083189 -57.74960356 283.54267988 -57 288 C-56.02306028 290.01136491 -55.02478447 292.0125854 -54 294 C-46.70438547 294.10155026 -39.40895371 294.17152891 -32.11279297 294.21972656 C-29.63160389 294.23982241 -27.15046205 294.26710384 -24.66943359 294.30175781 C-21.09981618 294.35036294 -17.53082584 294.37298972 -13.9609375 294.390625 C-12.85446869 294.41127014 -11.74799988 294.43191528 -10.60800171 294.45318604 C-4.5151046 294.45495498 -0.48970786 294.35243434 4 290 C4.40748733 286.89290907 4.44131422 284.99423319 4 282 C3.855625 280.741875 3.71125 279.48375 3.5625 278.1875 C2.37232177 274.99356458 2.37232177 274.99356458 0.28076172 274.04125977 C-6.04707642 271.92126976 -11.7972861 271.60744174 -18.4375 271.75 C-19.48212402 271.76240723 -20.52674805 271.77481445 -21.60302734 271.78759766 C-25.6589589 271.84891041 -29.71242408 271.96319264 -33.76708984 272.07910156 Z M-24.6171875 296.48828125 C-26.08564621 296.58317085 -26.08564621 296.58317085 -27.58377075 296.67997742 C-29.6361883 296.81485256 -31.68834656 296.95372785 -33.74023438 297.09643555 C-36.88602073 297.31325961 -40.03261186 297.51186362 -43.1796875 297.70898438 C-45.1797606 297.8426607 -47.17976374 297.97738891 -49.1796875 298.11328125 C-50.12029022 298.17171707 -51.06089294 298.23015289 -52.02999878 298.2903595 C-53.33748581 298.38506783 -53.33748581 298.38506783 -54.67138672 298.48168945 C-55.43699921 298.53355911 -56.20261169 298.58542877 -56.99142456 298.63887024 C-59.3084363 298.91766734 -59.3084363 298.91766734 -62 301 C-61.67 305.95 -61.34 310.9 -61 316 C-48.61945172 318.021314 -36.39694773 316.99183049 -24 315.6875 C-22.83041748 315.56987305 -21.66083496 315.45224609 -20.45581055 315.33105469 C-13.63386306 314.56340767 -7.85078526 313.69554968 -2.125 309.6875 C-0.36234595 307.04351892 0 305.17468766 0 302 C-1.91612837 299.12580745 -3.4392099 297.36915301 -6.90066528 296.55046082 C-12.87352917 295.94031024 -18.63375436 296.07255684 -24.6171875 296.48828125 Z " fill="#000000" transform="translate(281,163)"/>
<path d="M0 0 C11.55 0 23.1 0 35 0 C35 50.16 35 100.32 35 152 C24.44 152 13.88 152 3 152 C2.505 149.525 2.505 149.525 2 147 C1.05125 147.598125 0.1025 148.19625 -0.875 148.8125 C-9.13885971 153.47822969 -17.44065619 154.53100151 -26.8125 154.4375 C-27.86767822 154.43065186 -28.92285645 154.42380371 -30.01000977 154.41674805 C-37.98385096 154.25276317 -44.67382501 153.33406766 -52 150 C-52.79921875 149.649375 -53.5984375 149.29875 -54.421875 148.9375 C-67.06275517 142.66064916 -75.64485927 132.01062436 -80.921875 119.22265625 C-86.43987669 102.72862946 -85.51635765 84.94415838 -78.71484375 68.984375 C-71.73683302 55.06722825 -60.65160611 46.25061774 -46.2890625 40.7265625 C-32.02487522 36.19902183 -13.35229169 37.32385415 0 44 C0 29.48 0 14.96 0 0 Z M-43.3125 77.375 C-49.025025 84.63984157 -50.82856234 91.90060996 -50 101 C-48.2333246 108.885088 -44.82786585 115.39516024 -38 120 C-31.40895079 123.92658251 -24.51296189 123.75651352 -17 123 C-10.28240572 121.2883053 -5.86550616 116.56305648 -2 111 C2.02599576 104.14724127 1.90074795 96.16915717 0.56640625 88.51171875 C-1.44621715 81.27377496 -6.12383537 75.45905647 -12.5 71.5 C-23.12780277 66.85033629 -35.59488949 68.92683898 -43.3125 77.375 Z " fill="#000000" transform="translate(1572,90)"/>
<path d="M0 0 C0.79792969 0.350625 1.59585937 0.70125 2.41796875 1.0625 C15.12407931 7.36088183 23.05947144 17.92976034 28.125 30.875 C33.45474431 47.68419358 32.28590141 66.3277385 24.875 82.25 C17.53736249 95.95818054 7.0605056 104.31087439 -7.58984375 109.2734375 C-21.84272 113.57009063 -39.64601388 112.67699306 -53 106 C-53 118.87 -53 131.74 -53 145 C-64.55 145 -76.1 145 -88 145 C-88 96.49 -88 47.98 -88 -2 C-77.11 -2 -66.22 -2 -55 -2 C-54.505 -0.02 -54.505 -0.02 -54 2 C-53.18015625 1.65066406 -52.3603125 1.30132813 -51.515625 0.94140625 C-50.43796875 0.48636719 -49.3603125 0.03132812 -48.25 -0.4375 C-47.18265625 -0.88996094 -46.1153125 -1.34242188 -45.015625 -1.80859375 C-31.87254727 -7.00113094 -12.74797198 -5.88070331 0 0 Z M-48.3125 34.25 C-54.63849493 42.45483267 -54.97609575 50.90283175 -54 61 C-51.77440786 69.55536764 -46.42738796 74.47898124 -39 79 C-32.44753454 81.18415515 -22.82529409 81.3455619 -16.4375 78.4375 C-10.22848946 74.60411089 -6.18588268 68.90278741 -4 62 C-2.33545205 52.87272876 -2.76111161 45.23232985 -7.6875 37.25 C-11.20921945 32.31268743 -15.16322396 28.94559201 -21 27 C-31.70511109 26.27362428 -40.53478152 26.02030757 -48.3125 34.25 Z " fill="#000000" transform="translate(1218,514)"/>
<path d="M0 0 C0.79792969 0.350625 1.59585937 0.70125 2.41796875 1.0625 C15.12407931 7.36088183 23.05947144 17.92976034 28.125 30.875 C33.45474431 47.68419358 32.28590141 66.3277385 24.875 82.25 C17.53736249 95.95818054 7.0605056 104.31087439 -7.58984375 109.2734375 C-21.84272 113.57009063 -39.64601388 112.67699306 -53 106 C-53 118.87 -53 131.74 -53 145 C-64.55 145 -76.1 145 -88 145 C-88 96.49 -88 47.98 -88 -2 C-77.11 -2 -66.22 -2 -55 -2 C-54.505 -0.02 -54.505 -0.02 -54 2 C-53.18015625 1.65066406 -52.3603125 1.30132813 -51.515625 0.94140625 C-50.43796875 0.48636719 -49.3603125 0.03132812 -48.25 -0.4375 C-47.18265625 -0.88996094 -46.1153125 -1.34242188 -45.015625 -1.80859375 C-31.87254727 -7.00113094 -12.74797198 -5.88070331 0 0 Z M-48.3125 34.25 C-54.63849493 42.45483267 -54.97609575 50.90283175 -54 61 C-51.77440786 69.55536764 -46.42738796 74.47898124 -39 79 C-32.44753454 81.18415515 -22.82529409 81.3455619 -16.4375 78.4375 C-10.22848946 74.60411089 -6.18588268 68.90278741 -4 62 C-2.33545205 52.87272876 -2.76111161 45.23232985 -7.6875 37.25 C-11.20921945 32.31268743 -15.16322396 28.94559201 -21 27 C-31.70511109 26.27362428 -40.53478152 26.02030757 -48.3125 34.25 Z " fill="#000000" transform="translate(1090,514)"/>
<path d="M0 0 C1.60279192 0.00015914 3.20558896 0.00585476 4.80834961 0.01586914 C5.65038437 0.01728409 6.49241913 0.01869904 7.35997009 0.02015686 C10.06024671 0.02577276 12.76044163 0.03832791 15.46069336 0.05102539 C17.28686404 0.05603834 19.11303602 0.06060161 20.93920898 0.06469727 C25.42556878 0.07574735 29.9118672 0.0930226 34.39819336 0.11352539 C39.03951645 10.66185665 42.88635419 21.49946065 46.81008911 32.32888794 C48.90671741 38.11380142 51.0134014 43.89504633 53.12084961 49.67602539 C53.55491623 50.86688248 53.98898285 52.05773956 54.436203 53.28468323 C59.05374099 65.93649957 63.75049668 78.5584692 68.46069336 91.17602539 C69.26074971 93.32055383 70.06079865 95.46508504 70.86083984 97.60961914 C73.6362411 105.04693905 76.41366908 112.48349921 79.19604492 119.91821289 C80.22200587 122.65971447 81.24656762 125.40172777 82.26904297 128.14453125 C83.1134545 130.40939548 83.96039717 132.67331858 84.81054688 134.93603516 C85.1630249 135.882771 85.51550293 136.82950684 85.87866211 137.80493164 C86.17667725 138.6010083 86.47469238 139.39708496 86.78173828 140.21728516 C87.39819336 142.11352539 87.39819336 142.11352539 87.39819336 144.11352539 C74.85819336 144.11352539 62.31819336 144.11352539 49.39819336 144.11352539 C45.01665298 133.59782847 41.16154705 122.8659645 37.39819336 112.11352539 C22.87819336 112.11352539 8.35819336 112.11352539 -6.60180664 112.11352539 C-10.18000684 122.26953011 -10.18000684 122.26953011 -13.75195312 132.42773438 C-14.20037478 133.69677635 -14.64900916 134.96574319 -15.09790039 136.23461914 C-15.33029419 136.89884888 -15.56268799 137.56307861 -15.80212402 138.24743652 C-17.48773484 142.99945359 -17.48773484 142.99945359 -18.60180664 144.11352539 C-21.19539986 144.20204068 -23.76220355 144.22878484 -26.35571289 144.21118164 C-27.13115952 144.20976669 -27.90660614 144.20835175 -28.70555115 144.20689392 C-31.19184158 144.20127884 -33.67804324 144.18872385 -36.16430664 144.17602539 C-37.84594597 144.17101233 -39.5275867 144.16644909 -41.20922852 144.16235352 C-45.3401223 144.15130452 -49.4709494 144.13402984 -53.60180664 144.11352539 C-51.71239834 136.8715786 -49.56217382 129.78711643 -47.08227539 122.72680664 C-46.74737595 121.76386185 -46.4124765 120.80091705 -46.06742859 119.80879211 C-44.97825837 116.67995746 -43.88385203 113.55298327 -42.78930664 110.42602539 C-42.02158816 108.22414538 -41.25417688 106.02215823 -40.48706055 103.82006836 C-38.55665156 98.28182083 -36.62178479 92.74514464 -34.68487549 87.20916748 C-33.68186664 84.34235397 -32.67951979 81.47531022 -31.67749023 78.6081543 C-29.38802027 72.05789606 -27.09791068 65.50786743 -24.80102539 58.96020508 C-21.66354629 50.01519951 -18.54085219 41.06525665 -15.43383789 32.10961914 C-14.39160182 29.10889817 -13.3491719 26.10824461 -12.30670166 23.10760498 C-11.63195292 21.16334576 -10.95823575 19.21872821 -10.2855835 17.27374268 C-9.35577431 14.58533201 -8.42251061 11.8981438 -7.48852539 9.21118164 C-7.21007278 8.40289413 -6.93162018 7.59460663 -6.64472961 6.76182556 C-4.33540898 0.13664781 -4.33540898 0.13664781 0 0 Z M14.39819336 47.11352539 C12.82770788 51.63284796 11.26123099 56.15353198 9.69848633 60.67553711 C9.16606401 62.2143318 8.6325397 63.75274566 8.09790039 65.29077148 C7.33052592 67.49893068 6.56709829 69.70841993 5.80444336 71.91821289 C5.56383179 72.60785126 5.32322021 73.29748962 5.07531738 74.00802612 C3.82232355 77.48026424 3.82232355 77.48026424 3.39819336 81.11352539 C11.31819336 81.11352539 19.23819336 81.11352539 27.39819336 81.11352539 C25.87511776 76.42968587 24.34768779 71.74778304 22.80834961 67.06933594 C22.28578957 65.47647024 21.76592221 63.8827186 21.2487793 62.28808594 C20.50612717 59.99966459 19.75393421 57.71457622 18.99975586 55.42993164 C18.65432236 54.35492149 18.65432236 54.35492149 18.3019104 53.25819397 C17.72397544 51.52339734 17.06780211 49.81504009 16.39819336 48.11352539 C15.73819336 47.78352539 15.07819336 47.45352539 14.39819336 47.11352539 Z " fill="#000000" transform="translate(694.601806640625,288.886474609375)"/>
<path d="M0 0 C11.55 0 23.1 0 35 0 C35.33 14.52 35.66 29.04 36 44 C38.64 42.68 41.28 41.36 44 40 C52.23032645 37.25655785 64.72117476 37.59703512 72.8125 40.625 C75.03515625 41.7578125 75.03515625 41.7578125 77 43 C77.63808594 43.38929688 78.27617188 43.77859375 78.93359375 44.1796875 C86.42612995 49.6258751 89.88824588 58.92543766 91.58580017 67.73876953 C92.50966661 75.01289467 92.24013365 82.37536035 92.1953125 89.6953125 C92.19157617 91.49705853 92.18873213 93.29880662 92.18673706 95.10055542 C92.17914942 99.8121515 92.15954347 104.52362167 92.1373291 109.23516846 C92.11314103 114.90463662 92.10406648 120.5741472 92.09242249 126.24365234 C92.07311568 134.82918878 92.03475931 143.41444965 92 152 C80.45 152 68.9 152 57 152 C56.96261719 146.64394531 56.92523437 141.28789063 56.88671875 135.76953125 C56.85643907 132.3743169 56.82529129 128.97915499 56.79101562 125.58398438 C56.73670675 120.19623461 56.68559619 114.80858856 56.65356445 109.4206543 C56.62753542 105.07626029 56.58713597 100.73221488 56.53681374 96.38803673 C56.52014229 94.73151679 56.50862973 93.07493656 56.50238609 91.4183445 C56.49274783 89.09598972 56.46469323 86.77452727 56.43237305 84.45239258 C56.43380814 83.76906357 56.43524323 83.08573456 56.4367218 82.38169861 C56.35277501 78.11052622 55.59679716 75.40729047 53 72 C49.31123973 70.15561987 45.02669687 70.51211266 41 71 C38.42362529 72.88515223 37.40332572 74.19334857 36 77 C35.87808779 79.37924562 35.81441706 81.73123317 35.79467773 84.11181641 C35.78477814 84.84362625 35.77487854 85.5754361 35.76467896 86.329422 C35.73303801 88.75343568 35.70829634 91.17746898 35.68359375 93.6015625 C35.66302646 95.28022782 35.64203005 96.95888793 35.62062073 98.63754272 C35.56537682 103.05981231 35.51597779 107.48212881 35.46777344 111.90447998 C35.40875245 117.20839582 35.34251174 122.51222575 35.27747345 127.81607056 C35.17943475 135.87732799 35.09059874 143.93864004 35 152 C23.45 152 11.9 152 0 152 C0 101.84 0 51.68 0 0 Z " fill="#000000" transform="translate(752,471)"/>
<path d="M0 0 C11.55 0 23.1 0 35 0 C35.33 14.52 35.66 29.04 36 44 C38.64 42.68 41.28 41.36 44 40 C52.23032645 37.25655785 64.72117476 37.59703512 72.8125 40.625 C75.03515625 41.7578125 75.03515625 41.7578125 77 43 C77.63808594 43.38929688 78.27617188 43.77859375 78.93359375 44.1796875 C86.42612995 49.6258751 89.88824588 58.92543766 91.58580017 67.73876953 C92.50966661 75.01289467 92.24013365 82.37536035 92.1953125 89.6953125 C92.19157617 91.49705853 92.18873213 93.29880662 92.18673706 95.10055542 C92.17914942 99.8121515 92.15954347 104.52362167 92.1373291 109.23516846 C92.11314103 114.90463662 92.10406648 120.5741472 92.09242249 126.24365234 C92.07311568 134.82918878 92.03475931 143.41444965 92 152 C80.45 152 68.9 152 57 152 C56.96261719 146.64394531 56.92523437 141.28789062 56.88671875 135.76953125 C56.85643907 132.3743169 56.82529129 128.97915499 56.79101562 125.58398438 C56.73670675 120.19623461 56.68559619 114.80858856 56.65356445 109.4206543 C56.62753542 105.07626029 56.58713597 100.73221488 56.53681374 96.38803673 C56.52014229 94.73151679 56.50862973 93.07493656 56.50238609 91.4183445 C56.49274783 89.09598972 56.46469323 86.77452727 56.43237305 84.45239258 C56.43380814 83.76906357 56.43524323 83.08573456 56.4367218 82.38169861 C56.35277501 78.11052622 55.59679716 75.40729047 53 72 C49.31123973 70.15561987 45.02669687 70.51211266 41 71 C38.42362529 72.88515223 37.40332572 74.19334857 36 77 C35.87808779 79.37924562 35.81441706 81.73123317 35.79467773 84.11181641 C35.78477814 84.84362625 35.77487854 85.5754361 35.76467896 86.329422 C35.73303801 88.75343568 35.70829634 91.17746898 35.68359375 93.6015625 C35.66302646 95.28022782 35.64203005 96.95888793 35.62062073 98.63754272 C35.56537682 103.05981231 35.51597779 107.48212881 35.46777344 111.90447998 C35.40875245 117.20839582 35.34251174 122.51222575 35.27747345 127.81607056 C35.17943475 135.87732799 35.09059874 143.93864004 35 152 C23.45 152 11.9 152 0 152 C0 101.84 0 51.68 0 0 Z " fill="#000000" transform="translate(1520,281)"/>
<path d="M0 0 C1.22396484 -0.01160156 2.44792969 -0.02320312 3.70898438 -0.03515625 C14.96270629 0.000779 24.83497175 2.00825595 34.8125 7.25 C35.47121094 7.57613281 36.12992188 7.90226562 36.80859375 8.23828125 C41.19821512 10.48108978 44.75322071 13.10135246 48.4375 16.375 C46.86390936 21.5830774 43.55195187 25.21613244 40.125 29.3125 C39.55587891 30.00279297 38.98675781 30.69308594 38.40039062 31.40429688 C36.75266669 33.40010486 35.09659745 35.38864242 33.4375 37.375 C32.46479479 38.54292798 31.49213334 39.7108924 30.51953125 40.87890625 C29.83246094 41.70261719 29.14539063 42.52632812 28.4375 43.375 C23.70093296 41.59556374 19.45063933 39.20630928 15.05859375 36.71484375 C7.01670061 32.60401015 -4.46358171 33.16928893 -13.09765625 35.2109375 C-23.87495586 39.35498303 -30.68273474 45.96121963 -35.41015625 56.4375 C-40.0832146 68.34983858 -39.96589212 81.3478245 -35.5625 93.375 C-30.63155794 103.52027159 -23.11729647 111.71231785 -12.29296875 115.52734375 C-2.13731823 117.83496277 9.30342736 117.76616317 18.4375 112.375 C19.74406565 111.45837836 21.03696409 110.52183163 22.3125 109.5625 C25.4375 107.375 25.4375 107.375 27.33984375 107.43359375 C30.34687809 108.7831194 31.95356911 110.78135232 34.125 113.25 C35.42630859 114.72533203 35.42630859 114.72533203 36.75390625 116.23046875 C40.74018497 120.87023578 44.6140165 125.60026336 48.4375 130.375 C45.14744616 138.04065845 37.13517043 141.77332463 29.9375 145.1875 C29.33333252 145.47729736 28.72916504 145.76709473 28.10668945 146.06567383 C11.98208072 153.38719939 -10.24462616 152.85825566 -26.96484375 147.76171875 C-45.97551016 140.43404603 -60.5968069 129.86695007 -69.875 111.125 C-78.29823564 91.22833198 -80.23956182 67.87599889 -72.5625 47.375 C-65.27818071 29.45360235 -53.81049626 15.51685872 -36.1875 7 C-35.52878906 6.67813721 -34.87007812 6.35627441 -34.19140625 6.0246582 C-23.17621725 1.00919221 -11.98030889 -0.11391736 0 0 Z " fill="#000000" transform="translate(723.5625,94.625)"/>
<path d="M0 0 C12.28576965 9.12715775 18.93546606 21.74627919 21.33984375 36.73828125 C21.33984375 44.65828125 21.33984375 52.57828125 21.33984375 60.73828125 C-3.08015625 60.73828125 -27.50015625 60.73828125 -52.66015625 60.73828125 C-51.67015625 63.04828125 -50.68015625 65.35828125 -49.66015625 67.73828125 C-49.33015625 68.72828125 -49.00015625 69.71828125 -48.66015625 70.73828125 C-46.36481367 71.87373687 -46.36481367 71.87373687 -43.66015625 72.73828125 C-42.56380859 73.25068359 -42.56380859 73.25068359 -41.4453125 73.7734375 C-34.92427868 76.03247727 -25.4698027 76.05312645 -19.09765625 73.17578125 C-15.17142423 70.79598635 -12.37077468 67.39350913 -9.66015625 63.73828125 C-5.64276581 64.32395283 -2.82664187 65.59121681 0.640625 67.6796875 C1.61708984 68.26298828 2.59355469 68.84628906 3.59960938 69.44726562 C4.60701172 70.05892578 5.61441406 70.67058594 6.65234375 71.30078125 C8.19245117 72.22407227 8.19245117 72.22407227 9.76367188 73.16601562 C12.29304881 74.68364179 14.81817587 76.2078919 17.33984375 77.73828125 C15.89000185 86.06464055 10.31130485 92.66176871 3.58984375 97.61328125 C-11.74117573 107.47062917 -30.19653137 109.342777 -47.99609375 106.08984375 C-62.18395915 102.35955105 -73.56808854 94.5440318 -81.41015625 82.17578125 C-89.97605144 66.45530541 -91.50296922 46.89377772 -86.69140625 29.65234375 C-83.15295849 19.65354818 -78.20165698 12.17337633 -70.66015625 4.73828125 C-70.08394531 4.15175781 -69.50773437 3.56523438 -68.9140625 2.9609375 C-51.43152622 -13.51540964 -19.201934 -12.54194392 0 0 Z M-48.16015625 25.98828125 C-51.28167399 29.63005194 -50.88197422 31.29100701 -51.66015625 36.73828125 C-39.45015625 36.73828125 -27.24015625 36.73828125 -14.66015625 36.73828125 C-15.81888763 29.78589297 -17.14073306 26.56609807 -22.84765625 22.42578125 C-31.41911602 18.07608525 -41.40485585 18.82991996 -48.16015625 25.98828125 Z " fill="#000000" transform="translate(1493.66015625,518.26171875)"/>
<path d="M0 0 C12.28576965 9.12715775 18.93546606 21.74627919 21.33984375 36.73828125 C21.33984375 44.65828125 21.33984375 52.57828125 21.33984375 60.73828125 C-3.08015625 60.73828125 -27.50015625 60.73828125 -52.66015625 60.73828125 C-51.67015625 63.04828125 -50.68015625 65.35828125 -49.66015625 67.73828125 C-49.33015625 68.72828125 -49.00015625 69.71828125 -48.66015625 70.73828125 C-46.36481367 71.87373687 -46.36481367 71.87373687 -43.66015625 72.73828125 C-42.56380859 73.25068359 -42.56380859 73.25068359 -41.4453125 73.7734375 C-34.92427868 76.03247727 -25.4698027 76.05312645 -19.09765625 73.17578125 C-15.17142423 70.79598635 -12.37077468 67.39350913 -9.66015625 63.73828125 C-5.64276581 64.32395283 -2.82664187 65.59121681 0.640625 67.6796875 C1.61708984 68.26298828 2.59355469 68.84628906 3.59960938 69.44726562 C4.60701172 70.05892578 5.61441406 70.67058594 6.65234375 71.30078125 C8.19245117 72.22407227 8.19245117 72.22407227 9.76367188 73.16601562 C12.29304881 74.68364179 14.81817587 76.2078919 17.33984375 77.73828125 C15.89000185 86.06464055 10.31130485 92.66176871 3.58984375 97.61328125 C-11.74117573 107.47062917 -30.19653137 109.342777 -47.99609375 106.08984375 C-62.18395915 102.35955105 -73.56808854 94.5440318 -81.41015625 82.17578125 C-89.97605144 66.45530541 -91.50296922 46.89377772 -86.69140625 29.65234375 C-83.15295849 19.65354818 -78.20165698 12.17337633 -70.66015625 4.73828125 C-70.08394531 4.15175781 -69.50773437 3.56523437 -68.9140625 2.9609375 C-51.43152622 -13.51540964 -19.201934 -12.54194392 0 0 Z M-48.16015625 25.98828125 C-51.28167399 29.63005194 -50.88197422 31.29100701 -51.66015625 36.73828125 C-39.45015625 36.73828125 -27.24015625 36.73828125 -14.66015625 36.73828125 C-15.81888763 29.78589297 -17.14073306 26.56609807 -22.84765625 22.42578125 C-31.41911602 18.07608525 -41.40485585 18.82991996 -48.16015625 25.98828125 Z " fill="#000000" transform="translate(1708.66015625,328.26171875)"/>
<path d="M0 0 C12.28576965 9.12715775 18.93546606 21.74627919 21.33984375 36.73828125 C21.33984375 44.65828125 21.33984375 52.57828125 21.33984375 60.73828125 C-3.08015625 60.73828125 -27.50015625 60.73828125 -52.66015625 60.73828125 C-51.67015625 63.04828125 -50.68015625 65.35828125 -49.66015625 67.73828125 C-49.33015625 68.72828125 -49.00015625 69.71828125 -48.66015625 70.73828125 C-46.36481367 71.87373687 -46.36481367 71.87373687 -43.66015625 72.73828125 C-42.56380859 73.25068359 -42.56380859 73.25068359 -41.4453125 73.7734375 C-34.92427868 76.03247727 -25.4698027 76.05312645 -19.09765625 73.17578125 C-15.17142423 70.79598635 -12.37077468 67.39350913 -9.66015625 63.73828125 C-5.64276581 64.32395283 -2.82664187 65.59121681 0.640625 67.6796875 C1.61708984 68.26298828 2.59355469 68.84628906 3.59960938 69.44726562 C4.60701172 70.05892578 5.61441406 70.67058594 6.65234375 71.30078125 C8.19245117 72.22407227 8.19245117 72.22407227 9.76367188 73.16601562 C12.29304881 74.68364179 14.81817587 76.2078919 17.33984375 77.73828125 C15.89000185 86.06464055 10.31130485 92.66176871 3.58984375 97.61328125 C-11.74117573 107.47062917 -30.19653137 109.342777 -47.99609375 106.08984375 C-62.18395915 102.35955105 -73.56808854 94.5440318 -81.41015625 82.17578125 C-89.97605144 66.45530541 -91.50296922 46.89377772 -86.69140625 29.65234375 C-83.15295849 19.65354818 -78.20165698 12.17337633 -70.66015625 4.73828125 C-70.08394531 4.15175781 -69.50773437 3.56523437 -68.9140625 2.9609375 C-51.43152622 -13.51540964 -19.201934 -12.54194392 0 0 Z M-48.16015625 25.98828125 C-51.28167399 29.63005194 -50.88197422 31.29100701 -51.66015625 36.73828125 C-39.45015625 36.73828125 -27.24015625 36.73828125 -14.66015625 36.73828125 C-15.81888763 29.78589297 -17.14073306 26.56609807 -22.84765625 22.42578125 C-31.41911602 18.07608525 -41.40485585 18.82991996 -48.16015625 25.98828125 Z " fill="#000000" transform="translate(1461.66015625,137.26171875)"/>
<path d="M0 0 C12.28576965 9.12715775 18.93546606 21.74627919 21.33984375 36.73828125 C21.33984375 44.65828125 21.33984375 52.57828125 21.33984375 60.73828125 C-3.08015625 60.73828125 -27.50015625 60.73828125 -52.66015625 60.73828125 C-51.67015625 63.04828125 -50.68015625 65.35828125 -49.66015625 67.73828125 C-49.33015625 68.72828125 -49.00015625 69.71828125 -48.66015625 70.73828125 C-46.36481367 71.87373687 -46.36481367 71.87373687 -43.66015625 72.73828125 C-42.56380859 73.25068359 -42.56380859 73.25068359 -41.4453125 73.7734375 C-34.92427868 76.03247727 -25.4698027 76.05312645 -19.09765625 73.17578125 C-15.17142423 70.79598635 -12.37077468 67.39350913 -9.66015625 63.73828125 C-5.64276581 64.32395283 -2.82664187 65.59121681 0.640625 67.6796875 C1.61708984 68.26298828 2.59355469 68.84628906 3.59960938 69.44726562 C4.60701172 70.05892578 5.61441406 70.67058594 6.65234375 71.30078125 C8.19245117 72.22407227 8.19245117 72.22407227 9.76367188 73.16601562 C12.29304881 74.68364179 14.81817587 76.2078919 17.33984375 77.73828125 C15.89000185 86.06464055 10.31130485 92.66176871 3.58984375 97.61328125 C-11.74117573 107.47062917 -30.19653137 109.342777 -47.99609375 106.08984375 C-62.18395915 102.35955105 -73.56808854 94.5440318 -81.41015625 82.17578125 C-89.97605144 66.45530541 -91.50296922 46.89377772 -86.69140625 29.65234375 C-83.15295849 19.65354818 -78.20165698 12.17337633 -70.66015625 4.73828125 C-70.08394531 4.15175781 -69.50773437 3.56523437 -68.9140625 2.9609375 C-51.43152622 -13.51540964 -19.201934 -12.54194392 0 0 Z M-48.16015625 25.98828125 C-51.28167399 29.63005194 -50.88197422 31.29100701 -51.66015625 36.73828125 C-39.45015625 36.73828125 -27.24015625 36.73828125 -14.66015625 36.73828125 C-15.81888763 29.78589297 -17.14073306 26.56609807 -22.84765625 22.42578125 C-31.41911602 18.07608525 -41.40485585 18.82991996 -48.16015625 25.98828125 Z " fill="#000000" transform="translate(1179.66015625,137.26171875)"/>
<path d="M0 0 C73.6875 0 73.6875 0 85.67578125 11.625 C94.17798199 20.73902164 96.56387041 33.11868606 96.25 45.30078125 C95.37939769 54.70056562 93.33345757 63.15171592 88 71 C87.443125 71.86625 86.88625 72.7325 86.3125 73.625 C78.97219301 81.16369366 72.2723342 83.5758886 62 87 C53.09 87 44.18 87 35 87 C35 105.81 35 124.62 35 144 C23.45 144 11.9 144 0 144 C0 96.48 0 48.96 0 0 Z M35 30 C35 38.91 35 47.82 35 57 C44.91016435 57.23077587 44.91016435 57.23077587 54 55 C57.53698106 51.46301894 58.87244386 48.69011881 59.25 43.6875 C58.92115246 38.83699883 57.64116846 35.64116846 54.1875 32.1875 C48.22559709 28.95103842 41.67304058 30 35 30 Z " fill="#000000" transform="translate(651,479)"/>
<path d="M0 0 C0.95519531 0.43570312 1.91039062 0.87140625 2.89453125 1.3203125 C16.33446307 8.04947125 25.08386782 18.46552161 30.22265625 32.55859375 C35.49894835 49.1298629 34.16868001 67.31582454 26.3125 82.875 C17.95310365 96.82827812 6.35135193 105.13102599 -9 110 C-22.50916692 113.13829422 -39.29232784 112.70433284 -52 107 C-53.28970703 106.49146484 -53.28970703 106.49146484 -54.60546875 105.97265625 C-66.90318911 100.61504474 -76.32745523 90.1645154 -81.27734375 77.8125 C-87.16142272 60.72563722 -86.89452797 42.58425925 -79.5 26 C-72.11892999 12.09442859 -60.24833131 2.75274846 -45.41015625 -2.2734375 C-31.65488755 -6.42008252 -13.09991007 -6.15791393 0 0 Z M-46.5234375 36.73046875 C-50.62805894 43.03942393 -51.96301966 50.58214585 -51 58 C-48.81801164 67.51852895 -44.24702674 73.80115563 -36 79 C-29.53906695 81.15364435 -20.85811884 81.31319976 -14.5625 78.5 C-8.40369456 74.70691596 -4.19999042 69.6486125 -2 62.75 C-0.14654036 54.44972424 -0.57990212 46.11064672 -4.9140625 38.671875 C-5.45160156 37.84429687 -5.45160156 37.84429687 -6 37 C-6.556875 36.113125 -7.11375 35.22625 -7.6875 34.3125 C-13.17988258 28.82011742 -18.25368392 26.67184818 -26.0625 26.4375 C-35.29258342 26.82456801 -40.69800753 29.56173187 -46.5234375 36.73046875 Z " fill="#000000" transform="translate(1319,324)"/>
<path d="M0 0 C0.95519531 0.43570313 1.91039062 0.87140625 2.89453125 1.3203125 C16.33446307 8.04947125 25.08386782 18.46552161 30.22265625 32.55859375 C35.49894835 49.1298629 34.16868001 67.31582454 26.3125 82.875 C17.95310365 96.82827812 6.35135193 105.13102599 -9 110 C-22.50916692 113.13829422 -39.29232784 112.70433284 -52 107 C-53.28970703 106.49146484 -53.28970703 106.49146484 -54.60546875 105.97265625 C-66.90318911 100.61504474 -76.32745523 90.1645154 -81.27734375 77.8125 C-87.16142272 60.72563722 -86.89452797 42.58425925 -79.5 26 C-72.11892999 12.09442859 -60.24833131 2.75274846 -45.41015625 -2.2734375 C-31.65488755 -6.42008252 -13.09991007 -6.15791393 0 0 Z M-46.5234375 36.73046875 C-50.62805894 43.03942393 -51.96301966 50.58214585 -51 58 C-48.81801164 67.51852895 -44.24702674 73.80115563 -36 79 C-29.53906695 81.15364435 -20.85811884 81.31319976 -14.5625 78.5 C-8.40369456 74.70691596 -4.19999042 69.6486125 -2 62.75 C-0.14654036 54.44972424 -0.57990212 46.11064672 -4.9140625 38.671875 C-5.45160156 37.84429687 -5.45160156 37.84429687 -6 37 C-6.556875 36.113125 -7.11375 35.22625 -7.6875 34.3125 C-13.17988258 28.82011742 -18.25368392 26.67184818 -26.0625 26.4375 C-35.29258342 26.82456801 -40.69800753 29.56173187 -46.5234375 36.73046875 Z " fill="#000000" transform="translate(856,133)"/>
<path d="M0 0 C2.22265625 1.1328125 2.22265625 1.1328125 4.1875 2.375 C4.82558594 2.76429688 5.46367188 3.15359375 6.12109375 3.5546875 C13.61362995 9.0008751 17.07574588 18.30043766 18.77330017 27.11376953 C19.69716661 34.38789467 19.42763365 41.75036035 19.3828125 49.0703125 C19.37907617 50.87205853 19.37623213 52.67380662 19.37423706 54.47555542 C19.36664942 59.1871515 19.34704347 63.89862167 19.3248291 68.61016846 C19.30064103 74.27963662 19.29156648 79.9491472 19.27992249 85.61865234 C19.26061568 94.20418878 19.22225931 102.78944965 19.1875 111.375 C7.6375 111.375 -3.9125 111.375 -15.8125 111.375 C-15.84988281 106.01894531 -15.88726563 100.66289063 -15.92578125 95.14453125 C-15.95606093 91.7493169 -15.98720871 88.35415499 -16.02148438 84.95898438 C-16.07579325 79.57123461 -16.12690381 74.18358856 -16.15893555 68.7956543 C-16.18496458 64.45126029 -16.22536403 60.10721488 -16.27568626 55.76303673 C-16.29235771 54.10651679 -16.30387027 52.44993656 -16.31011391 50.7933445 C-16.31975217 48.47098972 -16.34780677 46.14952727 -16.38012695 43.82739258 C-16.37869186 43.14406357 -16.37725677 42.46073456 -16.3757782 41.75669861 C-16.45972499 37.48552622 -17.21570284 34.78229047 -19.8125 31.375 C-23.50126027 29.53061987 -27.78580313 29.88711266 -31.8125 30.375 C-34.38887471 32.26015223 -35.40917428 33.56834857 -36.8125 36.375 C-36.93441221 38.75424562 -36.99808294 41.10623317 -37.01782227 43.48681641 C-37.02772186 44.21862625 -37.03762146 44.9504361 -37.04782104 45.704422 C-37.07946199 48.12843568 -37.10420366 50.55246898 -37.12890625 52.9765625 C-37.14947354 54.65522782 -37.17046995 56.33388793 -37.19187927 58.01254272 C-37.24712318 62.43481231 -37.29652221 66.85712881 -37.34472656 71.27947998 C-37.40374755 76.58339582 -37.46998826 81.88722575 -37.53502655 87.19107056 C-37.63306525 95.25232799 -37.72190126 103.31364004 -37.8125 111.375 C-49.3625 111.375 -60.9125 111.375 -72.8125 111.375 C-72.8125 74.745 -72.8125 38.115 -72.8125 0.375 C-61.2625 0.375 -49.7125 0.375 -37.8125 0.375 C-37.3175 1.86 -37.3175 1.86 -36.8125 3.375 C-35.99845703 2.95927734 -35.99845703 2.95927734 -35.16796875 2.53515625 C-34.45253906 2.17292969 -33.73710938 1.81070313 -33 1.4375 C-32.29230469 1.07785156 -31.58460937 0.71820312 -30.85546875 0.34765625 C-22.46974095 -3.64478394 -8.60218449 -3.21914047 0 0 Z " fill="#000000" transform="translate(1377.8125,511.625)"/>
<path d="M0 0 C2.22265625 1.1328125 2.22265625 1.1328125 4.1875 2.375 C4.82558594 2.76429688 5.46367188 3.15359375 6.12109375 3.5546875 C13.61362995 9.0008751 17.07574588 18.30043766 18.77330017 27.11376953 C19.69716661 34.38789467 19.42763365 41.75036035 19.3828125 49.0703125 C19.37907617 50.87205853 19.37623213 52.67380662 19.37423706 54.47555542 C19.36664942 59.1871515 19.34704347 63.89862167 19.3248291 68.61016846 C19.30064103 74.27963662 19.29156648 79.9491472 19.27992249 85.61865234 C19.26061568 94.20418878 19.22225931 102.78944965 19.1875 111.375 C7.6375 111.375 -3.9125 111.375 -15.8125 111.375 C-15.84988281 106.01894531 -15.88726563 100.66289062 -15.92578125 95.14453125 C-15.95606093 91.7493169 -15.98720871 88.35415499 -16.02148438 84.95898438 C-16.07579325 79.57123461 -16.12690381 74.18358856 -16.15893555 68.7956543 C-16.18496458 64.45126029 -16.22536403 60.10721488 -16.27568626 55.76303673 C-16.29235771 54.10651679 -16.30387027 52.44993656 -16.31011391 50.7933445 C-16.31975217 48.47098972 -16.34780677 46.14952727 -16.38012695 43.82739258 C-16.37869186 43.14406357 -16.37725677 42.46073456 -16.3757782 41.75669861 C-16.45972499 37.48552622 -17.21570284 34.78229047 -19.8125 31.375 C-23.50126027 29.53061987 -27.78580313 29.88711266 -31.8125 30.375 C-34.38887471 32.26015223 -35.40917428 33.56834857 -36.8125 36.375 C-36.93441221 38.75424562 -36.99808294 41.10623317 -37.01782227 43.48681641 C-37.02772186 44.21862625 -37.03762146 44.9504361 -37.04782104 45.704422 C-37.07946199 48.12843568 -37.10420366 50.55246898 -37.12890625 52.9765625 C-37.14947354 54.65522782 -37.17046995 56.33388793 -37.19187927 58.01254272 C-37.24712318 62.43481231 -37.29652221 66.85712881 -37.34472656 71.27947998 C-37.40374755 76.58339582 -37.46998826 81.88722575 -37.53502655 87.19107056 C-37.63306525 95.25232799 -37.72190126 103.31364004 -37.8125 111.375 C-49.3625 111.375 -60.9125 111.375 -72.8125 111.375 C-72.8125 74.745 -72.8125 38.115 -72.8125 0.375 C-61.2625 0.375 -49.7125 0.375 -37.8125 0.375 C-37.3175 1.86 -37.3175 1.86 -36.8125 3.375 C-35.99845703 2.95927734 -35.99845703 2.95927734 -35.16796875 2.53515625 C-34.45253906 2.17292969 -33.73710938 1.81070313 -33 1.4375 C-32.29230469 1.07785156 -31.58460937 0.71820313 -30.85546875 0.34765625 C-22.46974095 -3.64478394 -8.60218449 -3.21914047 0 0 Z " fill="#000000" transform="translate(1345.8125,130.625)"/>
<path d="M0 0 C2.22265625 1.1328125 2.22265625 1.1328125 4.1875 2.375 C4.82558594 2.76429688 5.46367188 3.15359375 6.12109375 3.5546875 C13.61362995 9.0008751 17.07574588 18.30043766 18.77330017 27.11376953 C19.69716661 34.38789467 19.42763365 41.75036035 19.3828125 49.0703125 C19.37907617 50.87205853 19.37623213 52.67380662 19.37423706 54.47555542 C19.36664942 59.1871515 19.34704347 63.89862167 19.3248291 68.61016846 C19.30064103 74.27963662 19.29156648 79.9491472 19.27992249 85.61865234 C19.26061568 94.20418878 19.22225931 102.78944965 19.1875 111.375 C7.6375 111.375 -3.9125 111.375 -15.8125 111.375 C-15.84988281 106.01894531 -15.88726563 100.66289062 -15.92578125 95.14453125 C-15.95606093 91.7493169 -15.98720871 88.35415499 -16.02148438 84.95898438 C-16.07579325 79.57123461 -16.12690381 74.18358856 -16.15893555 68.7956543 C-16.18496458 64.45126029 -16.22536403 60.10721488 -16.27568626 55.76303673 C-16.29235771 54.10651679 -16.30387027 52.44993656 -16.31011391 50.7933445 C-16.31975217 48.47098972 -16.34780677 46.14952727 -16.38012695 43.82739258 C-16.37869186 43.14406357 -16.37725677 42.46073456 -16.3757782 41.75669861 C-16.45972499 37.48552622 -17.21570284 34.78229047 -19.8125 31.375 C-23.50126027 29.53061987 -27.78580313 29.88711266 -31.8125 30.375 C-34.38887471 32.26015223 -35.40917428 33.56834857 -36.8125 36.375 C-36.93441221 38.75424562 -36.99808294 41.10623317 -37.01782227 43.48681641 C-37.02772186 44.21862625 -37.03762146 44.9504361 -37.04782104 45.704422 C-37.07946199 48.12843568 -37.10420366 50.55246898 -37.12890625 52.9765625 C-37.14947354 54.65522782 -37.17046995 56.33388793 -37.19187927 58.01254272 C-37.24712318 62.43481231 -37.29652221 66.85712881 -37.34472656 71.27947998 C-37.40374755 76.58339582 -37.46998826 81.88722575 -37.53502655 87.19107056 C-37.63306525 95.25232799 -37.72190126 103.31364004 -37.8125 111.375 C-49.3625 111.375 -60.9125 111.375 -72.8125 111.375 C-72.8125 74.745 -72.8125 38.115 -72.8125 0.375 C-61.2625 0.375 -49.7125 0.375 -37.8125 0.375 C-37.3175 1.86 -37.3175 1.86 -36.8125 3.375 C-35.99845703 2.95927734 -35.99845703 2.95927734 -35.16796875 2.53515625 C-34.45253906 2.17292969 -33.73710938 1.81070313 -33 1.4375 C-32.29230469 1.07785156 -31.58460938 0.71820313 -30.85546875 0.34765625 C-22.46974095 -3.64478394 -8.60218449 -3.21914047 0 0 Z " fill="#000000" transform="translate(969.8125,130.625)"/>
<path d="M0 0 C35.19759785 1.52329703 64.44277275 18.7197944 89 43.01953125 C89.91007812 43.90511719 90.82015625 44.79070312 91.7578125 45.703125 C97.00881515 51.12794133 97.00881515 51.12794133 96.97265625 54.78515625 C95.72880958 58.92132108 93.77943844 62.16505745 91.4375 65.76953125 C90.9835083 66.47762939 90.5295166 67.18572754 90.06176758 67.9152832 C79.59686465 84.02347649 64.54219563 102.73468826 44.96484375 107.62109375 C25.38433081 110.25246703 1.22032127 107.47937441 -15.1015625 95.6171875 C-20.92434278 90.71694648 -25.06409403 85.30566682 -26.421875 77.63671875 C-26.81769863 72.65847534 -26.26653026 69.68027238 -23 65.83203125 C-21.69233195 64.53480366 -20.35834305 63.26359688 -19 62.01953125 C-18.39800781 61.41238281 -17.79601562 60.80523437 -17.17578125 60.1796875 C-8.63983701 52.00164449 1.66623488 48.48197518 13 46.01953125 C15.34566106 45.38846508 17.67036827 44.70783153 20 44.01953125 C20 40.81718367 19.64472253 40.07341924 18.015625 37.45703125 C17.58040527 36.7513501 17.14518555 36.04566895 16.69677734 35.31860352 C15.98062256 34.18056274 15.98062256 34.18056274 15.25 33.01953125 C14.76354004 32.23441162 14.27708008 31.44929199 13.77587891 30.64038086 C11.08781596 26.31389177 8.36324569 22.0107762 5.6328125 17.7109375 C5.08850586 16.85306641 4.54419922 15.99519531 3.98339844 15.11132812 C2.92533163 13.44745865 1.86357982 11.78592578 0.79785156 10.12695312 C0.31541992 9.37091797 -0.16701172 8.61488281 -0.6640625 7.8359375 C-1.09154785 7.17021729 -1.5190332 6.50449707 -1.95947266 5.81860352 C-3 4.01953125 -3 4.01953125 -4 1.01953125 C-3 0.01953125 -3 0.01953125 0 0 Z M78 47.01953125 C75.36 51.63953125 72.72 56.25953125 70 61.01953125 C74.25464401 66.01953125 74.25464401 66.01953125 78 67.01953125 C81.3 62.39953125 84.6 57.77953125 88 53.01953125 C83.2900074 48.85519373 83.2900074 48.85519373 78 47.01953125 Z M-17.125 75.51953125 C-18.07375 76.34453125 -19.0225 77.16953125 -20 78.01953125 C-16.50640535 81.61587869 -12.88901869 84.85405092 -9 88.01953125 C-8.16094435 86.89879263 -7.32892169 85.77278578 -6.5 84.64453125 C-5.80390625 83.70480469 -5.80390625 83.70480469 -5.09375 82.74609375 C-3.82161899 81.07858512 -3.82161899 81.07858512 -4 79.01953125 C-5.71497772 77.43126903 -5.71497772 77.43126903 -7.875 75.89453125 C-8.59429687 75.35570312 -9.31359375 74.816875 -10.0546875 74.26171875 C-13.33026119 72.17008736 -14.42288659 73.16986741 -17.125 75.51953125 Z M54.375 81.01953125 C53.859375 81.49648438 53.34375 81.9734375 52.8125 82.46484375 C51.53757198 83.64533265 50.26825081 84.83187163 49 86.01953125 C51.475 88.98953125 51.475 88.98953125 54 92.01953125 C59.09210286 88.4563228 63.22660027 84.97211839 67 80.01953125 C60.95440688 74.92850547 59.82467747 75.90181383 54.375 81.01953125 Z M13 90.01953125 C12.01 92.98953125 11.02 95.95953125 10 99.01953125 C16.27 99.67953125 22.54 100.33953125 29 101.01953125 C29.66 98.04953125 30.32 95.07953125 31 92.01953125 C25.06 91.35953125 19.12 90.69953125 13 90.01953125 Z " fill="#000000" transform="translate(374,443.98046875)"/>
<path d="M0 0 C1.5161792 0.01244751 1.5161792 0.01244751 3.06298828 0.02514648 C14.65435289 0.28752553 24.38241133 2.84020977 32.625 11.4375 C38.40133131 19.43658625 39.625 26.5473572 39.625 36.4375 C29.395 36.4375 19.165 36.4375 8.625 36.4375 C7.305 33.7975 5.985 31.1575 4.625 28.4375 C1.60631566 26.92815783 -1.04797229 27.26239328 -4.375 27.4375 C-5.365 28.0975 -6.355 28.7575 -7.375 29.4375 C-7.95845476 32.39496492 -7.95845476 32.39496492 -7.375 35.4375 C-4.70703011 37.91229007 -2.42059687 38.89234138 1.1171875 39.578125 C2.41257446 39.84761963 2.41257446 39.84761963 3.73413086 40.12255859 C4.64686768 40.30898926 5.55960449 40.49541992 6.5 40.6875 C17.41000035 43.11444717 29.62523215 46.15675932 36.5859375 55.6796875 C42.64475353 65.92956425 43.50667088 79.38731486 40.5625 90.875 C37.3217004 99.84372449 30.90951235 106.01055268 22.625 110.4375 C9.76880867 116.22960034 -7.96503551 117.00200186 -21.4375 112.8125 C-30.31249594 109.05213135 -37.5192475 103.01111895 -41.41015625 94.0546875 C-43.54805188 87.71060651 -43.375 83.68217329 -43.375 76.4375 C-32.485 76.4375 -21.595 76.4375 -10.375 76.4375 C-9.715 79.4075 -9.055 82.3775 -8.375 85.4375 C-3.7416981 86.59582547 0.37795818 87.14709215 5 85.6875 C6.75384217 84.53687499 6.75384217 84.53687499 7.5 82.5625 C7.65841 79.86953001 7.08005625 78.69441387 5.625 76.4375 C3.80960991 75.47478869 3.80960991 75.47478869 1.5625 75 C0.67433594 74.76023437 -0.21382812 74.52046875 -1.12890625 74.2734375 C-2.20011719 73.99757813 -3.27132813 73.72171875 -4.375 73.4375 C-29.37035875 66.86531109 -29.37035875 66.86531109 -36.125 56.67578125 C-41.75790919 46.58935323 -43.23028542 35.76981737 -40.71484375 24.47265625 C-37.3888956 15.12832574 -30.2327739 7.78306491 -21.375 3.4375 C-14.2395194 0.6853136 -7.60996321 -0.08063285 0 0 Z " fill="#000000" transform="translate(1563.375,509.5625)"/>
<path d="M0 0 C1.5161792 0.01244751 1.5161792 0.01244751 3.06298828 0.02514648 C14.65435289 0.28752553 24.38241133 2.84020977 32.625 11.4375 C38.40133131 19.43658625 39.625 26.5473572 39.625 36.4375 C29.395 36.4375 19.165 36.4375 8.625 36.4375 C7.305 33.7975 5.985 31.1575 4.625 28.4375 C1.60631566 26.92815783 -1.04797229 27.26239328 -4.375 27.4375 C-5.365 28.0975 -6.355 28.7575 -7.375 29.4375 C-7.95845476 32.39496492 -7.95845476 32.39496492 -7.375 35.4375 C-4.70703011 37.91229007 -2.42059687 38.89234138 1.1171875 39.578125 C2.41257446 39.84761963 2.41257446 39.84761963 3.73413086 40.12255859 C4.64686768 40.30898926 5.55960449 40.49541992 6.5 40.6875 C17.41000035 43.11444717 29.62523215 46.15675932 36.5859375 55.6796875 C42.64475353 65.92956425 43.50667088 79.38731486 40.5625 90.875 C37.3217004 99.84372449 30.90951235 106.01055268 22.625 110.4375 C9.76880867 116.22960034 -7.96503551 117.00200186 -21.4375 112.8125 C-30.31249594 109.05213135 -37.5192475 103.01111895 -41.41015625 94.0546875 C-43.54805188 87.71060651 -43.375 83.68217329 -43.375 76.4375 C-32.485 76.4375 -21.595 76.4375 -10.375 76.4375 C-9.715 79.4075 -9.055 82.3775 -8.375 85.4375 C-3.7416981 86.59582547 0.37795818 87.14709215 5 85.6875 C6.75384217 84.53687499 6.75384217 84.53687499 7.5 82.5625 C7.65841 79.86953001 7.08005625 78.69441387 5.625 76.4375 C3.80960991 75.47478869 3.80960991 75.47478869 1.5625 75 C0.67433594 74.76023437 -0.21382812 74.52046875 -1.12890625 74.2734375 C-2.20011719 73.99757813 -3.27132813 73.72171875 -4.375 73.4375 C-29.37035875 66.86531109 -29.37035875 66.86531109 -36.125 56.67578125 C-41.75790919 46.58935323 -43.23028542 35.76981737 -40.71484375 24.47265625 C-37.3888956 15.12832574 -30.2327739 7.78306491 -21.375 3.4375 C-14.2395194 0.6853136 -7.60996321 -0.08063285 0 0 Z " fill="#000000" transform="translate(1155.375,319.5625)"/>
<path d="M0 0 C1.5161792 0.01244751 1.5161792 0.01244751 3.06298828 0.02514648 C14.65435289 0.28752553 24.38241133 2.84020977 32.625 11.4375 C38.40133131 19.43658625 39.625 26.5473572 39.625 36.4375 C29.395 36.4375 19.165 36.4375 8.625 36.4375 C7.305 33.7975 5.985 31.1575 4.625 28.4375 C1.60631566 26.92815783 -1.04797229 27.26239328 -4.375 27.4375 C-5.365 28.0975 -6.355 28.7575 -7.375 29.4375 C-7.95845476 32.39496492 -7.95845476 32.39496492 -7.375 35.4375 C-4.70703011 37.91229007 -2.42059687 38.89234138 1.1171875 39.578125 C2.41257446 39.84761963 2.41257446 39.84761963 3.73413086 40.12255859 C4.64686768 40.30898926 5.55960449 40.49541992 6.5 40.6875 C17.41000035 43.11444717 29.62523215 46.15675932 36.5859375 55.6796875 C42.64475353 65.92956425 43.50667088 79.38731486 40.5625 90.875 C37.3217004 99.84372449 30.90951235 106.01055268 22.625 110.4375 C9.76880867 116.22960034 -7.96503551 117.00200186 -21.4375 112.8125 C-30.31249594 109.05213135 -37.5192475 103.01111895 -41.41015625 94.0546875 C-43.54805188 87.71060651 -43.375 83.68217329 -43.375 76.4375 C-32.485 76.4375 -21.595 76.4375 -10.375 76.4375 C-9.715 79.4075 -9.055 82.3775 -8.375 85.4375 C-3.7416981 86.59582547 0.37795818 87.14709215 5 85.6875 C6.75384217 84.53687499 6.75384217 84.53687499 7.5 82.5625 C7.65841 79.86953001 7.08005625 78.69441387 5.625 76.4375 C3.80960991 75.47478869 3.80960991 75.47478869 1.5625 75 C0.67433594 74.76023437 -0.21382812 74.52046875 -1.12890625 74.2734375 C-2.20011719 73.99757813 -3.27132812 73.72171875 -4.375 73.4375 C-29.37035875 66.86531109 -29.37035875 66.86531109 -36.125 56.67578125 C-41.75790919 46.58935323 -43.23028542 35.76981737 -40.71484375 24.47265625 C-37.3888956 15.12832574 -30.2327739 7.78306491 -21.375 3.4375 C-14.2395194 0.6853136 -7.60996321 -0.08063285 0 0 Z " fill="#000000" transform="translate(1000.375,319.5625)"/>
<path d="M0 0 C1.87872308 1.36007945 3.44525085 2.77105744 5.0234375 4.46484375 C3.65100253 7.40542415 2.06210253 9.89491065 0.08984375 12.46875 C-0.47669922 13.20931641 -1.04324219 13.94988281 -1.62695312 14.71289062 C-2.21669922 15.47666016 -2.80644531 16.24042969 -3.4140625 17.02734375 C-4.29288086 18.17879883 -4.29288086 18.17879883 -5.18945312 19.35351562 C-10.59657516 26.39320799 -10.59657516 26.39320799 -12.9765625 28.46484375 C-16.0751805 28.17759514 -17.56827797 27.09641713 -20.2890625 25.40234375 C-26.33820468 22.28094082 -33.36490925 22.66539548 -39.9765625 23.46484375 C-47.8041416 26.76652403 -51.82181951 31.78304458 -54.9765625 39.46484375 C-57.41330604 47.38426026 -56.26211453 55.97626477 -52.9765625 63.46484375 C-49.663836 68.87253436 -45.15221243 72.81344369 -38.9765625 74.46484375 C-30.50334825 75.42500938 -24.25250026 74.91125016 -16.9765625 70.46484375 C-15.65463446 70.08881828 -14.32228633 69.74397861 -12.9765625 69.46484375 C-6.58558023 76.48838058 -0.79730068 83.97051177 5.0234375 91.46484375 C2.52452201 97.47259912 -3.09783052 100.23498116 -8.875 102.703125 C-24.48646475 108.45802152 -43.49890904 109.16070192 -58.9765625 102.46484375 C-71.73139211 96.41824585 -81.9743074 86.4338755 -87.2578125 73.2734375 C-93.1459378 56.13478706 -92.90807291 37.92218604 -85.3515625 21.33984375 C-77.67310898 6.83609821 -64.87936041 -2.86383871 -49.3671875 -7.6484375 C-32.52259058 -11.64677214 -14.56166088 -9.11917966 0 0 Z " fill="#000000" transform="translate(1087.9765625,137.53515625)"/>
<path d="M0 0 C2.660625 0.020625 5.32125 0.04125 8.0625 0.0625 C8.0625 9.6325 8.0625 19.2025 8.0625 29.0625 C4.1025 30.0525 0.1425 31.0425 -3.9375 32.0625 C-6.36539884 37.06356435 -6.36539884 37.06356435 -6.9375 42.0625 C-1.9875 42.0625 2.9625 42.0625 8.0625 42.0625 C8.0625 51.3025 8.0625 60.5425 8.0625 70.0625 C3.1125 70.0625 -1.8375 70.0625 -6.9375 70.0625 C-6.9375 97.4525 -6.9375 124.8425 -6.9375 153.0625 C-18.1575 153.0625 -29.3775 153.0625 -40.9375 153.0625 C-40.9375 125.6725 -40.9375 98.2825 -40.9375 70.0625 C-44.2375 70.0625 -47.5375 70.0625 -50.9375 70.0625 C-50.9375 60.8225 -50.9375 51.5825 -50.9375 42.0625 C-47.6375 42.0625 -44.3375 42.0625 -40.9375 42.0625 C-40.98970703 40.84626953 -40.98970703 40.84626953 -41.04296875 39.60546875 C-41.30611276 28.84162584 -40.11465886 18.56323881 -32.9375 10.0625 C-23.73245745 1.19987698 -12.29197097 -0.13584281 0 0 Z " fill="#000000" transform="translate(1404.9375,279.9375)"/>
<path d="M0 0 C11.22 0 22.44 0 34 0 C34 5.94 34 11.88 34 18 C38.95 18 43.9 18 49 18 C49 27.24 49 36.48 49 46 C44.05 46 39.1 46 34 46 C34.0937432 52.29908584 34.19988436 58.59779678 34.31738281 64.89648438 C34.35560153 67.03802816 34.39046668 69.17963457 34.421875 71.32128906 C34.46767979 74.40452417 34.52564917 77.48733071 34.5859375 80.5703125 C34.60326431 82.00034103 34.60326431 82.00034103 34.62094116 83.45925903 C34.72718168 88.27400609 34.85354985 92.58376089 37 97 C40.30993045 98.43395099 40.30993045 98.43395099 44 99 C45.65 99.33 47.3 99.66 49 100 C49 109.57 49 119.14 49 129 C43.75025497 130.31243626 38.76642745 130.26360556 33.375 130.3125 C32.33214844 130.34150391 31.28929687 130.37050781 30.21484375 130.40039062 C21.26221347 130.47303993 13.80905991 128.83418196 7.0625 122.6875 C1.32731206 116.38554054 -0.13081469 109.18349696 -0.11352539 100.83276367 C-0.11344986 99.61187546 -0.11337433 98.39098724 -0.11329651 97.13310242 C-0.10813522 95.82460831 -0.10297394 94.5161142 -0.09765625 93.16796875 C-0.09578961 91.80748039 -0.09436687 90.44699135 -0.09336853 89.08650208 C-0.08956275 85.51744713 -0.07974914 81.94843331 -0.06866455 78.37939453 C-0.05840863 74.73275305 -0.05386197 71.08610489 -0.04882812 67.43945312 C-0.03812503 60.29295199 -0.02107204 53.14647869 0 46 C-3.3 46 -6.6 46 -10 46 C-10 36.76 -10 27.52 -10 18 C-6.7 18 -3.4 18 0 18 C0 12.06 0 6.12 0 0 Z " fill="#000000" transform="translate(1459,304)"/>
<path d="M0 0 C11.22 0 22.44 0 34 0 C34 5.94 34 11.88 34 18 C38.95 18 43.9 18 49 18 C49 27.24 49 36.48 49 46 C44.05 46 39.1 46 34 46 C34.0937432 52.29908584 34.19988436 58.59779678 34.31738281 64.89648438 C34.35560153 67.03802816 34.39046668 69.17963457 34.421875 71.32128906 C34.46767979 74.40452417 34.52564917 77.48733071 34.5859375 80.5703125 C34.60326431 82.00034103 34.60326431 82.00034103 34.62094116 83.45925903 C34.72718168 88.27400609 34.85354985 92.58376089 37 97 C40.30993045 98.43395099 40.30993045 98.43395099 44 99 C45.65 99.33 47.3 99.66 49 100 C49 109.57 49 119.14 49 129 C43.75025497 130.31243626 38.76642745 130.26360556 33.375 130.3125 C32.33214844 130.34150391 31.28929687 130.37050781 30.21484375 130.40039062 C21.26221347 130.47303993 13.80905991 128.83418196 7.0625 122.6875 C1.32731206 116.38554054 -0.13081469 109.18349696 -0.11352539 100.83276367 C-0.11344986 99.61187546 -0.11337433 98.39098724 -0.11329651 97.13310242 C-0.10813522 95.82460831 -0.10297394 94.5161142 -0.09765625 93.16796875 C-0.09578961 91.80748039 -0.09436687 90.44699135 -0.09336853 89.08650208 C-0.08956275 85.51744713 -0.07974914 81.94843331 -0.06866455 78.37939453 C-0.05840863 74.73275305 -0.05386197 71.08610489 -0.04882812 67.43945312 C-0.03812503 60.29295199 -0.02107204 53.14647869 0 46 C-3.3 46 -6.6 46 -10 46 C-10 36.76 -10 27.52 -10 18 C-6.7 18 -3.4 18 0 18 C0 12.06 0 6.12 0 0 Z " fill="#000000" transform="translate(1056,304)"/>
<path d="M0 0 C11.22 0 22.44 0 34 0 C34 5.94 34 11.88 34 18 C38.95 18 43.9 18 49 18 C49 27.24 49 36.48 49 46 C44.05 46 39.1 46 34 46 C34.0937432 52.29908584 34.19988436 58.59779678 34.31738281 64.89648438 C34.35560153 67.03802816 34.39046668 69.17963457 34.421875 71.32128906 C34.46767979 74.40452417 34.52564917 77.48733071 34.5859375 80.5703125 C34.60326431 82.00034103 34.60326431 82.00034103 34.62094116 83.45925903 C34.72718168 88.27400609 34.85354985 92.58376089 37 97 C40.30993045 98.43395099 40.30993045 98.43395099 44 99 C45.65 99.33 47.3 99.66 49 100 C49 109.57 49 119.14 49 129 C43.75025497 130.31243626 38.76642745 130.26360556 33.375 130.3125 C32.33214844 130.34150391 31.28929687 130.37050781 30.21484375 130.40039062 C21.26221347 130.47303993 13.80905991 128.83418196 7.0625 122.6875 C1.32731206 116.38554054 -0.13081469 109.18349696 -0.11352539 100.83276367 C-0.11344986 99.61187546 -0.11337433 98.39098724 -0.11329651 97.13310242 C-0.10813522 95.82460831 -0.10297394 94.5161142 -0.09765625 93.16796875 C-0.09578961 91.80748039 -0.09436687 90.44699135 -0.09336853 89.08650208 C-0.08956275 85.51744713 -0.07974914 81.94843331 -0.06866455 78.37939453 C-0.05840863 74.73275305 -0.05386197 71.08610489 -0.04882812 67.43945312 C-0.03812503 60.29295199 -0.02107204 53.14647869 0 46 C-3.3 46 -6.6 46 -10 46 C-10 36.76 -10 27.52 -10 18 C-6.7 18 -3.4 18 0 18 C0 12.06 0 6.12 0 0 Z " fill="#000000" transform="translate(853,304)"/>
<path d="M0 0 C11.55 0 23.1 0 35 0 C35 50.16 35 100.32 35 152 C23.45 152 11.9 152 0 152 C0 101.84 0 51.68 0 0 Z " fill="#000000" transform="translate(905,471)"/>
<path d="M0 0 C0 11.55 0 23.1 0 35 C-7.425 35.99 -7.425 35.99 -15 37 C-18.34564548 41.46086064 -18.38481406 42.60702592 -18.43237305 47.97167969 C-18.4425647 48.6647673 -18.45275635 49.35785492 -18.46325684 50.07194519 C-18.49337191 52.35533751 -18.5026501 54.63831023 -18.51171875 56.921875 C-18.52856661 58.50800977 -18.54671701 60.0941312 -18.56611633 61.68023682 C-18.61361111 65.84930248 -18.64342369 70.01831403 -18.66955566 74.18756104 C-18.70460729 79.19290982 -18.76161851 84.19805082 -18.81494904 89.20323181 C-18.89345693 96.80212824 -18.94406645 104.40075281 -19 112 C-30.55 112 -42.1 112 -54 112 C-54 75.37 -54 38.74 -54 1 C-42.45 1 -30.9 1 -19 1 C-18.505 2.98 -18.505 2.98 -18 5 C-17.236875 4.360625 -16.47375 3.72125 -15.6875 3.0625 C-10.18771948 -1.1582618 -7.92349036 0 0 0 Z " fill="#000000" transform="translate(839,321)"/>
<path d="M0 0 C0 11.55 0 23.1 0 35 C-7.425 35.99 -7.425 35.99 -15 37 C-18.34564548 41.46086064 -18.38481406 42.60702592 -18.43237305 47.97167969 C-18.4425647 48.6647673 -18.45275635 49.35785492 -18.46325684 50.07194519 C-18.49337191 52.35533751 -18.5026501 54.63831023 -18.51171875 56.921875 C-18.52856661 58.50800977 -18.54671701 60.0941312 -18.56611633 61.68023682 C-18.61361111 65.84930248 -18.64342369 70.01831403 -18.66955566 74.18756104 C-18.70460729 79.19290982 -18.76161851 84.19805082 -18.81494904 89.20323181 C-18.89345693 96.80212824 -18.94406645 104.40075281 -19 112 C-30.55 112 -42.1 112 -54 112 C-54 75.37 -54 38.74 -54 1 C-42.45 1 -30.9 1 -19 1 C-18.505 2.98 -18.505 2.98 -18 5 C-17.236875 4.360625 -16.47375 3.72125 -15.6875 3.0625 C-10.18771948 -1.1582618 -7.92349036 0 0 0 Z " fill="#000000" transform="translate(1264,130)"/>
<path d="M0 0 C11.55 0 23.1 0 35 0 C35 36.63 35 73.26 35 111 C23.45 111 11.9 111 0 111 C0 74.37 0 37.74 0 0 Z " fill="#000000" transform="translate(1257,512)"/>
<path d="M0 0 C11.55 0 23.1 0 35 0 C35 36.63 35 73.26 35 111 C23.45 111 11.9 111 0 111 C0 74.37 0 37.74 0 0 Z " fill="#000000" transform="translate(953,512)"/>
<path d="M0 0 C11.55 0 23.1 0 35 0 C35 36.63 35 73.26 35 111 C23.45 111 11.9 111 0 111 C0 74.37 0 37.74 0 0 Z " fill="#000000" transform="translate(857,512)"/>
<path d="M0 0 C11.55 0 23.1 0 35 0 C35 36.63 35 73.26 35 111 C23.45 111 11.9 111 0 111 C0 74.37 0 37.74 0 0 Z " fill="#000000" transform="translate(913,322)"/>
<path d="M0 0 C5.33275192 3.78483809 9.00491108 8.81411534 10.1875 15.3125 C11.3070673 29.72004639 7.45653613 40.89452002 -1.33203125 52.28125 C-9.95102084 61.84392458 -22.83575605 65.52632294 -35.25 66.2890625 C-40.60643402 66.3243022 -45.97202823 65.73273589 -50.8125 63.3125 C-50.16084578 59.1671881 -48.7677135 55.71911089 -47.08984375 51.8828125 C-44.4606815 45.5874623 -42.64356481 39.24932288 -41.06640625 32.6171875 C-40.7325441 31.22273407 -40.7325441 31.22273407 -40.39193726 29.80010986 C-39.47893179 25.95007685 -38.57990295 22.09747695 -37.71069336 18.23730469 C-37.06167982 15.37850357 -36.37907094 12.52940021 -35.69140625 9.6796875 C-35.505746 8.81197723 -35.32008575 7.94426697 -35.12879944 7.05026245 C-33.82568567 1.76777954 -32.25622469 -0.87896296 -27.63316345 -3.82540894 C-18.47073089 -8.16385558 -8.20399799 -5.0097625 0 0 Z " fill="#000000" transform="translate(408.8125,325.6875)"/>
<path d="M0 0 C6.93560017 -0.40784728 13.86809384 -0.68666004 20.81298828 -0.87890625 C23.17093356 -0.95906669 25.52809065 -1.06804599 27.88330078 -1.20703125 C46.81116288 -2.29548336 46.81116288 -2.29548336 51.96514893 1.41461182 C55.29447246 5.08892191 57.24277816 9.32775324 59.09832764 13.8848877 C60.4473345 17.04934202 62.21808379 19.82346827 64.0390625 22.7421875 C65.23691248 24.78497252 66.43228294 26.82921379 67.625 28.875 C68.24761719 29.93074219 68.87023437 30.98648437 69.51171875 32.07421875 C70.09824219 33.07839844 70.68476563 34.08257812 71.2890625 35.1171875 C71.81193848 36.01034668 72.33481445 36.90350586 72.87353516 37.82373047 C74 40 74 40 74 42 C72.49373047 42.63615234 72.49373047 42.63615234 70.95703125 43.28515625 C47.92590993 52.65142682 47.92590993 52.65142682 31 70 C30.34 70 29.68 70 29 70 C24.34749 59.16545503 19.70314917 48.32743088 15.06451416 37.48693848 C14.01551813 35.03625374 12.9656121 32.58596059 11.91552734 30.13574219 C10.27137831 26.29837251 8.63112109 22.45936091 6.99371338 18.61911011 C6.37319447 17.16538279 5.7514097 15.71219514 5.12835693 14.259552 C4.26057759 12.235655 3.39730608 10.20989392 2.53515625 8.18359375 C2.044104 7.03431396 1.55305176 5.88503418 1.04711914 4.70092773 C0 2 0 2 0 0 Z M56.9375 37 C55.83728516 37.8353125 55.83728516 37.8353125 54.71484375 38.6875 C54.14894531 39.120625 53.58304687 39.55375 53 40 C53.99 41.32 54.98 42.64 56 44 C58.97 42.68 61.94 41.36 65 40 C63.515 37.03 63.515 37.03 62 34 C60.04848373 34 58.41931253 35.87099998 56.9375 37 Z M42 42 C39.28162429 43.45185353 39.28162429 43.45185353 36.375 45.4375 C35.37210937 46.09621094 34.36921875 46.75492187 33.3359375 47.43359375 C32.17964844 48.20896484 32.17964844 48.20896484 31 49 C31.57452746 52.93075644 31.57452746 52.93075644 34 56 C37.96 53.69 41.92 51.38 46 49 C45.34 47.02 44.68 45.04 44 43 C43.34 42.67 42.68 42.34 42 42 Z " fill="#000000" transform="translate(314,442)"/>
<path d="M0 0 C0.78057242 8.93321769 0.78057242 8.93321769 -1.875 12.5625 C-2.90625 13.366875 -3.9375 14.17125 -5 15 C-15.52076053 23.22312599 -15.52076053 23.22312599 -20.3125 34.9375 C-20.209375 35.948125 -20.10625 36.95875 -20 38 C-15.11212973 37.58103969 -13.3285869 35.41618129 -10 32 C-9.01 32 -8.02 32 -7 32 C-11.46812911 65.74708901 -11.46812911 65.74708901 -21 74 C-24.125 75.25 -24.125 75.25 -27 75 C-31.91320598 71.82086672 -34.18105235 65.18419777 -35.59375 59.69140625 C-37.60965464 46.33603803 -35.83338708 34.52959797 -27.8828125 23.3828125 C-9.40655738 0 -9.40655738 0 0 0 Z " fill="#000000" transform="translate(369,304)"/>
<path d="M0 0 C3.5625 1.625 3.5625 1.625 6 4 C7.36125 5.299375 7.36125 5.299375 8.75 6.625 C12.2463502 11.10575948 13.1383151 16.55469659 12.9140625 22.140625 C11.88375662 27.95612929 8.31246651 32.12423896 4 36 C-1.2342614 39.47817803 -8.01272559 38.6429288 -14 38 C-18.62004939 36.41759776 -21.75894594 33.81042294 -24.4375 29.75 C-27.22579511 23.99914134 -27.65419905 18.37044472 -25.875 12.25 C-21.33853546 0.41395162 -11.38313817 -1.19188153 0 0 Z " fill="#000000" transform="translate(1281,470)"/>
<path d="M0 0 C3.5625 1.625 3.5625 1.625 6 4 C7.36125 5.299375 7.36125 5.299375 8.75 6.625 C12.2463502 11.10575948 13.1383151 16.55469659 12.9140625 22.140625 C11.88375662 27.95612929 8.31246651 32.12423896 4 36 C-1.2342614 39.47817803 -8.01272559 38.6429288 -14 38 C-18.62004939 36.41759776 -21.75894594 33.81042294 -24.4375 29.75 C-27.22579511 23.99914134 -27.65419905 18.37044472 -25.875 12.25 C-21.33853546 0.41395162 -11.38313817 -1.19188153 0 0 Z " fill="#000000" transform="translate(977,470)"/>
<path d="M0 0 C3.5625 1.625 3.5625 1.625 6 4 C7.36125 5.299375 7.36125 5.299375 8.75 6.625 C12.2463502 11.10575948 13.1383151 16.55469659 12.9140625 22.140625 C11.88375662 27.95612929 8.31246651 32.12423896 4 36 C-1.2342614 39.47817803 -8.01272559 38.6429288 -14 38 C-18.62004939 36.41759776 -21.75894594 33.81042294 -24.4375 29.75 C-27.22579511 23.99914134 -27.65419905 18.37044472 -25.875 12.25 C-21.33853546 0.41395162 -11.38313817 -1.19188153 0 0 Z " fill="#000000" transform="translate(881,470)"/>
<path d="M0 0 C3.5625 1.625 3.5625 1.625 6 4 C7.36125 5.299375 7.36125 5.299375 8.75 6.625 C12.2463502 11.10575948 13.1383151 16.55469659 12.9140625 22.140625 C11.88375662 27.95612929 8.31246651 32.12423896 4 36 C-1.2342614 39.47817803 -8.01272559 38.6429288 -14 38 C-18.62004939 36.41759776 -21.75894594 33.81042294 -24.4375 29.75 C-27.22579511 23.99914134 -27.65419905 18.37044472 -25.875 12.25 C-21.33853546 0.41395162 -11.38313817 -1.19188153 0 0 Z " fill="#000000" transform="translate(937,280)"/>
<path d="M0 0 C0.96099609 0.00451172 1.92199219 0.00902344 2.91210938 0.01367188 C5.25397422 0.02532294 7.59570181 0.04167975 9.9375 0.0625 C9.9375 0.7225 9.9375 1.3825 9.9375 2.0625 C9.19290527 2.19301758 8.44831055 2.32353516 7.68115234 2.45800781 C-11.91140038 5.82470059 -11.91140038 5.82470059 -31.0625 11.0625 C-26.73354367 12.1674434 -22.40332872 13.21937824 -18.0390625 14.17578125 C1.67229611 18.55345174 1.67229611 18.55345174 7.9375 23.0625 C8.4325 24.0525 8.4325 24.0525 8.9375 25.0625 C8.28048096 25.18149658 7.62346191 25.30049316 6.9465332 25.4230957 C5.00407558 25.77550739 3.06178843 26.12885935 1.11962891 26.48291016 C-0.90634831 26.85191966 -2.93267956 27.21899445 -4.95947266 27.58349609 C-19.44140163 30.21500758 -33.3042093 33.66446536 -47.21264648 38.49926758 C-49.0625 39.0625 -49.0625 39.0625 -51.0625 39.0625 C-52.70154782 35.78440436 -52.64552685 32.1089843 -53 28.5 C-53.65004209 22.22703167 -54.47658043 16.17961836 -56.0625 10.0625 C-47.34831668 7.09286211 -38.66083928 4.60880176 -29.625 2.8125 C-28.80999023 2.64975586 -27.99498047 2.48701172 -27.15527344 2.31933594 C-18.04990446 0.57528194 -9.26896745 -0.08385287 0 0 Z M-49.0625 16.0625 C-48.4025 21.0125 -47.7425 25.9625 -47.0625 31.0625 C-40.01199964 30.37631992 -33.30397703 28.77106001 -26.4375 27.0625 C-24.23745611 26.51889941 -22.03694862 25.97717099 -19.8359375 25.4375 C-18.38840088 25.07785156 -18.38840088 25.07785156 -16.91162109 24.7109375 C-13.97478333 24.04253638 -11.03746652 23.52924775 -8.0625 23.0625 C-13.16495852 17.2062692 -22.77797182 17.62112495 -30.0625 16.9375 C-30.90039062 16.85113281 -31.73828125 16.76476562 -32.6015625 16.67578125 C-38.11405312 16.13818542 -43.52434264 15.98434052 -49.0625 16.0625 Z " fill="#000000" transform="translate(180.0625,301.9375)"/>
<path d="M0 0 C1.9375 1.625 1.9375 1.625 3 4 C2.87419277 9.78713248 0.30057071 13.5521021 -3.5859375 17.6875 C-9.0786692 22.87894262 -18.18320798 30 -26 30 C-24.70908748 18.61299552 -21.98325129 10.71187183 -12.9140625 3.375 C-8.73996545 0.37646497 -5.14167329 -0.67065304 0 0 Z " fill="#000000" transform="translate(412,250)"/>
</svg>
