<?xml version="1.0" encoding="UTF-8"?>
<svg version="1.1" xmlns="http://www.w3.org/2000/svg" width="1137" height="205">
<path d="M0 0 C0.81118632 0.18552933 1.62237265 0.37105865 2.45814037 0.56221008 C3.34859365 0.76413971 4.23904694 0.96606934 5.15648365 1.17411804 C9.11494329 2.1692013 13.03252893 3.25776746 16.94182873 4.43061829 C17.79035915 4.68129059 18.63888958 4.93196289 19.51313305 5.19023132 C22.28333775 6.00970332 25.05165963 6.83534973 27.82000256 7.66108704 C29.76180547 8.23675868 31.7037275 8.81202869 33.64576244 9.38691711 C38.7355354 10.89472488 43.82374442 12.407743 48.91161633 13.92195129 C54.08396486 15.46039134 59.25767632 16.99423273 64.43133068 18.52827454 C70.25000792 20.2536814 76.06855896 21.97949835 81.8859663 23.70918274 C82.77171337 23.97244354 83.65746044 24.23570435 84.57004833 24.50694275 C86.21181785 24.99497678 87.85350295 25.48329496 89.4950819 25.9719696 C90.93889814 26.40107524 92.38318484 26.82860233 93.82802582 27.2542448 C95.16386648 27.64894695 96.4981389 28.04899791 97.83073997 28.45450306 C102.01182551 29.70394782 104.60862777 30.16505688 108.83953381 28.84858704 C111.59747379 27.30590232 114.12877237 25.49998006 116.68719006 23.64936829 C118.19407101 22.59493084 119.70124115 21.54090658 121.20867443 20.48725891 C123.56572816 18.82118047 125.91837402 17.14939183 128.2655592 15.46943665 C130.54115714 13.84678892 132.83155987 12.24710097 135.12469006 10.64936829 C135.8237698 10.13908585 136.52284954 9.62880341 137.24311352 9.10305786 C139.08194363 7.83054534 140.77854732 6.71578863 142.83953381 5.84858704 C145.55120373 6.36030579 145.55120373 6.36030579 147.83953381 7.84858704 C148.55528576 8.31095764 149.27103771 8.77332825 150.00847912 9.24971008 C150.72100842 9.78120667 151.43353771 10.31270325 152.16765881 10.86030579 C153.36842052 11.75072571 153.36842052 11.75072571 154.59344006 12.65913391 C155.41715099 13.27852844 156.24086193 13.89792297 157.08953381 14.53608704 C157.89777599 15.13614563 158.70601818 15.73620422 159.53875256 16.35444641 C161.16886107 17.56855123 162.78889518 18.79629859 164.39861584 20.03730774 C166.81600251 21.88532827 166.81600251 21.88532827 169.43279552 23.44697571 C175.39377699 27.32754762 175.39377699 27.32754762 176.56023693 31.30781555 C176.78005936 34.5116165 176.66282735 37.58034147 176.46453381 40.78608704 C176.40537014 42.75202537 176.3463793 44.71797067 176.29052258 46.68400574 C176.21881055 48.97317299 176.1261935 51.2609268 176.03191662 53.54927063 C175.65679335 63.18165364 175.56194616 72.82335588 175.40194225 82.46116638 C175.33950781 86.10010217 175.27049231 89.73885883 175.19964123 93.37763977 C174.79441848 114.5367978 174.73647145 135.68644935 174.83953381 156.84858704 C183.41953381 160.80858704 191.99953381 164.76858704 200.83953381 168.84858704 C201.10205276 156.21695694 201.36315439 143.58529965 201.62183666 130.95359039 C201.74203859 125.08670247 201.8628349 119.2198281 201.98504162 113.35298157 C202.10319645 107.67956396 202.21972204 102.00611492 202.33516979 96.3326416 C202.37925028 94.17997061 202.42389456 92.02731108 202.46914196 89.87466431 C202.59119036 84.05898677 202.69843149 78.24340697 202.78959179 72.42716599 C202.83757322 69.94981492 202.9131073 67.47470816 202.99492931 64.99827576 C203.02892501 63.55206975 203.06244723 62.1058525 203.09539318 60.65962219 C203.13386364 59.43280731 203.1723341 58.20599243 203.21197033 56.94200134 C202.77354015 53.30045145 201.8708693 52.07890878 199.18328381 49.65327454 C197.60443209 48.61993969 195.98731028 47.64303598 194.33953381 46.72358704 C192.74548178 45.72146313 191.15172977 44.71886183 189.55828381 43.71577454 C188.77582287 43.25010071 187.99336193 42.78442688 187.18719006 42.30464172 C183.55987811 40.05492371 180.20079241 37.47384591 176.83953381 34.84858704 C177.97267097 31.44917555 178.59775049 31.03968604 181.45379162 29.08955383 C182.21838696 28.56278549 182.98298229 28.03601715 183.77074718 27.49328613 C185.01909344 26.65402336 185.01909344 26.65402336 186.29265881 25.79780579 C187.14503124 25.22021011 187.99740368 24.64261444 188.87560558 24.04751587 C190.6817762 22.82865716 192.49097039 21.61426887 194.30291271 20.40400696 C197.07713698 18.54439684 199.83126157 16.65736476 202.58562756 14.76850891 C204.34097197 13.58903738 206.09744642 12.41124552 207.85515881 11.23530579 C208.67929272 10.66567612 209.50342663 10.09604645 210.35253429 9.50915527 C216.10909252 5.72424845 216.10909252 5.72424845 219.63054943 6.32368469 C220.35951427 6.82690247 221.08847912 7.33012024 221.83953381 7.84858704 C222.55528576 8.31095764 223.27103771 8.77332825 224.00847912 9.24971008 C224.72100842 9.78120667 225.43353771 10.31270325 226.16765881 10.86030579 C226.96816662 11.45391907 227.76867443 12.04753235 228.59344006 12.65913391 C229.41715099 13.27852844 230.24086193 13.89792297 231.08953381 14.53608704 C231.89777599 15.13614563 232.70601818 15.73620422 233.53875256 16.35444641 C235.98187181 18.17408163 238.41692185 20.00168666 240.83953381 21.84858704 C241.59081051 22.27604721 242.34208721 22.70350739 243.11612988 23.1439209 C246.96448389 25.56872336 249.43432849 27.31169879 250.62502575 31.82785034 C250.88197302 35.54226693 250.85158513 39.15495523 250.71844006 42.87593079 C250.70162996 44.23351806 250.6888301 45.59116037 250.67985058 46.94882202 C250.64566888 50.50295272 250.55744314 54.05371279 250.45751476 57.60652161 C250.36503759 61.23948059 250.32425685 64.87299061 250.27898693 68.50679016 C250.18279146 75.62209214 250.02942597 82.73511828 249.83953381 89.84858704 C255.04055244 84.6707181 260.23888287 79.49016651 265.43377876 74.30615425 C267.84594766 71.89920841 270.25903981 69.49320348 272.6742506 67.08930969 C275.44955075 64.32693293 278.22082068 61.56053315 280.99187756 58.79389954 C281.86166744 57.92927094 282.73145733 57.06464233 283.62760448 56.17381287 C284.42835903 55.37313385 285.22911358 54.57245483 286.05413342 53.74751282 C287.11669605 52.6882811 287.11669605 52.6882811 288.2007246 51.60765076 C289.91437577 49.93429973 289.91437577 49.93429973 290.83953381 47.84858704 C290.05320568 47.63073547 289.26687756 47.41288391 288.45672131 47.18843079 C283.6561418 45.41024637 279.38926208 42.96663417 274.96453381 40.41108704 C274.08539318 39.92059875 273.20625256 39.43011047 272.30047131 38.92475891 C271.47031506 38.44716125 270.64015881 37.9695636 269.78484631 37.47749329 C269.02703869 37.04509338 268.26923107 36.61269348 267.48845959 36.16719055 C266.94431408 35.73205139 266.40016857 35.29691223 265.83953381 34.84858704 C265.83953381 33.85858704 265.83953381 32.86858704 265.83953381 31.84858704 C268.01995373 30.16621399 268.01995373 30.16621399 271.07000256 28.33686829 C272.74159435 27.32269836 272.74159435 27.32269836 274.44695568 26.28804016 C275.64012005 25.57872766 276.83348015 24.86974429 278.02703381 24.16108704 C279.74125187 23.12876787 281.45361814 22.09342304 283.16598034 21.05802917 C284.31300687 20.36730903 285.46234245 19.68040932 286.61391735 18.99729919 C289.58634765 17.23143239 292.51195685 15.42251176 295.39275646 13.51020813 C295.96955654 13.13421982 296.54635662 12.75823151 297.14063549 12.37084961 C298.73325634 11.32844642 300.31473772 10.26908096 301.89544201 9.20869446 C305.48359378 7.55104511 307.092875 7.72089671 310.83953381 8.84858704 C313.10955334 9.98774719 313.10955334 9.98774719 315.22234631 11.38764954 C315.99707287 11.88522766 316.77179943 12.38280579 317.57000256 12.89546204 C319.17539418 13.95350154 320.77954924 15.01341956 322.38250256 16.07514954 C323.15465099 16.57014954 323.92679943 17.06514954 324.72234631 17.57514954 C325.41731213 18.03486145 326.11227795 18.49457336 326.82830334 18.96821594 C328.76779292 19.98441945 328.76779292 19.98441945 330.76543713 19.81123352 C333.99880302 18.31053765 334.53459128 15.48906732 336.03631115 12.32661438 C338.15502087 8.80345656 340.15691846 6.3461639 344.19140911 5.15309906 C351.65895883 4.17000174 359.19898835 4.78368819 366.69109631 5.20014954 C369.153166 5.28931228 371.61545233 5.37266436 374.07790661 5.45048523 C380.55603539 5.67108468 387.02809704 5.9714157 393.50213146 6.28834534 C400.04897684 6.59440935 406.59846001 6.82325468 413.14812756 7.05952454 C431.72294455 7.75080625 450.30052823 8.47598781 468.83953381 9.84858704 C468.16069604 13.66129909 467.3418231 15.96663686 464.99578381 19.07124329 C464.40797131 19.85821594 463.82015881 20.6451886 463.21453381 21.45600891 C462.59578381 22.26618469 461.97703381 23.07636047 461.33953381 23.91108704 C460.75172131 24.6941925 460.16390881 25.47729797 459.55828381 26.28413391 C458.3273026 27.92234704 457.07705228 29.54622138 455.80999279 31.1566925 C453.73880168 33.87398237 453.73880168 33.87398237 451.98040295 37.15376282 C449.84404237 40.69129181 448.05209323 43.23455376 444.83953381 45.84858704 C438.82964005 47.02551516 433.30475524 46.36773803 427.27703381 45.59858704 C425.68058777 45.44174549 424.08356628 45.29064909 422.48601818 45.14546204 C418.59405406 44.77922141 414.71814901 44.3356793 410.83953381 43.84858704 C410.84738903 45.38168518 410.84738903 45.38168518 410.85540295 46.945755 C410.95169801 67.69848125 410.83074623 88.42540802 410.26806164 109.17121887 C409.83909923 125.07285907 409.75918262 140.9390516 409.83953381 156.84858704 C417.42953381 160.47858704 425.01953381 164.10858704 432.83953381 167.84858704 C433.49953381 166.19858704 434.15953381 164.54858704 434.83953381 162.84858704 C435.73445722 161.29313686 436.67065755 159.76092333 437.64031506 158.25093079 C438.19831799 157.37783264 438.75632092 156.5047345 439.33123302 155.60517883 C439.93209728 154.67487854 440.53296154 153.74457825 441.15203381 152.78608704 C442.09200207 151.32006042 442.09200207 151.32006042 443.05095959 149.82441711 C447.60540865 142.7315072 452.19733011 135.66283733 456.80169201 128.60224915 C461.1852832 121.87494269 465.517284 115.1154343 469.83953381 108.34858704 C475.78678331 99.03938612 481.7769468 89.75973841 487.80828381 80.50483704 C490.2984525 76.6836063 492.77597083 72.85437994 495.24920177 69.02217102 C500.04805918 61.58669808 504.90125807 54.19232659 509.83953381 46.84858704 C492.56818909 41.95257906 475.19865612 37.42078913 457.83953381 32.84858704 C457.97259045 31.09223938 457.97259045 31.09223938 458.83953381 28.84858704 C461.36468029 26.92915344 461.36468029 26.92915344 464.71062756 24.95014954 C465.30698513 24.5927066 465.9033427 24.23526367 466.51777172 23.86698914 C468.43076885 22.72402135 470.35346862 21.59865937 472.27703381 20.47358704 C473.53748229 19.72473521 474.79725585 18.97474614 476.05633068 18.22358704 C477.9082631 17.11875976 479.76219765 16.01900065 481.62673473 14.93556213 C484.37314815 13.33855117 487.04735082 11.70539627 489.66424084 9.90229797 C490.49681408 9.33543274 491.32938732 8.7685675 492.18719006 8.18452454 C492.87949718 7.68227356 493.57180431 7.18002258 494.28509045 6.66255188 C501.31349861 4.4229731 511.20154461 9.45918294 517.9352293 11.63990021 C519.92670584 12.28348481 521.92033635 12.91992004 523.91479015 13.55421448 C529.57839379 15.35550106 535.24078838 17.16016477 540.89470959 18.99165344 C544.36960572 20.11671758 547.84923246 21.22587698 551.33249187 22.32476044 C552.65323987 22.74471255 553.97212949 23.17055756 555.28901958 23.60245514 C557.12622656 24.20431938 558.97056724 24.78427423 560.81511974 25.36323547 C561.86052929 25.69917725 562.90593884 26.03511902 563.98302746 26.38124084 C569.10597346 27.21939382 572.55432742 24.53758893 576.64812756 21.72358704 C578.00599377 20.79340759 578.00599377 20.79340759 579.39129162 19.84443665 C580.819734 18.85649109 580.819734 18.85649109 582.27703381 17.84858704 C583.74994884 16.84613953 583.74994884 16.84613953 585.25261974 15.82344055 C589.60929813 12.84423084 593.91457882 9.84919278 598.04656506 6.56343079 C598.96127575 5.85090149 598.96127575 5.85090149 599.89446545 5.12397766 C601.4734518 3.87770872 603.02493376 2.59680933 604.57390881 1.31343079 C608.12816547 -0.28088291 608.83907312 -0.21094574 612.46468639 0.59388733 C613.35286682 0.7910157 614.24104725 0.98814407 615.15614223 1.19124603 C619.17242045 2.17509959 623.13966222 3.28009428 627.1027174 4.4589386 C627.9693803 4.7129393 628.83604321 4.96694 629.72896862 5.2286377 C632.5665295 6.06138647 635.40224834 6.90022818 638.23797131 7.73921204 C640.23832275 8.32768797 642.23878256 8.91579567 644.2393446 9.5035553 C649.49674095 11.04930551 654.75257344 12.60030906 660.00811291 14.15235901 C664.24771622 15.40348343 668.48836872 16.65102743 672.72909641 17.8983345 C691.7800537 23.50175138 710.82395018 29.12612265 729.83953381 34.84858704 C729.99207119 59.09038457 729.75828845 83.32564499 729.43381405 107.56498718 C729.40230483 109.95304657 729.37220619 112.3411199 729.34249401 114.72920227 C729.1325436 131.45214178 728.89452342 148.1525674 727.83953381 164.84858704 C682.40996734 187.05591408 682.40996734 187.05591408 668.48406506 193.63374329 C665.43537146 195.0749553 662.41695639 196.5610294 659.41375256 198.09468079 C658.72877697 198.43652405 658.04380138 198.77836731 657.33806896 199.13056946 C655.5833006 200.00795364 653.83779034 200.90379383 652.09344006 201.80171204 C644.41569854 204.27186177 636.53824546 200.61148838 629.26140881 198.06733704 C628.17241283 197.69379089 627.08341686 197.32024475 625.96142101 196.93537903 C622.50156299 195.74707476 619.04547 194.54824382 615.58953381 193.34858704 C612.11861272 192.15107119 608.64695251 190.95573521 605.17479992 189.76179504 C603.01925789 189.019796 600.86456117 188.2753357 598.71081066 187.52815247 C597.73589672 187.19110291 596.76098278 186.85405334 595.75652599 186.50679016 C594.90129345 186.2100238 594.04606091 185.91325745 593.16491222 185.60749817 C588.78303498 183.93278992 588.78303498 183.93278992 584.46111584 184.95674133 C583.59857189 185.5230426 582.73602795 186.08934387 581.84734631 186.67280579 C580.89472912 187.28962219 579.94211193 187.9064386 578.96062756 188.54194641 C577.97191662 189.20001282 576.98320568 189.85807922 575.96453381 190.53608704 C574.49306896 191.49418274 574.49306896 191.49418274 572.99187756 192.47163391 C567.91543071 195.74844274 567.91543071 195.74844274 562.98308849 199.23384094 C560.73898809 200.90148177 559.30904323 201.84083936 556.47234631 201.88764954 C552.64585747 200.37749222 549.22482343 198.35618234 545.71453381 196.22358704 C545.01844006 195.80979797 544.32234631 195.39600891 543.60515881 194.96968079 C542.1834231 194.11922434 540.77181273 193.2515859 539.37143993 192.36639404 C536.83505753 190.79420937 536.83505753 190.79420937 534.02015209 189.48739624 C526.42038483 185.50328152 526.42038483 185.50328152 524.87432384 181.09895325 C524.56522438 177.72653569 524.60074339 174.51632968 524.76531506 171.13374329 C524.78866169 169.31742653 524.78866169 169.31742653 524.81247997 167.4644165 C524.87388977 163.61021684 525.01184088 159.76314616 525.15203381 155.91108704 C525.20722754 153.29335036 525.25741467 150.675503 525.30242443 148.05757141 C525.4234718 141.65215891 525.60733316 135.25088207 525.83953381 128.84858704 C501.52100296 125.56708647 501.52100296 125.56708647 479.37908459 132.26899719 C474.15870866 137.7368189 471.23936003 144.92363191 468.87469006 152.00190735 C467.82721666 154.8824592 466.42665058 157.23843559 464.83953381 159.84858704 C464.83953381 160.50858704 464.83953381 161.16858704 464.83953381 161.84858704 C481.17453381 166.30358704 481.17453381 166.30358704 497.83953381 170.84858704 C498.16953381 172.16858704 498.49953381 173.48858704 498.83953381 174.84858704 C492.94562542 180.2566635 486.95347181 185.48601605 480.71453381 190.49311829 C478.64821743 192.18603782 476.6427963 193.89594181 474.65203381 195.67280579 C474.12013439 196.13952698 473.58823498 196.60624817 473.0402174 197.08711243 C471.5403537 198.40687164 470.05286944 199.74066044 468.56609631 201.07514954 C465.83953381 202.84858704 465.83953381 202.84858704 463.63762951 202.67988586 C460.01066127 201.60233357 456.7160086 200.00723917 453.34344006 198.32124329 C452.276693 197.79777565 452.276693 197.79777565 451.1883955 197.26373291 C448.92352175 196.15167463 446.66251156 195.0320508 444.40203381 193.91108704 C442.1447964 192.79440437 439.88673864 191.67951264 437.62638378 190.56915283 C436.22316791 189.87961516 434.82174183 189.18641906 433.42243481 188.48898315 C426.8965905 184.79882189 426.8965905 184.79882189 419.88006115 184.41255188 C419.3175465 184.79105286 418.75503185 185.16955383 418.17547131 185.55952454 C417.53384045 185.97677795 416.89220959 186.39403137 416.23113537 186.82392883 C415.23291759 187.51675964 415.23291759 187.51675964 414.21453381 188.22358704 C413.51811779 188.68096252 412.82170177 189.13833801 412.10418224 189.60957336 C408.788208 191.79807079 405.52684601 194.0627992 402.26922131 196.33686829 C401.21992443 197.06261047 400.17062756 197.78835266 399.08953381 198.53608704 C398.16656506 199.19995422 397.24359631 199.86382141 396.29265881 200.54780579 C393.83953381 201.84858704 393.83953381 201.84858704 392.01629162 201.63447571 C389.23892685 200.6317461 387.02498389 199.19982603 384.55828381 197.57514954 C383.55152599 196.91514954 382.54476818 196.25514954 381.50750256 195.57514954 C380.46207287 194.88163391 379.41664318 194.18811829 378.33953381 193.47358704 C377.29410412 192.78780579 376.24867443 192.10202454 375.17156506 191.39546204 C372.38384285 189.56077675 369.5990561 187.72542841 366.83953381 185.84858704 C366.13393322 185.48150131 365.42833263 185.11441559 364.70135021 184.73620605 C362.83953381 182.84858704 362.83953381 182.84858704 362.42583752 179.40283203 C362.44590258 177.91646838 362.48877751 176.43032072 362.54851818 174.94502258 C362.56548496 174.11531543 362.58245174 173.28560827 362.59993267 172.43075848 C362.64034014 170.57663497 362.69014228 168.72270017 362.74770641 166.86903 C362.84339575 163.72155768 362.91041568 160.57445638 362.97161388 157.4261322 C363.11999855 150.05192194 363.30741476 142.6788981 363.49578381 135.30561829 C363.56351339 132.59751525 363.63053019 129.8893947 363.69756603 127.18127441 C363.85505231 120.83531761 364.01491358 114.48942308 364.17568159 108.14354867 C364.35894304 100.90508228 364.53947547 93.66654857 364.71980667 86.42800868 C365.09006543 71.56812596 365.46366031 56.70832887 365.83953381 41.84858704 C361.34153708 41.62355256 356.84664172 41.46165382 352.34466076 41.35420227 C350.81868884 41.30935384 349.29309437 41.24824366 347.76848888 41.16963196 C339.34818437 40.74682047 333.3183658 40.61332019 326.48601818 46.18452454 C324.90423444 47.7056695 323.35086432 49.25742335 321.83953381 50.84858704 C320.67007607 51.91947453 319.49495946 52.98431125 318.30828381 54.03608704 C317.31635872 54.97110899 316.32673689 55.90858092 315.33953381 56.84858704 C310.61605639 61.2800064 305.74384571 65.42230475 300.68719006 69.47358704 C296.67761911 72.8176462 292.87426037 76.36948013 289.07781506 79.95210266 C285.03522927 83.7507393 285.03522927 83.7507393 282.83953381 84.84858704 C283.44284638 88.05520443 284.47107962 89.97563183 286.50750256 92.50874329 C287.06381359 93.21007385 287.62012463 93.91140442 288.19329357 94.63398743 C288.79842785 95.3854303 289.40356213 96.13687317 290.02703381 96.91108704 C295.10874172 103.32613053 300.07522267 109.80200597 304.90203381 116.41108704 C310.85083239 124.53794679 316.92847593 132.55557909 323.06658459 140.53999329 C328.43323114 147.52801447 333.77358427 154.53584789 339.09539318 161.55805969 C340.60735745 163.54367682 342.13353436 165.51681399 343.66765881 167.48530579 C344.40500256 168.4508136 345.14234631 169.41632141 345.90203381 170.41108704 C346.81662365 171.58864563 346.81662365 171.58864563 347.74969006 172.78999329 C348.83953381 174.84858704 348.83953381 174.84858704 348.67937756 176.78340149 C347.53300711 179.60233976 346.06899031 180.36223415 343.49187756 181.95014954 C342.58324963 182.51846497 341.6746217 183.0867804 340.73845959 183.6723175 C339.76118908 184.26673645 338.78391857 184.8611554 337.77703381 185.47358704 C336.7894508 186.08734192 335.80186779 186.7010968 334.78435802 187.33345032 C332.7727997 188.58241884 330.75814234 189.82640998 328.74041271 191.06538391 C325.33806147 193.15684776 321.954312 195.27686521 318.57219982 197.40083313 C315.66618683 199.22462305 312.75314767 201.03697039 309.83953381 202.84858704 C304.85839803 198.33413511 301.30258263 193.00589171 297.52703381 187.47358704 C296.09357741 185.39276324 294.65997975 183.31203676 293.22625256 181.23139954 C292.13256359 179.63860168 292.13256359 179.63860168 291.0167799 178.0136261 C287.64443736 173.11128827 284.2413751 168.23047751 280.83953381 163.34858704 C279.51515263 161.4450542 278.19093463 159.54140783 276.86687756 157.63764954 C274.10946622 153.67382859 271.35159248 149.71032984 268.59344006 145.74702454 C267.54059826 144.23398743 267.54059826 144.23398743 266.46648693 142.69038391 C265.14629976 140.79316128 263.82599838 138.89601811 262.50554943 136.99897766 C257.60543243 129.95667646 252.72302613 122.90252039 247.83953381 115.84858704 C247.83953381 129.37858704 247.83953381 142.90858704 247.83953381 156.84858704 C257.07953381 161.13858704 266.31953381 165.42858704 275.83953381 169.84858704 C274.61542266 174.7450316 273.51627561 175.13285072 269.39812756 177.82514954 C268.84299984 178.1925827 268.28787212 178.56001587 267.71592236 178.93858337 C265.91055404 180.12899649 264.09463173 181.30194784 262.27703381 182.47358704 C261.0381873 183.28123822 259.79974375 184.08950782 258.56170177 184.89839172 C256.11523007 186.49380128 253.66396639 188.08146187 251.20916271 189.66401672 C248.33812196 191.51829558 245.49659099 193.41288322 242.66375256 195.32514954 C241.26466984 196.25062248 239.86499541 197.175202 238.46453381 198.09858704 C237.54112194 198.73401428 237.54112194 198.73401428 236.59905529 199.38227844 C234.87859631 200.48921204 234.87859631 200.48921204 231.83953381 201.84858704 C228.39272119 200.7785141 225.47636107 199.13102069 222.44109631 197.20405579 C221.63156506 196.69165344 220.82203381 196.1792511 219.98797131 195.65132141 C219.15523693 195.11829407 218.32250256 194.58526672 217.46453381 194.03608704 C216.22703381 193.25394836 216.22703381 193.25394836 214.96453381 192.45600891 C213.34072233 191.42372876 211.72364046 190.38077555 210.11394787 189.32661438 C208.66606824 188.38571021 207.20043163 187.47120263 205.71355724 186.59321594 C202.07918602 184.32521246 200.94551753 183.2795875 199.90203381 179.03608704 C199.87109631 177.45827454 199.87109631 177.45827454 199.83953381 175.84858704 C188.52952167 182.54291534 177.33473876 189.36421448 166.34344006 196.57124329 C165.73645275 196.96199036 165.12946545 197.35273743 164.50408459 197.75532532 C163.03336037 198.72128353 161.60268063 199.74762129 160.17937756 200.78218079 C157.83953381 201.84858704 157.83953381 201.84858704 155.46819592 201.08052063 C152.99618941 199.92200434 150.74421496 198.66621121 148.44109631 197.20405579 C147.63156506 196.69165344 146.82203381 196.1792511 145.98797131 195.65132141 C144.73886974 194.8517804 144.73886974 194.8517804 143.46453381 194.03608704 C142.63953381 193.51466125 141.81453381 192.99323547 140.96453381 192.45600891 C138.576156 190.93768302 136.19537891 189.41704576 133.83953381 187.84858704 C132.97330883 187.41400146 132.97330883 187.41400146 132.08958435 186.97063637 C129.97356781 185.77234525 128.45586465 184.67492288 126.83953381 182.84858704 C125.86607757 179.28043128 126.06945531 175.83517296 126.22844982 172.16181946 C126.24693478 171.08463654 126.26541973 170.00745361 126.28446484 168.89762878 C126.35397018 165.33147871 126.47361366 161.76884076 126.59344006 158.20405579 C126.65142769 155.71611537 126.7062253 153.22809873 126.75797558 150.74002075 C126.88802925 144.84740864 127.04936814 138.95630978 127.22616571 133.06492835 C127.44338611 125.77023812 127.61531908 118.47455971 127.78679943 111.17866516 C127.9913931 102.55450064 128.20654341 93.93092436 128.45427895 85.30788136 C128.54175758 82.07326436 128.60887117 78.8386775 128.6747694 75.6035614 C128.75422078 72.02556228 128.92708053 68.48545105 129.23354626 64.92002869 C129.51035067 61.10202729 129.67429625 57.62096544 128.83953381 53.84858704 C125.9204181 50.5498734 122.84690135 48.62327838 118.83953381 46.84858704 C118.84175442 47.50097351 118.84397503 48.15335999 118.84626293 48.82551575 C118.87378085 57.33319236 118.89153156 65.84087379 118.90203381 74.34858704 C118.90331783 75.38126583 118.90331783 75.38126583 118.9046278 76.43480682 C118.9369337 105.91534208 118.49435077 135.37498077 117.83953381 164.84858704 C102.43817387 172.29473289 87.03011918 179.72586516 71.59344006 187.09858704 C65.06757972 190.21582517 58.54702803 193.34410168 52.02703381 196.47358704 C50.94003185 196.99517395 49.8530299 197.51676086 48.73308849 198.05415344 C47.73052013 198.53545715 46.72795177 199.01676086 45.69500256 199.51264954 C44.35925182 200.15387756 44.35925182 200.15387756 42.99651623 200.80805969 C41.60623108 201.47873262 40.22016988 202.158269 38.83953381 202.84858704 C30.64954566 202.51322114 23.3496367 199.94841895 15.65203381 197.29780579 C14.29977352 196.83765126 12.94739512 196.37784374 11.5949049 195.91836548 C8.77883488 194.95896094 5.96541545 193.9922121 3.15349865 193.02070618 C-0.45324082 191.77578183 -4.06757351 190.55471362 -7.68440723 189.3394804 C-10.47118792 188.3993242 -13.25271006 187.44433466 -16.03293324 186.48497963 C-17.3644489 186.02806693 -18.69777347 185.57639097 -20.0328722 185.13005638 C-21.89058057 184.5070882 -23.7406105 183.86136116 -25.59015369 183.21455383 C-26.64444569 182.85338974 -27.69873768 182.49222565 -28.78497791 182.12011719 C-31.16046619 180.84858704 -31.16046619 180.84858704 -32.00861073 178.70071411 C-32.05872303 178.08951218 -32.10883533 177.47831024 -32.16046619 176.84858704 C-30.73915167 175.62818013 -29.31708193 174.40864287 -27.89142323 173.1933136 C-26.69127224 172.16797361 -25.49564533 171.13731551 -24.30450916 170.10151672 C-21.24088731 167.46883483 -18.43457367 165.37483284 -14.78546619 163.59858704 C-11.84779451 161.12917452 -11.84779451 161.12917452 -12.05022144 157.92610168 C-12.15484196 156.72683044 -12.25946247 155.5275592 -12.3672533 154.29194641 C-12.42254924 153.63082603 -12.47784517 152.96970566 -12.53481674 152.28855133 C-13.17507456 144.97682221 -14.03935876 137.68609967 -14.93295956 130.40170288 C-15.23513354 127.93746764 -15.53212333 125.47265172 -15.8279314 123.00764465 C-16.56191933 116.89962288 -17.30428227 110.79262545 -18.04669666 104.68562317 C-18.67813296 99.48902157 -19.30620214 94.29203466 -19.92976665 89.09448242 C-20.22114602 86.67734068 -20.51743103 84.26083358 -20.81392384 81.84431458 C-20.99291647 80.35683603 -21.17167545 78.86932934 -21.35016346 77.38179016 C-21.50703129 76.09244568 -21.66389912 74.8031012 -21.82552052 73.47468567 C-22.15641232 69.89247403 -22.33249247 66.44274813 -22.16046619 62.84858704 C-20.57062244 61.16889954 -20.57062244 61.16889954 -18.22296619 59.97358704 C-17.32964588 59.49921204 -16.43632557 59.02483704 -15.51593494 58.53608704 C-14.40863026 57.97921204 -13.30132557 57.42233704 -12.16046619 56.84858704 C-10.67545888 56.06055489 -9.19252092 55.26861551 -7.71124744 54.47358704 C-3.54087065 52.23944103 0.64552847 50.03803297 4.83953381 47.84858704 C-1.07689495 45.54010193 -7.01812912 43.65096603 -13.12921619 41.93061829 C-14.0501305 41.66851059 -14.97104481 41.40640289 -15.91986561 41.13635254 C-18.83252043 40.30813167 -21.7464595 39.48453732 -24.66046619 38.66108704 C-26.64753239 38.09694035 -28.63451245 37.53249021 -30.62140369 36.96772766 C-35.4667692 35.59117053 -40.31329119 34.21875823 -45.16046619 32.84858704 C-44.34632355 28.76349981 -43.06992575 27.69581906 -39.59405994 25.34468079 C-38.64047596 24.69128723 -37.68689198 24.03789368 -36.70441151 23.36470032 C-35.67928455 22.67875793 -34.6541576 21.99281555 -33.59796619 21.28608704 C-32.56123768 20.57951965 -31.52450916 19.87295227 -30.45636463 19.14497375 C-28.35606795 17.71436982 -26.25272235 16.28823148 -24.14630604 14.86665344 C-20.7392996 12.56392938 -17.35271128 10.23289138 -13.96930408 7.89570618 C-2.30465619 -0.1615183 -2.30465619 -0.1615183 0 0 Z M573.83953381 34.84858704 C573.10442447 53.91446185 572.61082704 72.97147381 572.33684826 92.04951477 C572.28776181 95.46690508 572.23397303 98.88420225 572.17887974 102.30150032 C571.86676849 121.81849155 571.78822067 141.32923362 571.83953381 160.84858704 C577.44953381 163.48858704 583.05953381 166.12858704 588.83953381 168.84858704 C590.46890881 167.56983704 592.09828381 166.29108704 593.77703381 164.97358704 C595.15181896 163.89464172 595.15181896 163.89464172 596.55437756 162.79389954 C598.89962866 161.05437868 598.89962866 161.05437868 599.83953381 158.84858704 C599.60762303 155.92309814 599.30449594 153.04230952 598.94329357 150.1320343 C598.83615032 149.22947906 598.72900707 148.32692383 598.61861706 147.39701843 C598.26172465 144.40230154 597.89628189 141.40869012 597.53094006 138.41499329 C597.28230726 136.34002516 597.03426276 134.26498647 596.78678417 132.18988037 C596.13277659 126.7175651 595.47176509 121.24611923 594.80901623 115.77485657 C593.74978749 107.02017535 592.70137595 98.26419167 591.6524744 89.50826836 C591.2844358 86.44409776 590.91360546 83.38027501 590.54230785 80.3164978 C590.31654803 78.4425156 590.09083252 76.56852805 589.86516857 74.6945343 C589.7607394 73.83884354 589.65631023 72.98315277 589.54871655 72.10153198 C589.17652825 68.99834128 588.83953381 65.97721852 588.83953381 62.84858704 C598.07953381 57.89858704 607.31953381 52.94858704 616.83953381 47.84858704 C613.19737029 45.42047803 609.46614724 44.43105683 605.30437756 43.24702454 C604.46991604 43.00569794 603.63545452 42.76437134 602.77570629 42.51573181 C601.0137594 42.00734458 599.2510788 41.50149434 597.48772717 40.9980011 C594.78225269 40.22507801 592.079316 39.44374372 589.37664318 38.66108704 C587.66519779 38.168402 585.95361384 37.67619798 584.24187756 37.18452454 C583.02467274 36.83301834 583.02467274 36.83301834 581.78287792 36.47441101 C577.87379582 35.28207392 577.87379582 35.28207392 573.83953381 34.84858704 Z M22.83953381 51.84858704 C24.36687337 70.43937851 26.24105546 88.98901303 28.16350842 107.54206848 C28.48493471 110.65023113 28.80394541 113.75863991 29.12296677 116.86705017 C29.43335058 119.88869377 29.74509273 122.91019602 30.05725956 125.93165588 C30.2047461 127.36044916 30.35185584 128.78928138 30.49856281 130.21815491 C30.70274136 132.20448054 30.90891675 134.19060061 31.11516857 136.17671204 C31.2312698 137.29980774 31.34737103 138.42290344 31.46699047 139.58003235 C31.85839613 143.01407792 32.33522956 146.42945132 32.83953381 149.84858704 C31.84953381 150.15796204 31.84953381 150.15796204 30.83953381 150.47358704 C26.72347117 152.36011574 23.38076351 155.05426682 19.83953381 157.84858704 C22.70515074 159.40655308 25.33118876 160.31108453 28.51629162 160.99360657 C29.43694408 161.19366302 30.35759655 161.39371948 31.30614758 161.59983826 C32.78447063 161.91246109 32.78447063 161.91246109 34.29265881 162.23139954 C35.30801708 162.45053009 36.32337536 162.66966064 37.36950207 162.89543152 C40.60844534 163.59322883 43.84894075 164.28349631 47.08953381 164.97358704 C49.28755697 165.44574778 51.48547501 165.9183982 53.68328381 166.39155579 C59.06749413 167.54958149 64.45299768 168.70143133 69.83953381 169.84858704 C70.55836175 144.85140312 71.02850996 119.85292612 71.40203381 94.84858704 C71.4131356 94.10556965 71.4242374 93.36255226 71.43567562 92.5970192 C71.57357339 83.34758871 71.70812224 74.0981121 71.83953381 64.84858704 C65.98797906 63.15191468 60.134683 61.46143679 54.27971935 59.77656555 C52.28997596 59.20305223 50.30071079 58.62787699 48.31194592 58.05097961 C45.44609546 57.21997619 42.57855373 56.39505046 39.71062756 55.57124329 C38.82805782 55.31391922 37.94548809 55.05659515 37.03617382 54.79147339 C32.30238652 53.43853725 27.7327412 52.40839085 22.83953381 51.84858704 Z M633.83953381 51.84858704 C633.7411851 57.94752935 634.05461285 63.76463743 634.85613537 69.80561829 C635.07774805 71.55515036 635.29885576 73.30474645 635.51952648 75.05439758 C635.6945356 76.42451492 635.6945356 76.42451492 635.87308025 77.8223114 C636.61547478 83.72435024 637.29272409 89.63431059 637.98164272 95.54278564 C638.58925114 100.72188107 639.21990644 105.89619354 639.8995924 111.06636047 C640.5586691 116.0897376 641.15452046 121.11710434 641.70842266 126.15312195 C641.92986343 128.06316677 642.17398401 129.97072882 642.44153118 131.87486267 C644.467509 146.42647813 644.467509 146.42647813 641.68656445 150.5639801 C638.53045218 153.78883317 634.90582169 155.8986548 630.83953381 157.84858704 C633.67446087 159.3847069 636.27879363 160.30437992 639.42449474 160.99360657 C640.32512646 161.19366302 641.22575817 161.39371948 642.15368176 161.59983826 C643.59919415 161.91246109 643.59919415 161.91246109 645.07390881 162.23139954 C646.06707104 162.45053009 647.06023327 162.66966064 648.08349133 162.89543152 C651.25110113 163.59313291 654.42026889 164.28344706 657.58953381 164.97358704 C659.73938022 165.44575713 661.88912118 165.91840768 664.03875256 166.39155579 C669.30446927 167.54947429 674.57148365 168.70133425 679.83953381 169.84858704 C680.81093527 162.42060052 681.05182004 155.08881618 681.15594006 147.60249329 C681.17676647 146.32922684 681.19759289 145.05596039 681.21905041 143.74411011 C681.27434741 140.3341397 681.32392021 136.92410992 681.37196255 133.51403046 C681.40207361 131.40830345 681.43386158 129.30260838 681.46621227 127.19691467 C681.78482822 106.41398983 681.99386985 85.63409017 681.83953381 64.84858704 C669.74037842 61.27651614 657.63159664 57.74567298 645.46453381 54.41108704 C644.5265797 54.15246887 643.5886256 53.89385071 642.62224865 53.62739563 C641.75809338 53.39230286 640.8939381 53.15721008 640.00359631 52.91499329 C639.24514416 52.70817932 638.48669201 52.50136536 637.70525646 52.2882843 C635.83456115 51.77212464 635.83456115 51.77212464 633.83953381 51.84858704 Z M527.83953381 55.84858704 C526.48843561 57.93432491 525.18893914 60.03584588 523.90203381 62.16108704 C520.48599972 67.73221179 516.95527299 73.21622579 513.31219006 78.64155579 C512.91506313 79.23334122 512.51793621 79.82512665 512.10877514 80.43484497 C510.10806271 83.41254239 508.10034421 86.38531125 506.0858717 89.35371399 C505.32915718 90.47692233 504.57256059 91.60021014 503.81609631 92.72358704 C503.14658947 93.71100891 502.47708263 94.69843079 501.78728771 95.71577454 C499.56581865 99.28883683 497.72111287 103.0854289 495.83953381 106.84858704 C506.06953381 106.84858704 516.29953381 106.84858704 526.83953381 106.84858704 C527.47971841 103.0074794 527.96984823 99.82982908 528.04485607 96.03657532 C528.06480129 95.13609467 528.08474651 94.23561401 528.10529613 93.30784607 C528.12200863 92.35449371 528.13872112 91.40114136 528.15594006 90.41889954 C528.17672115 89.4285672 528.19750225 88.43823486 528.21891308 87.41789246 C528.28403701 84.26985786 528.3431201 81.12174337 528.40203381 77.97358704 C528.44525439 75.83295394 528.48886979 73.69232877 528.53289318 71.55171204 C528.63968008 66.31742028 528.74151392 61.08304992 528.83953381 55.84858704 C528.50953381 55.84858704 528.17953381 55.84858704 527.83953381 55.84858704 Z " fill="#1D3958" transform="translate(45.16046619415283,0.1514129638671875)"/>
<path d="M0 0 C1.27352829 0.5751384 1.27352829 0.5751384 2.57278442 1.16189575 C5.26135119 2.37724142 7.94710754 3.59865784 10.6328125 4.8203125 C12.42559867 5.63191384 14.21856608 6.44311497 16.01171875 7.25390625 C16.88346741 7.64870178 17.75521606 8.04349731 18.65338135 8.45025635 C20.37013019 9.22693559 22.08768833 10.00182873 23.80609131 10.77484131 C27.32272469 12.36131409 30.80600148 13.96949446 34.25488281 15.70019531 C35.6833252 16.41320801 35.6833252 16.41320801 37.140625 17.140625 C37.91035645 17.54555176 38.68008789 17.95047852 39.47314453 18.36767578 C44.43873461 19.62313487 48.93997136 16.43827395 53.1015625 13.96875 C54.09438232 13.38351563 55.08720215 12.79828125 56.11010742 12.1953125 C57.1488501 11.5765625 58.18759277 10.9578125 59.2578125 10.3203125 C60.32555908 9.69382812 61.39330566 9.06734375 62.4934082 8.421875 C67.11084597 5.71195169 71.71419495 2.9850616 76.26953125 0.171875 C76.90503906 -0.21274902 77.54054688 -0.59737305 78.1953125 -0.99365234 C79.82193062 -1.97988035 81.43688374 -2.98527786 83.05078125 -3.9921875 C85.7578125 -5.0546875 85.7578125 -5.0546875 88.06347656 -4.34057617 C91.04156368 -2.91926548 93.77816984 -1.29607038 96.57421875 0.45703125 C97.66798828 1.13185547 98.76175781 1.80667969 99.88867188 2.50195312 C101.6125275 3.56978249 103.33371962 4.64125654 105.04956055 5.72192383 C106.71747558 6.76980493 108.39573008 7.80117183 110.07421875 8.83203125 C111.56610718 9.76341919 111.56610718 9.76341919 113.08813477 10.71362305 C115.56362032 12.09790451 115.56362032 12.09790451 117.7097168 11.88061523 C120.69179169 10.51879274 123.44085147 8.83426037 126.2109375 7.09375 C127.48248018 6.31673751 128.7546355 5.54072686 130.02734375 4.765625 C132.0192872 3.54622795 134.00655833 2.32110089 135.98388672 1.078125 C137.90233051 -0.12395302 139.83580277 -1.29792991 141.7734375 -2.46875 C142.3539386 -2.84262848 142.9344397 -3.21650696 143.53253174 -3.60171509 C148.14147856 -6.34228278 151.72683614 -6.33249148 156.7578125 -5.0546875 C160.05279911 -4.11961539 163.27745604 -3.03132758 166.5078125 -1.89453125 C167.40653076 -1.58520157 168.30524902 -1.27587189 169.23120117 -0.95716858 C172.07599522 0.0238488 174.91689405 1.01563486 177.7578125 2.0078125 C179.69636654 2.67845179 181.6351664 3.34838096 183.57421875 4.01757812 C188.30496601 5.65195691 193.03225265 7.29599821 197.7578125 8.9453125 C197.63861783 14.86786967 197.51431778 20.79029083 197.38549805 26.71264648 C197.34246321 28.72303433 197.30076941 30.73345138 197.26049805 32.74389648 C197.20202454 35.65096808 197.13856188 38.55789682 197.07421875 41.46484375 C197.04915001 42.79054131 197.04915001 42.79054131 197.02357483 44.14302063 C196.91715693 48.73188599 196.72798865 53.31552898 196.42944336 57.89599609 C196.37501572 58.78443207 196.32058807 59.67286804 196.26451111 60.58822632 C195.50902754 64.10262294 193.6735289 65.54400585 190.79174805 67.52026367 C190.12054932 67.92865479 189.44935059 68.3370459 188.7578125 68.7578125 C188.07952393 69.20938721 187.40123535 69.66096191 186.70239258 70.1262207 C185.35519266 71.01873864 183.9982904 71.8968126 182.63134766 72.75878906 C180.18353284 74.30900798 177.82174496 75.97592179 175.4453125 77.6328125 C172.02541813 79.9453125 172.02541813 79.9453125 169.7578125 79.9453125 C173.6529705 87.22900508 177.74165864 94.34906622 182.0703125 101.3828125 C183.30106623 103.39305472 184.53152105 105.40347996 185.76171875 107.4140625 C186.73069092 108.99574219 186.73069092 108.99574219 187.71923828 110.609375 C189.85350116 114.10189812 191.97755066 117.60043622 194.09765625 121.1015625 C203.3597748 136.40882029 203.3597748 136.40882029 212.7578125 151.6328125 C213.1609668 152.27984131 213.56412109 152.92687012 213.97949219 153.59350586 C215.671005 156.42006214 215.671005 156.42006214 217.7578125 158.9453125 C218.0878125 158.0996875 218.4178125 157.2540625 218.7578125 156.3828125 C222.00806462 150.79644167 226.26863183 147.03150043 232.1953125 144.4453125 C239.29524666 143.44883051 245.01393847 144.18813743 250.9609375 148.38671875 C255.20583108 152.06870253 257.41317506 155.47795244 258.19921875 161.10546875 C258.44162577 167.91632393 258.01785936 172.56420067 253.7578125 177.9453125 C249.02852901 182.77825151 244.6664958 185.00221069 237.9453125 185.3203125 C232.77825655 185.18211487 228.87537428 184.12826711 224.7578125 180.9453125 C221.63877288 177.56805173 219.21641159 174.32110978 217.7578125 169.9453125 C213.73015968 171.21156951 210.00975022 172.69565751 206.23828125 174.58984375 C205.21541016 175.10224609 204.19253906 175.61464844 203.13867188 176.14257812 C202.08486328 176.67560547 201.03105469 177.20863281 199.9453125 177.7578125 C198.90310547 178.27923828 197.86089844 178.80066406 196.78710938 179.33789062 C191.27297478 182.11053458 185.86637517 184.95946253 180.59106445 188.16674805 C178.7578125 188.9453125 178.7578125 188.9453125 175.7578125 187.9453125 C174.47436523 185.93017578 174.47436523 185.93017578 173.19140625 183.265625 C172.71171387 182.28489014 172.23202148 181.30415527 171.73779297 180.29370117 C170.97426514 178.69812378 170.97426514 178.69812378 170.1953125 177.0703125 C169.10446395 174.83906112 168.0120002 172.60859871 166.91796875 170.37890625 C166.3780127 169.27401855 165.83805664 168.16913086 165.28173828 167.03076172 C162.94276613 162.29511128 160.47752245 157.63171055 157.97485352 152.98095703 C155.41344676 148.18677307 152.96172514 143.3494304 150.57675171 138.46565247 C149.00726749 135.25860947 147.41756768 132.06175395 145.82696533 128.86514282 C145.03597976 127.2622903 144.25421473 125.65485184 143.4821167 124.04281616 C142.38661551 121.75827662 141.25944659 119.49195996 140.125 117.2265625 C139.80430542 116.53677811 139.48361084 115.84699371 139.15319824 115.13630676 C137.3373195 111.59231451 135.87756047 109.64458477 132.10986328 108.17773438 C130.67368652 107.77103516 129.23750977 107.36433594 127.7578125 106.9453125 C124.4578125 105.9553125 121.1578125 104.9653125 117.7578125 103.9453125 C117.7578125 117.1453125 117.7578125 130.3453125 117.7578125 143.9453125 C126.22226271 148.46659056 126.22226271 148.46659056 134.69091797 152.97998047 C136.26703857 153.82520264 136.26703857 153.82520264 137.875 154.6875 C138.95378418 155.2635498 140.03256836 155.83959961 141.14404297 156.43310547 C143.7578125 157.9453125 143.7578125 157.9453125 145.7578125 159.9453125 C145.64306641 161.90161133 145.64306641 161.90161133 144.7578125 163.9453125 C142.95458984 165.3581543 142.95458984 165.3581543 140.59375 166.64453125 C139.72572754 167.12728516 138.85770508 167.61003906 137.96337891 168.10742188 C137.02929199 168.61080078 136.09520508 169.11417969 135.1328125 169.6328125 C133.21018158 170.69785529 131.28831106 171.76427188 129.3671875 172.83203125 C128.41521484 173.35716309 127.46324219 173.88229492 126.48242188 174.42333984 C122.73324043 176.51764066 119.05204446 178.71466759 115.3828125 180.9453125 C113.17753226 182.28368948 110.96935817 183.61731413 108.7578125 184.9453125 C108.16709961 185.34363281 107.57638672 185.74195313 106.96777344 186.15234375 C102.44283911 189.06976772 102.44283911 189.06976772 99.19921875 188.48046875 C96.22403961 186.60967611 93.43537908 184.57688796 90.6953125 182.3828125 C89.67308594 181.57714844 88.65085937 180.77148438 87.59765625 179.94140625 C87.03183838 179.46251953 86.46602051 178.98363281 85.88305664 178.49023438 C83.69824452 176.79623582 83.69824452 176.79623582 80.67749023 175.52539062 C76.91588697 173.50763404 73.92415762 171.65453784 71.7578125 167.9453125 C69.88207587 160.66155135 70.51690827 152.89378066 70.80062866 145.44604492 C70.94744861 141.51309122 71.01286656 137.58572372 71.05981445 133.65039062 C71.23239118 121.2367658 71.67992833 108.84159113 72.33774853 96.44451714 C72.66060558 90.33677746 72.92444762 84.22805045 73.15428638 78.11612129 C73.29863343 74.42607567 73.48327154 70.74690492 73.76034546 67.06427002 C75.58697832 52.0332685 75.58697832 52.0332685 70.85308838 38.48339844 C65.8018844 34.03803815 60.06554127 31.19276955 53.7578125 28.9453125 C53.76304932 29.97108398 53.76828613 30.99685547 53.77368164 32.05371094 C53.90273518 60.3347839 53.64724687 88.60496516 53.2578125 116.8828125 C53.23987577 118.18565437 53.23987577 118.18565437 53.22157669 119.51481628 C53.07226125 130.32505907 52.91756157 141.13521895 52.7578125 151.9453125 C37.92187002 159.85354526 22.95119547 167.488854 7.92871094 175.03491211 C5.29047421 176.36078758 2.65530212 177.692496 0.02246094 179.02905273 C-3.21102454 180.67047739 -6.44932892 182.30198974 -9.69132233 183.92654228 C-11.49533524 184.83348546 -13.2944602 185.75013077 -15.09344482 186.66700745 C-27.57218299 192.89020111 -27.57218299 192.89020111 -33.28384399 191.41966248 C-35.66443798 190.60461193 -37.95646088 189.66615431 -40.26953125 188.67578125 C-41.55738022 188.14758537 -41.55738022 188.14758537 -42.87124634 187.60871887 C-45.64748404 186.4656846 -48.41341211 185.29972426 -51.1796875 184.1328125 C-53.07810151 183.34557332 -54.97711117 182.55976901 -56.87670898 181.77539062 C-60.62190202 180.2258094 -64.36305692 178.66709619 -68.10058594 177.09912109 C-72.49712871 175.25475286 -76.90191018 173.43156496 -81.3125 171.62109375 C-89.61165317 168.20365527 -89.61165317 168.20365527 -93.37109375 166.6328125 C-94.10400635 166.32730469 -94.83691895 166.02179688 -95.59204102 165.70703125 C-97.2421875 164.9453125 -97.2421875 164.9453125 -98.2421875 163.9453125 C-98.34291258 160.92589604 -98.37832724 157.9293162 -98.37158203 154.90942383 C-98.37333435 153.95950562 -98.37508667 153.0095874 -98.37689209 152.03088379 C-98.38132176 148.86301893 -98.37836387 145.69520927 -98.375 142.52734375 C-98.37567389 140.31703175 -98.37664463 138.10671983 -98.37789917 135.89640808 C-98.37937858 131.23976951 -98.37721813 126.58315003 -98.37255859 121.92651367 C-98.36693075 116.01988816 -98.3700939 110.11330879 -98.37613106 104.20668507 C-98.3797902 99.62580536 -98.37857269 95.04493609 -98.37600327 90.46405602 C-98.37534502 88.29123618 -98.37612294 86.11841534 -98.37848282 83.94559669 C-98.38440476 76.94445776 -98.34038836 69.94576083 -98.2421875 62.9453125 C-98.23083078 61.91913944 -98.21947407 60.89296638 -98.20777321 59.83569717 C-98.16475257 56.79682672 -98.090197 53.76038045 -98.00561523 50.72241211 C-97.99494333 49.80516011 -97.98427143 48.88790812 -97.97327614 47.9428606 C-97.82308967 43.74609861 -97.69958499 41.57981069 -95.19233704 38.10177612 C-92.62122754 36.09093967 -90.20177029 34.92120015 -87.1796875 33.6953125 C-85.14094579 32.68818193 -83.10318877 31.67905564 -81.06640625 30.66796875 C-80.06399902 30.20664551 -79.0615918 29.74532227 -78.02880859 29.27001953 C-74.31347663 27.5038209 -70.9263168 25.38518089 -67.4921875 23.1328125 C-66.22953218 22.33329781 -64.96512123 21.53655083 -63.69921875 20.7421875 C-63.01424316 20.31099609 -62.32926758 19.87980469 -61.62353516 19.43554688 C-55.36217529 15.51722202 -49.07102761 11.64610206 -42.76489258 7.80029297 C-37.97454026 4.87790103 -33.20347958 1.95642111 -28.5546875 -1.1875 C-27.88445557 -1.62827881 -27.21422363 -2.06905762 -26.52368164 -2.52319336 C-24.83136302 -3.6419206 -23.15873475 -4.79028591 -21.48828125 -5.94140625 C-14.60076361 -8.30355129 -6.33436305 -2.89244688 0 0 Z M-46.2421875 30.9453125 C-46.97883121 47.40416559 -47.46955064 63.85596649 -47.74487305 80.32885742 C-47.80459843 83.87752039 -47.86977402 87.42605389 -47.93554688 90.97460938 C-48.21446886 106.63269866 -48.29819177 122.28491899 -48.2421875 137.9453125 C-41.69133456 140.97453338 -35.12534967 143.88070374 -28.3984375 146.49609375 C-27.62205933 146.79976364 -26.84568115 147.10343353 -26.04577637 147.41630554 C-24.42990009 148.04711126 -22.81340122 148.6763244 -21.19628906 149.30395508 C-18.71701235 150.26759755 -16.24129572 151.24002711 -13.765625 152.21289062 C-12.18510282 152.82865655 -10.60438092 153.44391014 -9.0234375 154.05859375 C-7.9172406 154.49441521 -7.9172406 154.49441521 -6.78869629 154.93904114 C-3.79570035 156.09318385 -1.47947676 156.9453125 1.7578125 156.9453125 C3.00992725 145.72293381 2.98022345 134.48876886 3.07421875 123.2109375 C3.09482676 121.12058131 3.11582414 119.03022893 3.13719177 116.93988037 C3.19201558 111.47545481 3.24159753 106.01099416 3.29003906 100.54650879 C3.34054653 94.95545379 3.39607892 89.36444886 3.45117188 83.7734375 C3.5582669 72.83077208 3.65981701 61.88806293 3.7578125 50.9453125 C-2.46739925 47.74937742 -8.7192952 44.79669407 -15.20703125 42.17578125 C-16.407015 41.68698235 -16.407015 41.68698235 -17.63124084 41.18830872 C-19.29996949 40.50998821 -20.96952734 39.83370417 -22.63989258 39.15942383 C-25.20093083 38.12422573 -27.75775573 37.07906932 -30.31445312 36.03320312 C-31.94506955 35.37179654 -33.57592051 34.71096784 -35.20703125 34.05078125 C-36.3507444 33.58214912 -36.3507444 33.58214912 -37.51756287 33.10404968 C-40.5684837 31.87994625 -42.92280514 30.9453125 -46.2421875 30.9453125 Z M119.7578125 31.9453125 C119.15638898 48.61402131 118.56654822 65.26281698 118.7578125 81.9453125 C121.02940939 80.65497345 123.30010875 79.36309848 125.5703125 78.0703125 C126.21291016 77.70550781 126.85550781 77.34070313 127.51757812 76.96484375 C130.32550048 75.36447349 133.06745548 73.73888384 135.7578125 71.9453125 C141.23020596 72.38310398 146.37367167 73.74883676 151.7578125 74.9453125 C151.7578125 63.3953125 151.7578125 51.8453125 151.7578125 39.9453125 C144.7109237 37.56205798 144.7109237 37.56205798 137.609375 35.55859375 C136.74957031 35.34267578 135.88976562 35.12675781 135.00390625 34.90429688 C134.13894531 34.69095703 133.27398438 34.47761719 132.3828125 34.2578125 C131.49464844 34.03287109 130.60648438 33.80792969 129.69140625 33.57617188 C128.83933594 33.36412109 127.98726562 33.15207031 127.109375 32.93359375 C125.96202881 32.64802612 125.96202881 32.64802612 124.79150391 32.35668945 C122.61355183 31.84617984 122.61355183 31.84617984 119.7578125 31.9453125 Z " fill="#1D3958" transform="translate(877.2421875,13.0546875)"/>
<path d="M0 0 C-2.36189137 26.48246693 -4.94286516 52.94415234 -7.58569336 79.39987183 C-7.94607607 83.00953536 -8.30315869 86.61950249 -8.6574707 90.22976685 C-9.08203796 94.55362093 -9.51349892 98.87673457 -9.95005417 103.19939423 C-10.11203895 104.81432398 -10.27167384 106.42949137 -10.42882156 108.04489899 C-10.64675672 110.28039366 -10.87335091 112.51485211 -11.10205078 114.74926758 C-11.22766388 116.00967361 -11.35327698 117.27007965 -11.48269653 118.56867981 C-11.99080116 121.93898329 -12.68729582 124.8551525 -14 128 C-16.42578125 129.2421875 -16.42578125 129.2421875 -19.3125 129.875 C-20.25738281 130.09929687 -21.20226563 130.32359375 -22.17578125 130.5546875 C-24.85610286 130.97731083 -27.29322499 131.16288558 -30 131 C-31.52783938 129.47216062 -31.32130418 127.94514312 -31.53785706 125.81570435 C-31.63178741 124.91308365 -31.72571777 124.01046295 -31.82249451 123.08049011 C-31.92175735 122.08213638 -32.0210202 121.08378265 -32.12329102 120.05517578 C-32.28444397 118.48675179 -32.28444397 118.48675179 -32.44885254 116.88664246 C-32.80510382 113.40664757 -33.15473339 109.92602425 -33.50390625 106.4453125 C-33.74886881 104.02926328 -33.99406538 101.61323777 -34.23948669 99.19723511 C-34.75434233 94.11811294 -35.26584984 89.03866687 -35.77514648 83.95898438 C-36.42631285 77.46766333 -37.08639787 70.97728621 -37.74914646 64.48713875 C-38.25836211 59.48933839 -38.76239255 54.49102512 -39.26493645 49.4925499 C-39.50606279 47.10113508 -39.74886592 44.70988869 -39.99341011 42.31882095 C-40.33628606 38.95931326 -40.67205822 35.59916527 -41.00610352 32.23876953 C-41.10739059 31.26065811 -41.20867767 30.28254669 -41.31303406 29.27479553 C-41.94376999 22.83096384 -42.11246258 16.47300612 -42 10 C-32.80350637 7.02233874 -23.55698137 4.2377291 -14.25 1.625 C-13.29786621 1.35026855 -12.34573242 1.07553711 -11.36474609 0.79248047 C-10.46578613 0.54385254 -9.56682617 0.29522461 -8.640625 0.0390625 C-7.84172852 -0.18571777 -7.04283203 -0.41049805 -6.21972656 -0.64208984 C-3.8164266 -1.02959949 -2.29258335 -0.75742974 0 0 Z " fill="#1D3958" transform="translate(1137,8)"/>
</svg>
