<?xml version="1.0" encoding="UTF-8"?>
<svg version="1.1" xmlns="http://www.w3.org/2000/svg" width="1727" height="633">
<path d="M0 0 C1.71937905 -0.00445668 1.71937905 -0.00445668 3.47349304 -0.0090034 C7.30589877 -0.01765925 11.13827315 -0.01919605 14.97068787 -0.02069092 C17.72269371 -0.02478639 20.4746963 -0.03032643 23.22669983 -0.03573608 C30.70067093 -0.04928686 38.17463664 -0.05534003 45.64861798 -0.05974674 C50.32571287 -0.06251664 55.00280571 -0.06675552 59.67989922 -0.07125092 C72.65665971 -0.08344304 85.63341857 -0.09374006 98.61018467 -0.09712601 C99.43995176 -0.09734557 100.26971884 -0.09756514 101.12463039 -0.09779136 C102.37210526 -0.09811878 102.37210526 -0.09811878 103.64478165 -0.09845281 C105.32975169 -0.09889626 107.01472173 -0.09934282 108.69969177 -0.09979248 C109.5354786 -0.10001391 110.37126543 -0.10023534 111.23237913 -0.10046348 C124.74109767 -0.10440199 138.24976195 -0.12182725 151.75845958 -0.145152 C165.66362863 -0.16896509 179.56877059 -0.18133249 193.47396034 -0.18249393 C201.26641828 -0.18340552 209.05880566 -0.18902563 216.85124397 -0.20731354 C223.49438323 -0.22285009 230.13743015 -0.2277566 236.78058416 -0.21957543 C240.15971982 -0.21571512 243.53852189 -0.2180583 246.91765785 -0.23063278 C266.94104553 -0.30070343 286.61207612 0.80873088 306.13645935 5.57794189 C307.03509705 5.78894531 307.93373474 5.99994873 308.85960388 6.21734619 C315.52559233 7.81971252 322.03008044 9.71643488 328.44895935 12.14044189 C328.44895935 12.80044189 328.44895935 13.46044189 328.44895935 14.14044189 C326.85786359 15.29292761 325.22359606 16.38593311 323.57395935 17.45294189 C311.12032228 26.35297044 301.27674591 41.74714877 298.72239685 56.98809814 C298.63216248 57.69837158 298.5419281 58.40864502 298.44895935 59.14044189 C298.25173279 60.3760083 298.25173279 60.3760083 298.05052185 61.63653564 C295.81109057 78.78062622 301.49043674 95.33240634 311.44895935 109.14044189 C312.0213031 109.97059814 312.59364685 110.80075439 313.18333435 111.65606689 C324.22234513 126.65779949 340.92591428 136.35079321 359.14427185 139.62481689 C377.61836508 141.64449268 393.88274505 134.97928957 408.44895935 124.14044189 C413.18622683 120.30641342 417.60823913 116.32039642 421.44895935 111.57794189 C422.10895935 110.77356689 422.76895935 109.96919189 423.44895935 109.14044189 C424.10895935 109.14044189 424.76895935 109.14044189 425.44895935 109.14044189 C428.39225234 115.9342762 430.48762607 122.5884511 432.01145935 129.82794189 C432.20675232 130.68710205 432.40204529 131.54626221 432.60325623 132.43145752 C436.45914725 150.32932301 437.90050505 168.30490968 437.83714294 186.57550049 C437.84122404 188.6005481 437.84657441 190.62559347 437.85307312 192.65063477 C437.8665647 198.07178615 437.86152593 203.49276325 437.85193586 208.91391706 C437.84424998 214.62872193 437.85140874 220.34351354 437.85609436 226.05831909 C437.8615236 235.64187251 437.85443247 245.22535614 437.84007263 254.80889893 C437.8237236 265.84662873 437.8290625 276.88419243 437.84555185 287.92191827 C437.85921446 297.45379336 437.86106396 306.98561879 437.85323584 316.51750052 C437.84858907 322.18678802 437.84785166 327.85599768 437.85784531 333.52528 C437.8665837 338.85255122 437.86036904 344.17961025 437.84316254 349.50685883 C437.8392353 351.4477033 437.8402661 353.38856599 437.84695053 355.32940292 C437.96101065 391.8444876 425.46119705 423.04324199 402.44895935 451.14044189 C401.7322406 452.02344971 401.01552185 452.90645752 400.27708435 453.81622314 C390.0997322 465.7578973 377.24455224 473.39787057 363.68284607 480.90020752 C361.76127677 481.96704599 359.85525325 483.05559507 357.9528656 484.15606689 C340.86213104 493.73815129 322.20079512 501.21201207 303.82395935 507.95294189 C302.92475769 508.28423096 302.02555603 508.61552002 301.09910583 508.95684814 C297.22209319 510.33709037 294.63922385 511.14044189 290.44895935 511.14044189 C290.40212536 503.10676596 290.36683582 495.07314932 290.34533501 487.03936958 C290.33500333 483.30689719 290.32104471 479.57451979 290.29808044 475.84210205 C290.00945239 427.61172618 290.00945239 427.61172618 308.80198669 405.13018799 C312.83994191 400.25184008 316.66892414 395.2205266 320.44895935 390.14044189 C320.98392029 389.45079346 321.51888123 388.76114502 322.0700531 388.05059814 C326.91426014 381.25145888 327.61453351 372.9340745 329.0153656 364.88653564 C330.62905207 356.12797324 332.98771904 347.74016362 335.51145935 339.20294189 C340.25449039 322.96304232 341.80028986 308.00430614 341.44895935 291.14044189 C340.74770935 291.78110596 340.04645935 292.42177002 339.32395935 293.08184814 C334.41538434 297.55692129 329.489954 302.00563059 324.4763031 306.36309814 C322.11406762 308.43403676 319.78100082 310.53557037 317.44895935 312.64044189 C314.46833214 315.3302762 311.47650702 318.00354553 308.44895935 320.64044189 C300.79218733 327.22144097 300.79218733 327.22144097 293.44895935 334.14044189 C285.96706236 334.68623377 280.15577971 333.12030103 273.13645935 330.64044189 C272.09771667 330.28603027 271.058974 329.93161865 269.98875427 329.56646729 C262.13028143 326.84477567 254.40018683 323.82831699 246.78172302 320.49200439 C243.63935826 319.16010604 241.18863334 318.14472986 237.75364685 318.12481689 C234.57479062 319.52566879 232.24244383 321.58140064 229.76145935 323.95294189 C229.24180603 324.43996582 228.72215271 324.92698975 228.18675232 325.42877197 C220.81220905 332.48507862 214.44863563 340.45485837 208.60520935 348.81231689 C208.0328656 349.46973877 208.0328656 349.46973877 207.44895935 350.14044189 C206.78895935 350.14044189 206.12895935 350.14044189 205.44895935 350.14044189 C204.98747498 348.95450439 204.5259906 347.76856689 204.05052185 346.54669189 C197.72113312 330.67952932 189.80273473 316.97762512 178.44895935 304.14044189 C177.60720154 303.17751221 176.76544373 302.21458252 175.8981781 301.22247314 C157.82640745 280.84704822 136.1005116 265.45818181 112.44895935 252.14044189 C112.44895935 251.48044189 112.44895935 250.82044189 112.44895935 250.14044189 C113.02903748 250.00509033 113.6091156 249.86973877 114.20677185 249.73028564 C121.93554523 247.60040915 125.09207514 243.87894788 129.26145935 237.26544189 C132.38494505 229.04574268 131.31235472 220.73454657 130.44895935 212.14044189 C134.93300185 213.58086934 137.61397197 215.85610692 141.01145935 219.07794189 C142.06471499 220.06636145 143.1181045 221.05463837 144.1716156 222.04278564 C144.7093158 222.5518042 145.24701599 223.06082275 145.80101013 223.58526611 C148.49500262 226.1275968 151.22141703 228.63422355 153.94895935 231.14044189 C154.90802185 232.02731689 155.86708435 232.91419189 156.85520935 233.82794189 C161.94089467 238.47363234 161.94089467 238.47363234 168.44895935 240.14044189 C171.90619027 239.56882884 171.90619027 239.56882884 175.63645935 238.51544189 C176.32699402 238.33158936 177.01752869 238.14773682 177.72898865 237.95831299 C179.20554909 237.56326323 180.68086736 237.16354616 182.15501404 236.75958252 C184.46816831 236.13525736 186.78849465 235.54897076 189.11302185 234.96856689 C204.78456213 231.32675154 204.78456213 231.32675154 216.44895935 221.14044189 C219.11331009 212.86693169 219.90103699 203.71543294 218.44895935 195.14044189 C215.88273108 191.31349799 212.53640107 190.07795454 208.44895935 188.14044189 C207.11826189 187.49683796 205.78779022 186.85276705 204.45750427 186.20831299 C192.30872747 180.3702029 179.99946255 174.98502533 167.57395935 169.76544189 C166.60137177 169.35545959 165.62878418 168.94547729 164.62672424 168.52307129 C135.33889946 153.59084942 135.33889946 153.59084942 104.44895935 148.14044189 C100.7322755 150.7657667 97.61491293 153.8840325 94.44895935 157.14044189 C93.47829529 158.11497314 93.47829529 158.11497314 92.48802185 159.10919189 C81.24236736 171.06659667 72.43643657 185.36069066 64.08470154 199.41241455 C62.17950595 202.58982581 60.24180442 205.74674147 58.30052185 208.90216064 C39.54428486 235.16841985 39.54428486 235.16841985 32.76145935 264.76544189 C36.24796853 275.87362232 45.20706419 284.89540733 52.5309906 293.62091064 C59.46143385 302.32575309 64.53938785 312.01365549 69.8981781 321.73028564 C78.1414364 336.66798782 86.92018551 350.71504967 97.44895935 364.14044189 C98.61012529 365.63966042 99.77024858 367.13968696 100.9294281 368.64044189 C107.60399496 377.26802879 114.34360895 385.84507394 121.09153748 394.41534424 C122.54010925 396.25628096 123.98692115 398.09859003 125.43333435 399.94122314 C125.92744812 400.57060791 126.42156189 401.19999268 126.9306488 401.84844971 C127.8694206 403.04430927 128.80806921 404.24026554 129.74656677 405.43634033 C131.6831967 407.90240602 133.58653552 410.28312207 135.7653656 412.54278564 C139.3178049 418.02392749 137.20775663 425.63227942 136.07200623 431.75958252 C135.85255089 432.99028473 135.85255089 432.99028473 135.62866211 434.24584961 C135.14823891 436.93069037 134.6580613 439.61364838 134.16770935 442.29669189 C133.8307997 444.16844979 133.49450519 446.04031851 133.15879822 447.91229248 C132.27717268 452.81897307 131.38723951 457.72411085 130.49552917 462.62896729 C129.5856309 467.6422985 128.68365101 472.65705338 127.7809906 477.67169189 C126.01136497 487.49601273 124.23295377 497.31872087 122.44895935 507.14044189 C113.63228939 506.08273795 113.63228939 506.08273795 109.99583435 504.82794189 C109.22239685 504.56207275 108.44895935 504.29620361 107.65208435 504.02227783 C106.8425531 503.73127197 106.03302185 503.44026611 105.19895935 503.14044189 C104.33270935 502.83138916 103.46645935 502.52233643 102.57395935 502.20391846 C79.18198636 493.67700345 57.3180107 482.15129744 37.44895935 467.14044189 C36.46798279 466.40438721 35.48700623 465.66833252 34.4763031 464.90997314 C3.92837913 440.93052767 -13.54470285 406.44737526 -18.94156837 368.21172142 C-20.43538032 355.38859973 -19.94727854 342.30749135 -19.89923751 329.4151758 C-19.88614435 324.99897316 -19.89067588 320.58278156 -19.89294434 316.16656494 C-19.89450877 308.5362918 -19.88518701 300.90609629 -19.86823082 293.27584267 C-19.84373188 282.24412089 -19.83602447 271.21243622 -19.83226684 260.18069019 C-19.82571935 242.27752306 -19.80580463 224.3743972 -19.77735901 206.47125244 C-19.74977421 189.09169723 -19.72856233 171.71215328 -19.71583557 154.33258057 C-19.7150474 153.25926691 -19.71425923 152.18595325 -19.71344718 151.08011494 C-19.70953174 145.69500734 -19.7057407 140.30989966 -19.70201147 134.92479193 C-19.67096861 90.32998002 -19.61817948 45.7352131 -19.55104065 1.14044189 C-13.00191207 0.15904479 -6.61619941 -0.00539739 0 0 Z M160.01145935 85.14044189 C153.67765382 92.55562885 148.31718455 100.74049592 142.8200531 108.78277588 C138.6938321 114.8128021 134.48339616 120.78121104 130.24485779 126.73272705 C129.76307068 127.41125732 129.28128357 128.0897876 128.78489685 128.78887939 C128.14366882 129.68872559 128.14366882 129.68872559 127.48948669 130.60675049 C125.24307582 133.91786103 124.83407246 136.14367711 125.44895935 140.14044189 C131.11141777 146.12892065 138.27306607 149.31508064 145.61741638 152.78204346 C147.68578024 153.75921559 149.74546199 154.75301974 151.8044281 155.74981689 C164.23741615 162.46656387 164.23741615 162.46656387 177.63645935 164.95294189 C187.64709817 158.50164132 193.51921217 146.67590864 199.73802185 136.83184814 C201.4432557 134.14941408 203.17645123 131.48710305 204.91770935 128.82794189 C206.01184708 127.14069327 207.10561143 125.45320243 208.19895935 123.76544189 C208.96901306 122.59875977 208.96901306 122.59875977 209.75462341 121.4085083 C213.44629848 115.72502567 213.44629848 115.72502567 214.44895935 109.14044189 C211.56610614 102.2959904 204.85022898 99.01707484 198.82395935 95.14044189 C197.78110779 94.45466064 196.73825623 93.76887939 195.6638031 93.06231689 C178.57346714 80.10102564 178.57346714 80.10102564 160.01145935 85.14044189 Z M222.44895935 115.14044189 C219.0535548 119.00677682 216.2438729 122.86093973 213.5934906 127.28887939 C213.24980438 127.85917374 212.90611816 128.42946808 212.55201721 129.01704407 C211.45034807 130.84700077 210.35564638 132.68100338 209.26145935 134.51544189 C207.75059106 137.03626869 206.23687525 139.55537643 204.72239685 142.07403564 C204.3532164 142.68898392 203.98403595 143.30393219 203.60366821 143.93751526 C201.49079163 147.44688462 199.33525918 150.92201405 197.11302185 154.36309814 C196.64275574 155.09286865 196.17248962 155.82263916 195.68797302 156.57452393 C194.84848286 157.86674983 194.00028433 159.15337978 193.1415863 160.43292236 C190.98588859 163.76311025 189.6048558 166.15919757 190.44895935 170.14044189 C193.58755063 174.59604423 198.69426558 176.39248031 203.51145935 178.57794189 C204.35893738 178.97263672 205.20641541 179.36733154 206.07957458 179.77398682 C211.50735072 182.29326685 216.97262091 184.71559894 222.5153656 186.97247314 C224.89910456 188.41234779 225.52189047 189.53976972 226.44895935 192.14044189 C226.89785632 197.16808798 226.2796356 201.09061303 224.94895935 205.95294189 C223.44211212 211.60720675 222.42853855 217.30803676 223.44895935 223.14044189 C224.9263812 224.77468256 224.9263812 224.77468256 226.44895935 226.14044189 C231.36036843 222.27014876 235.08698002 218.35984383 238.51145935 213.14044189 C238.9706073 212.45820557 239.42975525 211.77596924 239.90281677 211.07305908 C244.4080417 204.32683502 248.70727218 197.44673942 253.02952576 190.58258057 C257.14692469 184.08127629 261.44539092 177.73696744 265.88645935 171.45294189 C266.47161316 170.62149658 267.05676697 169.79005127 267.65965271 168.93341064 C271.99901346 162.76941135 271.99901346 162.76941135 273.73753357 160.33917236 C278.25283068 154.18122032 278.25283068 154.18122032 280.19895935 146.95294189 C279.11998772 141.46816942 277.1719036 137.25837062 272.67332458 133.75933838 C271.99987 133.32693848 271.32641541 132.89453857 270.6325531 132.44903564 C269.83647644 131.9356665 269.04039978 131.42229736 268.22019958 130.89337158 C267.30569031 130.31490479 266.39118103 129.73643799 265.44895935 129.14044189 C264.38943054 128.46142822 263.32990173 127.78241455 262.23826599 127.08282471 C259.27444809 125.19031941 256.29242437 123.32887112 253.30149841 121.47955322 C252.0624418 120.70930677 250.82740879 119.93255121 249.59642029 119.1494751 C236.30128638 110.27231879 236.30128638 110.27231879 222.44895935 115.14044189 Z M271.07395935 174.89044189 C270.66242615 175.48260498 270.25089294 176.07476807 269.82688904 176.68487549 C264.99456778 183.6894767 260.3219446 190.80645158 255.62205505 197.90020752 C251.26338841 204.46706775 246.81233075 210.95559039 242.26145935 217.39044189 C224.02045431 239.88766026 224.02045431 239.88766026 215.13645935 266.07794189 C216.57696845 271.63350071 219.98854582 275.52081998 224.74656677 278.65289307 C227.36415856 280.10273334 230.01127692 281.45027439 232.69895935 282.76544189 C233.58970154 283.21661377 234.48044373 283.66778564 235.3981781 284.13262939 C237.18249407 285.03385139 238.97114366 285.92654755 240.7641449 286.81036377 C242.59629508 287.71802533 244.4204483 288.6419653 246.23728943 289.57989502 C247.12311707 290.03557861 248.0089447 290.49126221 248.9216156 290.96075439 C250.1128302 291.57974609 250.1128302 291.57974609 251.32810974 292.21124268 C253.55231976 293.32411228 253.55231976 293.32411228 256.63645935 293.39044189 C263.96007031 290.13550369 268.63662544 282.42192777 273.13645935 276.07794189 C278.75800796 268.30165408 284.68034205 260.9589949 291.02415466 253.76690674 C293.85316198 250.53749503 296.60770046 247.24468538 299.37327576 243.96099854 C301.6425383 241.26915831 303.92219955 238.58824117 306.23020935 235.92950439 C311.06797736 230.33371777 315.6850145 224.64363151 320.01145935 218.64044189 C320.42919617 218.06495605 320.84693298 217.48947021 321.27732849 216.89654541 C325.21362135 211.33014498 327.1616593 207.02987475 326.44895935 200.14044189 C324.02421403 194.18879429 320.10798925 190.75145592 315.2888031 186.59747314 C312.80526408 184.44871655 310.40829935 182.24420709 308.02024841 179.99224854 C297.93181344 169.52498822 297.93181344 169.52498822 285.13645935 164.39044189 C278.45297056 165.74979555 274.85139213 169.40839143 271.07395935 174.89044189 Z M332.44895935 216.14044189 C330.2457958 218.45766492 330.2457958 218.45766492 328.19895935 221.14044189 C327.4203656 222.12012939 326.64177185 223.09981689 325.83958435 224.10919189 C325.0506781 225.10950439 324.26177185 226.10981689 323.44895935 227.14044189 C321.95289578 228.9769889 320.45296492 230.81039316 318.94895935 232.64044189 C316.71897895 235.36425878 314.49059948 238.0892499 312.26927185 240.82012939 C307.75047088 246.36812347 303.16685447 251.85432388 298.53318787 257.30621338 C295.65375667 260.69959569 292.81706208 264.12294107 290.01145935 267.57794189 C285.54865048 273.06013337 280.95597004 278.42496672 276.3434906 283.78106689 C275.87378845 284.32956299 275.4040863 284.87805908 274.92015076 285.44317627 C273.88872094 286.63310327 272.84277949 287.81053323 271.78636169 288.97833252 C271.24576111 289.58354736 270.70516052 290.18876221 270.1481781 290.81231689 C269.40894104 291.62587646 269.40894104 291.62587646 268.6547699 292.45587158 C267.26816262 294.39302287 266.72592077 295.7758874 266.44895935 298.14044189 C268.92876649 302.64643292 272.14193473 306.02483971 275.82395935 309.57794189 C279.00823826 312.65818001 282.00706234 315.73687419 284.69895935 319.26544189 C287.24682935 322.37254106 287.24682935 322.37254106 290.94895935 323.32794189 C298.2450608 322.93707932 303.41436975 316.57931196 308.44895935 311.76544189 C309.19008972 311.0629834 309.93122009 310.3605249 310.69480896 309.63677979 C316.09970489 304.49099497 321.41296498 299.25782561 326.63059998 293.92218018 C329.3565555 291.15135644 332.13349994 288.52085963 335.08958435 285.99591064 C340.89788079 280.97539177 346.2331692 275.46230033 351.63645935 270.01544189 C352.71369642 268.9331748 353.79116896 267.85114204 354.86888123 266.76934814 C356.84910189 264.78103935 358.82767947 262.79114823 360.80516052 260.80010986 C362.58618653 259.00839342 364.37561697 257.22499686 366.1728363 255.44952393 C368.50782023 253.08072869 370.11064704 251.18881993 371.44895935 248.14044189 C371.12835444 243.33136824 369.9340876 240.9734953 366.63645935 237.51544189 C365.8269281 236.66208252 365.01739685 235.80872314 364.18333435 234.92950439 C363.2809906 234.00911377 362.37864685 233.08872314 361.44895935 232.14044189 C360.45412276 231.10663096 359.45933237 230.07277556 358.46458435 229.03887939 C347.06057452 215.45134642 347.06057452 215.45134642 332.44895935 216.14044189 Z M210.05833435 236.71466064 C208.96665955 237.05054199 207.87498474 237.38642334 206.75022888 237.73248291 C205.57830994 238.09398437 204.40639099 238.45548584 203.19895935 238.82794189 C194.05195135 241.59072922 184.9058969 244.14174677 175.57395935 246.20294189 C174.62488708 246.41845703 173.67581482 246.63397217 172.69798279 246.85601807 C171.37202087 247.13796021 171.37202087 247.13796021 170.01927185 247.42559814 C168.87095886 247.6712854 168.87095886 247.6712854 167.69944763 247.92193604 C165.04650569 248.17951718 163.00482721 247.88236365 160.44895935 247.14044189 C158.8591156 245.10919189 158.8591156 245.10919189 157.51145935 242.64044189 C155.21496932 238.87004742 155.21496932 238.87004742 151.32395935 236.82794189 C148.31458534 236.89096491 148.31458534 236.89096491 146.07395935 239.07794189 C145.53770935 239.75856689 145.00145935 240.43919189 144.44895935 241.14044189 C146.75550006 250.65492232 159.42625968 257.07443628 167.28392029 261.8928833 C171.07023989 264.07467099 174.97261145 265.95775 178.94895935 267.76544189 C179.69000916 268.10825195 180.43105896 268.45106201 181.19456482 268.80426025 C185.69326587 270.75674734 189.48935589 272.07185068 194.44895935 271.14044189 C196.47255271 268.95457926 197.73785327 267.2295228 199.19895935 264.70294189 C199.61089539 264.03931641 200.02283142 263.37569092 200.44725037 262.69195557 C201.33165934 261.26712049 202.20644256 259.83627446 203.07249451 258.40020752 C205.42875005 254.53190293 207.91718116 250.74964268 210.38645935 246.95294189 C210.84697693 246.23501465 211.30749451 245.5170874 211.78196716 244.77740479 C213.90144631 241.47621012 216.02788787 238.23270151 218.44895935 235.14044189 C215.26175095 235.14044189 213.09265237 235.76485957 210.05833435 236.71466064 Z " fill="#111111" transform="translate(60.55104064941406,61.85955810546875)"/>
<path d="M0 0 C20.79 0 41.58 0 63 0 C85.5 39 85.5 39 89.2421875 45.48828125 C91.76546984 49.86227745 94.29181508 54.23448534 96.8203125 58.60546875 C126.50260715 109.93569558 126.50260715 109.93569558 139.8125 136.375 C140.23942139 137.21957764 140.66634277 138.06415527 141.10620117 138.93432617 C141.4901001 139.70623291 141.87399902 140.47813965 142.26953125 141.2734375 C142.60573486 141.94810059 142.94193848 142.62276367 143.28833008 143.31787109 C144 145 144 145 144 147 C144.66 147 145.32 147 146 147 C145.93361328 146.38793701 145.86722656 145.77587402 145.79882812 145.14526367 C144.96844177 136.87549449 144.69854542 128.61581939 144.5 120.3125 C144.47943542 119.52994843 144.45887085 118.74739685 144.43768311 117.94113159 C144.11610414 105.67366271 143.95224895 93.40665942 143.84264374 81.13581276 C143.82029013 78.70068774 143.79603553 76.26558954 143.77105713 73.83049011 C143.76277515 73.02159741 143.75449318 72.21270472 143.74596024 71.37930012 C143.72909992 69.73803778 143.71214971 68.09677635 143.69511032 66.45551586 C143.64547643 61.54642308 143.60971217 56.6374559 143.58346748 51.72818565 C143.56382916 48.61258537 143.53206583 45.49718694 143.49737167 42.3817215 C143.48366668 40.91859079 143.47506572 39.45540198 143.47195816 37.99221039 C143.4571459 27.13082669 143.4571459 27.13082669 140 17 C138.20309873 15.33033067 138.20309873 15.33033067 136.0625 14.625 C135.39347656 14.34914063 134.72445313 14.07328125 134.03515625 13.7890625 C133.36355469 13.52867187 132.69195313 13.26828125 132 13 C130.02 12.01 130.02 12.01 128 11 C128 7.37 128 3.74 128 0 C147.47 0 166.94 0 187 0 C187 3.63 187 7.26 187 11 C186.16855469 11.36351562 185.33710937 11.72703125 184.48046875 12.1015625 C183.39378906 12.60429687 182.30710937 13.10703125 181.1875 13.625 C179.56908203 14.35589844 179.56908203 14.35589844 177.91796875 15.1015625 C174.37571402 17.40616196 173.43732484 19.05571324 172 23 C171.14150483 27.90781484 170.84893167 32.70455652 170.84178162 37.67527771 C170.83684364 38.41629811 170.83190566 39.15731851 170.82681805 39.92079407 C170.81154503 42.38656568 170.80311031 44.85231147 170.79467773 47.31811523 C170.78509118 49.09252649 170.77508065 50.8669355 170.76467896 52.64134216 C170.73770807 57.4465451 170.71665631 62.25175779 170.69667697 67.0569942 C170.67476906 72.08318517 170.64740393 77.10934638 170.62062073 82.13551331 C170.57075871 91.64799269 170.52579585 101.16048866 170.48259836 110.6730004 C170.43317044 121.50489891 170.37827295 132.33676756 170.32291877 143.16863716 C170.20919839 165.44573026 170.10233779 187.72285189 170 210 C164.46052399 210.257928 158.92459041 210.44537012 153.38050842 210.56991577 C151.49831735 210.62185764 149.61654028 210.69249085 147.73579407 210.78268433 C132.12290163 211.51225632 132.12290163 211.51225632 126.86789894 207.76883698 C123.14056777 203.31409989 120.46721267 198.49699468 118.6484375 192.96875 C116.04345244 185.82250746 112.48487817 179.61946183 108.5625 173.125 C107.29962789 170.94563238 106.04182832 168.76331767 104.7890625 166.578125 C104.16418945 165.49337891 103.53931641 164.40863281 102.89550781 163.29101562 C101.63183594 161.09700521 100.36816406 158.90299479 99.10449219 156.70898438 C92.43043429 145.12317784 85.74477139 133.54481304 79 122 C76.66564138 118.00059745 74.33254046 114.00046317 72 110 C71.38624512 108.948125 70.77249023 107.89625 70.14013672 106.8125 C60.39765571 90.0953168 50.62896153 73.32787264 42 56 C41.93651249 78.3913397 42.06093853 100.78240971 42.23571968 123.17301369 C42.28077627 128.98113377 42.32004637 134.78917465 42.34643555 140.59741211 C42.37247845 146.29445944 42.41282325 151.99124119 42.46318626 157.6881237 C42.47977111 159.83816183 42.49133724 161.98824516 42.49761391 164.13833809 C42.50727089 167.1323058 42.53532782 170.12558726 42.56762695 173.11938477 C42.56619186 173.99060471 42.56475677 174.86182465 42.5632782 175.75944519 C42.66544734 182.47905631 43.49408996 189.27929767 48.1875 194.375 C51.70029099 196.40461257 55.15726203 197.69737696 59 199 C59 202.63 59 206.26 59 210 C39.53 210 20.06 210 0 210 C0 206.37 0 202.74 0 199 C9.75 194 9.75 194 12 194 C15.29858043 185.5705947 15.42787358 177.40102704 15.38818359 168.48779297 C15.39225594 166.94266389 15.39760153 165.39753772 15.40411377 163.85241699 C15.41771209 159.68310992 15.41252051 155.51402721 15.40297651 151.34471655 C15.39534363 146.96825939 15.4024353 142.59182052 15.40713501 138.21536255 C15.41258088 130.87026545 15.4054305 123.52525908 15.39111328 116.18017578 C15.37477684 107.70152873 15.38008717 99.22309802 15.3965925 90.74445617 C15.41022621 83.44735585 15.41211819 76.15032047 15.40427649 68.85321152 C15.39961189 64.50248617 15.39894187 60.15186238 15.40888596 55.80114365 C15.4175813 51.71177841 15.41148713 47.62269107 15.39420319 43.53335571 C15.39025253 42.03703395 15.39134793 40.54068861 15.39799118 39.04437637 C15.72913148 26.37747137 15.72913148 26.37747137 9.75 15.6875 C6.57570718 13.7396385 3.46586161 12.35916141 0 11 C0 7.37 0 3.74 0 0 Z " fill="#111111" transform="translate(1002,279)"/>
<path d="M0 0 C27.06 0 54.12 0 82 0 C82 3.63 82 7.26 82 11 C81.16855469 11.36351562 80.33710937 11.72703125 79.48046875 12.1015625 C78.39378906 12.60429687 77.30710937 13.10703125 76.1875 13.625 C74.56908203 14.35589844 74.56908203 14.35589844 72.91796875 15.1015625 C68.83751619 17.75631477 67.54705927 20.70777863 66.43487072 25.36793613 C65.99424583 28.03482721 65.87136503 30.51296282 65.86628723 33.21458435 C65.86202225 34.24458054 65.85775726 35.27457672 65.85336304 36.33578491 C65.85381622 37.45530548 65.85426941 38.57482605 65.85473633 39.72827148 C65.85137772 40.91595627 65.8480191 42.10364105 65.84455872 43.32731628 C65.83669291 46.57993259 65.83338133 49.83251055 65.83274293 53.08513522 C65.83203046 55.12336482 65.82989226 57.1615878 65.82724571 59.19981575 C65.81799484 66.32877143 65.81390993 73.45770844 65.81469727 80.58666992 C65.81529589 87.20018747 65.8047859 93.81362287 65.7889536 100.42711967 C65.77580233 106.12675906 65.77051663 111.82637189 65.77115268 117.52602631 C65.77140573 120.9201506 65.76866344 124.31420208 65.75797462 127.70831108 C65.74809079 131.50800078 65.75108639 135.30748415 65.75708008 139.10717773 C65.75146057 140.20848022 65.74584106 141.30978271 65.74005127 142.44445801 C65.79591061 156.4992181 66.89220498 173.0401644 76.24609375 184.31640625 C83.1726146 190.9652492 92.08698673 192.96665111 101.4375 193.25 C112.15551692 192.92808076 120.68190445 190.74506445 128.25 182.875 C136.98762435 171.88173893 137.3030184 156.12405873 137.2746582 142.73925781 C137.27976913 141.47263809 137.28488007 140.20601837 137.29014587 138.90101624 C137.30339562 135.46531875 137.30413104 132.02973217 137.30158257 128.59401417 C137.30050447 125.71366185 137.30541684 122.83333123 137.310188 119.95298362 C137.32123193 113.15695264 137.32174784 106.36097698 137.31567383 99.56494141 C137.30962107 92.57336968 137.32198965 85.58199854 137.3432439 78.59046102 C137.36088795 72.56295474 137.36685734 66.53551219 137.36360615 60.50798106 C137.36179958 56.91850606 137.36436769 53.3291746 137.37832069 49.73972321 C137.39328921 45.74073819 137.38390454 41.74216031 137.37231445 37.74316406 C137.37995819 36.56583206 137.38760193 35.38850006 137.39547729 34.17549133 C137.35438065 27.75459102 136.879965 22.78805926 134 17 C131.14994394 14.79693196 131.14994394 14.79693196 127.8125 13.5 C126.72582031 13.0153125 125.63914062 12.530625 124.51953125 12.03125 C123.68808594 11.6909375 122.85664062 11.350625 122 11 C122 7.37 122 3.74 122 0 C144.44 0 166.88 0 190 0 C190 3.63 190 7.26 190 11 C188.4325 11.70125 186.865 12.4025 185.25 13.125 C180.71371058 15.40918534 178.18124378 17.2581657 176 22 C174.78029513 28.23462216 174.84155588 34.43608776 174.82641602 40.77172852 C174.8163855 42.52443306 174.8163855 42.52443306 174.80615234 44.31254578 C174.79213419 46.84371984 174.78022993 49.3749063 174.77020454 51.90609932 C174.75372888 55.92214178 174.73069107 59.93809324 174.70530701 63.9540863 C174.63440365 75.37079014 174.57454103 86.78753771 174.52319336 98.2043457 C174.49472292 104.51809339 174.45925213 110.83176516 174.41653961 117.14543289 C174.39434503 120.47692283 174.37690407 123.80827598 174.36609077 127.13983345 C174.20404379 176.36914097 174.20404379 176.36914097 157.375 194.25 C139.14392788 211.34332319 113.86027069 213.60301291 89.92578125 212.91113281 C69.33932543 211.86583088 48.55948546 208.36346785 33.1796875 193.4375 C20.29534894 179.02920742 16.69593903 161.32286896 16.71289062 142.53710938 C16.70605759 141.35494339 16.69922455 140.1727774 16.69218445 138.95478821 C16.67868364 136.40951917 16.66957473 133.86422369 16.66447449 131.31892395 C16.65612219 127.28197622 16.63583617 123.24525036 16.61193848 119.20837402 C16.55913613 109.91248282 16.52553518 100.61654194 16.49217987 91.32056427 C16.46137411 82.79101293 16.42636238 74.26153183 16.37586927 65.7320714 C16.34902597 61.08972475 16.33706121 56.44747531 16.32775879 51.80505371 C16.31477715 49.35766294 16.3012555 46.91027495 16.28710938 44.46289062 C16.28809128 43.37474564 16.28907318 42.28660065 16.29008484 41.16548157 C16.39727001 28.47298844 16.39727001 28.47298844 11.9375 17 C8.11620405 14.39826659 4.28938761 12.72855919 0 11 C0 7.37 0 3.74 0 0 Z " fill="#111111" transform="translate(789,279)"/>
<path d="M0 0 C1.14347145 -0.01448685 1.14347145 -0.01448685 2.31004333 -0.02926636 C4.7861723 -0.054119 7.26204083 -0.06667633 9.73828125 -0.07421875 C11.00608429 -0.07864487 11.00608429 -0.07864487 12.29949951 -0.0831604 C31.55168041 -0.09841281 50.49715759 1.78930874 69.05078125 7.23828125 C70.05078125 8.23828125 70.05078125 8.23828125 70.17103577 10.02894592 C70.16881516 10.80838058 70.16659454 11.58781525 70.16430664 12.39086914 C70.16423111 13.2717067 70.16415558 14.15254425 70.16407776 15.06007385 C70.15891647 16.01735886 70.15375519 16.97464386 70.1484375 17.9609375 C70.14631508 19.42375404 70.14631508 19.42375404 70.14414978 20.91612244 C70.13853258 24.04437268 70.12597718 27.17255248 70.11328125 30.30078125 C70.10826847 32.41601459 70.10370518 34.53124906 70.09960938 36.64648438 C70.08940656 41.84379926 70.06983456 47.040961 70.05078125 52.23828125 C62.79078125 52.23828125 55.53078125 52.23828125 48.05078125 52.23828125 C46.07078125 47.28828125 46.07078125 47.28828125 44.05078125 42.23828125 C39.8944883 32.5662644 36.08992686 26.33000638 26.36328125 21.92578125 C15.14792225 17.87060606 2.79297284 18.39356505 -8.07421875 23.30078125 C-23.91594071 32.0480563 -30.48618031 46.36289773 -35.33544922 62.99853516 C-39.22474359 77.19121079 -40.13599707 91.17715762 -40.13452148 105.81201172 C-40.13668914 108.20558991 -40.15484778 110.59869155 -40.17382812 112.9921875 C-40.26655701 138.12478351 -38.03958595 168.97352255 -19.41796875 187.78515625 C-12.89491461 193.68366265 -5.55247211 195.41578992 3.05078125 195.23828125 C9.91816339 194.20867374 15.71190115 191.76876435 20.05078125 186.23828125 C24.45031208 177.37466977 24.64838507 168.41801294 24.51733398 158.76391602 C24.48810462 156.41156588 24.49682259 154.06144266 24.50976562 151.70898438 C24.50353349 150.19139545 24.49514667 148.6738135 24.484375 147.15625 C24.48731064 146.46444138 24.49024628 145.77263275 24.49327087 145.05986023 C24.39681026 140.02954815 23.34835293 136.62758559 21.05078125 132.23828125 C17.31542142 129.16698539 13.68073692 127.56112573 9.05078125 126.23828125 C9.05078125 122.27828125 9.05078125 118.31828125 9.05078125 114.23828125 C35.12078125 114.23828125 61.19078125 114.23828125 88.05078125 114.23828125 C88.05078125 118.19828125 88.05078125 122.15828125 88.05078125 126.23828125 C86.46265625 126.93953125 84.87453125 127.64078125 83.23828125 128.36328125 C79.78037931 130.09711626 78.24732218 130.95835933 75.98828125 134.17578125 C74.36537026 139.4772905 73.91847806 144.54123699 73.84545898 150.06982422 C73.83555939 150.72418961 73.82565979 151.37855499 73.81546021 152.05274963 C73.78411152 154.19528707 73.75919433 156.3378466 73.734375 158.48046875 C73.7137824 159.97405543 73.69278535 161.46763659 73.67140198 162.96121216 C73.61641925 166.87707013 73.56690585 170.79297862 73.51855469 174.70892334 C73.46816499 178.7109421 73.41257045 182.71288824 73.35742188 186.71484375 C73.25013176 194.55592804 73.14862308 202.3970734 73.05078125 210.23828125 C70.17744944 210.91294197 67.30246643 211.57820465 64.42578125 212.23828125 C63.61753906 212.4290625 62.80929687 212.61984375 61.9765625 212.81640625 C57.61773494 213.80865968 53.54941673 214.67415896 49.05078125 214.23828125 C46.71484375 212.26953125 46.71484375 212.26953125 44.67578125 209.73828125 C43.98742187 208.90296875 43.2990625 208.06765625 42.58984375 207.20703125 C42.08195313 206.55734375 41.5740625 205.90765625 41.05078125 205.23828125 C36.87704243 206.58989682 32.81026007 208.10750097 28.73828125 209.73828125 C6.45112505 218.25247575 -21.75018515 217.23980416 -43.66796875 207.66796875 C-50.76787057 204.37699083 -57.10226138 200.4407844 -62.94921875 195.23828125 C-63.56152344 194.7071875 -64.17382812 194.17609375 -64.8046875 193.62890625 C-69.93283325 188.87433403 -73.46058987 183.25952053 -76.94921875 177.23828125 C-77.40296875 176.45710937 -77.85671875 175.6759375 -78.32421875 174.87109375 C-95.0816043 143.76519682 -95.17762305 99.65929265 -85.76171875 66.42578125 C-81.33510146 52.0631107 -74.77831935 39.59707632 -64.94921875 28.23828125 C-64.376875 27.56539063 -63.80453125 26.8925 -63.21484375 26.19921875 C-47.57032579 9.23808294 -22.64479686 0.23967476 0 0 Z " fill="#111111" transform="translate(689.94921875,276.76171875)"/>
<path d="M0 0 C1.77206192 0.00015919 3.54412846 0.00585754 5.31616211 0.01586914 C6.24698105 0.01728409 7.17779999 0.01869904 8.13682556 0.02015686 C11.12241777 0.02577367 14.10793615 0.03832899 17.09350586 0.05102539 C19.11238499 0.05603823 21.13126529 0.06060151 23.15014648 0.06469727 C28.11046158 0.07574856 33.07072118 0.09302444 38.03100586 0.11352539 C45.84907694 26.19734662 53.62438389 52.29341702 61.30444336 78.41821289 C61.70844832 79.79244006 61.70844832 79.79244006 62.12061501 81.1944294 C64.80988941 90.34321144 67.49669876 99.49271425 70.1802454 108.64317799 C72.69316564 117.21152795 75.21203543 125.77808558 77.74052525 134.34185505 C79.04919508 138.77600673 80.35306137 143.21149414 81.64910889 147.64935303 C82.99256073 152.24952026 84.34512877 156.84691973 85.70371056 161.4426403 C86.21358093 163.17329804 86.72022857 164.90490914 87.22333717 166.63754463 C91.64661708 184.05845954 91.64661708 184.05845954 103.03100586 197.11352539 C105.33860716 198.2580212 107.61737271 199.1963448 110.03100586 200.11352539 C110.03100586 203.74352539 110.03100586 207.37352539 110.03100586 211.11352539 C81.98100586 211.11352539 53.93100586 211.11352539 25.03100586 211.11352539 C25.03100586 207.48352539 25.03100586 203.85352539 25.03100586 200.11352539 C27.50496419 199.23461914 29.97892253 198.35571289 32.45288086 197.47680664 C35.64298304 195.78991928 37.02290454 194.10573283 39.03100586 191.11352539 C40.72681325 181.80351059 37.99675693 172.47628264 35.53100586 163.55102539 C34.87079732 161.09244956 34.2143706 158.63285415 33.56225586 156.17211914 C33.26899414 155.10276123 32.97573242 154.03340332 32.67358398 152.93164062 C32.03100586 150.11352539 32.03100586 150.11352539 32.03100586 146.11352539 C10.58100586 146.11352539 -10.86899414 146.11352539 -32.96899414 146.11352539 C-33.95899414 149.41352539 -34.94899414 152.71352539 -35.96899414 156.11352539 C-37.05487283 159.54063384 -38.14116486 162.96730178 -39.25024414 166.38696289 C-41.94485233 174.86998868 -43.49927524 183.85318411 -40.96899414 192.55102539 C-37.36103234 197.17372645 -32.52895193 198.72353594 -26.96899414 200.11352539 C-26.96899414 203.74352539 -26.96899414 207.37352539 -26.96899414 211.11352539 C-48.74899414 211.11352539 -70.52899414 211.11352539 -92.96899414 211.11352539 C-92.96899414 207.48352539 -92.96899414 203.85352539 -92.96899414 200.11352539 C-90.71055664 199.12352539 -90.71055664 199.12352539 -88.40649414 198.11352539 C-80.03608623 193.81648054 -76.26559068 188.32346461 -72.50024414 179.80102539 C-71.99000198 178.64688896 -71.99000198 178.64688896 -71.4694519 177.46943665 C-66.09601198 165.04412703 -61.58376728 152.2579105 -56.9215889 139.55344772 C-54.64025986 133.34447114 -52.34284016 127.14140943 -50.04847145 120.93724251 C-49.15619756 118.52403359 -48.26457749 116.11058371 -47.37297058 113.6971283 C-41.26973855 97.18512252 -35.07280028 80.70870647 -28.85707855 64.23877335 C-28.04671662 62.09136403 -27.23670941 59.94382126 -26.42681885 57.79623413 C-23.67807269 50.50791216 -20.92597245 43.22087127 -18.16942978 35.93549442 C-16.6423147 31.89813897 -15.11975662 27.85909224 -13.59994984 23.81898022 C-12.57299211 21.09019495 -11.54388469 18.36222349 -10.51437187 15.63440132 C-10.0266951 14.34073928 -9.53996243 13.04672092 -9.05421638 11.75233269 C-8.38822662 9.97800123 -7.71862532 8.20502659 -7.04882812 6.43212891 C-6.66999985 5.42569839 -6.29117157 4.41926788 -5.90086365 3.38233948 C-4.36169255 -0.36506618 -4.48377433 0.12824968 0 0 Z M2.03100586 45.11352539 C-7.65228772 72.44101291 -17.32613275 99.77174119 -26.96899414 127.11352539 C-9.14899414 127.11352539 8.67100586 127.11352539 27.03100586 127.11352539 C22.66599712 111.47577564 18.2969542 95.8394276 13.90167236 80.21020508 C13.34945081 78.24613127 12.7976067 76.28195126 12.24627686 74.31762695 C10.95483589 69.71680773 9.65697953 65.11797095 8.3432312 60.52346802 C7.96931081 59.21165145 7.59814108 57.89904762 7.22976685 56.58566284 C6.72827266 54.7998676 6.2159303 53.01712898 5.70288086 51.23461914 C5.42541016 50.25936279 5.14793945 49.28410645 4.86206055 48.27929688 C4.24330022 45.93848761 4.24330022 45.93848761 2.03100586 45.11352539 Z " fill="#111111" transform="translate(1577.968994140625,277.886474609375)"/>
<path d="M0 0 C59.73 0 119.46 0 181 0 C181 18.15 181 36.3 181 55 C173.74 55 166.48 55 159 55 C155.875 45.0625 155.875 45.0625 154.93310547 41.98852539 C152.51828143 34.54245666 149.37388916 26.6757062 142.375 22.5 C138.19301281 20.64133903 134.78794417 19.88792057 130.234375 19.68359375 C129.34492187 19.64169922 128.45546875 19.59980469 127.5390625 19.55664062 C126.61867188 19.51732422 125.69828125 19.47800781 124.75 19.4375 C123.34621094 19.37272461 123.34621094 19.37272461 121.9140625 19.30664062 C119.60951359 19.2008195 117.30486161 19.09873443 115 19 C115.0605601 40.37524846 115.13807819 61.75037574 115.23571491 83.12548828 C115.28065642 93.05060768 115.32007492 102.97569133 115.34643555 112.90087891 C115.36942891 121.55293847 115.40284196 130.20488475 115.44870156 138.85685444 C115.47261568 143.43686408 115.49135634 148.01676165 115.49761391 152.59683228 C115.50367294 156.91098596 115.52370234 161.22485294 115.55427551 165.53890038 C115.56304263 167.11905105 115.56678107 168.69923922 115.56500816 170.27941322 C115.23478577 183.23302555 115.23478577 183.23302555 121.125 194.3125 C124.95764147 196.5620939 128.7413347 197.72875663 133 199 C133 202.63 133 206.26 133 210 C104.95 210 76.9 210 48 210 C48 206.37 48 202.74 48 199 C49.711875 198.443125 51.42375 197.88625 53.1875 197.3125 C58.02236853 195.55153759 60.91338546 194.11548605 64 190 C67.27560249 179.90982369 66.16266952 167.86385185 66.20532227 157.38745117 C66.21492788 155.86830902 66.2249394 154.34916939 66.23532104 152.83003235 C66.26208605 148.74830405 66.28324722 144.66656452 66.30332303 140.58479857 C66.32536029 136.3033638 66.35266123 132.02196248 66.37937927 127.74055481 C66.42906853 119.65199923 66.47409437 111.56342483 66.51740164 103.47483283 C66.56697865 94.25823961 66.62182013 85.04168 66.67708123 75.82511938 C66.79053587 56.8834442 66.89745279 37.94173721 67 19 C63.85319687 19.08212997 60.70815926 19.19484302 57.5625 19.3125 C56.68400391 19.33505859 55.80550781 19.35761719 54.90039062 19.38085938 C47.36554638 19.68670176 40.61636651 21.28831459 34 25 C32.83593821 26.8590864 32.83593821 26.8590864 32 29 C31.63261719 29.66515625 31.26523438 30.3303125 30.88671875 31.015625 C26.75629565 38.71139703 24.47709289 46.64865824 22 55 C14.74 55 7.48 55 0 55 C0 36.85 0 18.7 0 0 Z " fill="#111111" transform="translate(1315,279)"/>
<path d="M0 0 C26.73 0 53.46 0 81 0 C81 3.63 81 7.26 81 11 C79.4325 11.721875 77.865 12.44375 76.25 13.1875 C71.65749914 15.48699831 68.11910159 17.63728791 66.41893387 22.74600601 C65.87127765 25.69256611 65.86720785 28.50334898 65.85955811 31.50140381 C65.85658698 32.15254536 65.85361586 32.80368691 65.8505547 33.47456002 C65.84188902 35.65460256 65.84036126 37.83459005 65.83886719 40.01464844 C65.83423748 41.57859412 65.82921261 43.14253868 65.82382202 44.70648193 C65.81071011 48.9545802 65.80425533 53.20266267 65.79981136 57.45077801 C65.79687848 60.10622812 65.79277324 62.76167394 65.78830719 65.41712189 C65.77463497 73.72943977 65.76496717 82.0417478 65.7611053 90.35407615 C65.75662614 99.94182407 65.73908369 109.52942931 65.7101047 119.11713386 C65.68847009 126.53299238 65.67840006 133.94881082 65.67706418 141.36470056 C65.67601736 145.79154717 65.67013581 150.21825961 65.65224457 154.64507294 C65.63573325 158.81148015 65.63362317 162.97765279 65.64238358 167.14408112 C65.64315233 168.66943491 65.63883253 170.19480148 65.62892532 171.72012329 C65.49387726 182.72051003 65.49387726 182.72051003 69 193 C71.85005606 195.20306804 71.85005606 195.20306804 75.1875 196.5 C76.27417969 196.9846875 77.36085938 197.469375 78.48046875 197.96875 C79.31191406 198.3090625 80.14335938 198.649375 81 199 C81 202.63 81 206.26 81 210 C54.27 210 27.54 210 0 210 C0 206.37 0 202.74 0 199 C0.83144531 198.6596875 1.66289063 198.319375 2.51953125 197.96875 C3.60621094 197.4840625 4.69289063 196.999375 5.8125 196.5 C6.89144531 196.0359375 7.97039062 195.571875 9.08203125 195.09375 C12.94622004 192.32105229 13.99776136 189.50425612 15 185 C15.43288291 179.84276132 15.41079376 174.70152874 15.38818359 169.53125 C15.39225356 167.96671178 15.39759782 166.40217643 15.40411377 164.83764648 C15.41774269 160.60624081 15.4125071 156.37505557 15.40297651 152.14364624 C15.39535692 147.70578436 15.4024319 143.26794078 15.40713501 138.83007812 C15.41258588 131.37887194 15.40541853 123.9277551 15.39111328 116.4765625 C15.37478805 107.87412608 15.38007703 99.271903 15.3965925 90.66947174 C15.41022645 83.27050201 15.4121177 75.87159634 15.40427649 68.4726181 C15.39961046 64.05926519 15.39894559 59.64601241 15.40888596 55.23266602 C15.41758119 51.08259137 15.41148728 46.93279057 15.39420319 42.78274536 C15.39025195 41.26384942 15.39134893 39.74493026 15.39799118 38.2260437 C15.46611715 27.26924123 15.46611715 27.26924123 12 17 C10.20309873 15.33033067 10.20309873 15.33033067 8.0625 14.625 C7.39347656 14.34914063 6.72445313 14.07328125 6.03515625 13.7890625 C5.36355469 13.52867187 4.69195313 13.26828125 4 13 C2.68 12.34 1.36 11.68 0 11 C0 7.37 0 3.74 0 0 Z " fill="#111111" transform="translate(1212,279)"/>
<path d="M0 0 C10.95956569 7.42996267 17.99463776 17.41391867 21.07421875 30.26953125 C22.61621338 45.14564158 20.62318042 57.76458338 11.28125 69.79296875 C4.03413625 77.92512825 -6.04995735 84.34950091 -17.07617188 85.49243164 C-32.70783844 86.27165877 -44.88758262 83.99757892 -56.92578125 73.26953125 C-67.46591463 62.04370146 -70.56702213 50.07147751 -70.23046875 35.0078125 C-69.65983743 23.09765221 -64.34280621 13.29459133 -55.6875 5.16796875 C-39.96922214 -7.59125507 -17.75690336 -10.50241414 0 0 Z " fill="#111111" transform="translate(451.92578125,90.73046875)"/>
<path d="M0 0 C6.86438771 -0.05121031 13.72872517 -0.08594504 20.59326172 -0.10986328 C22.92270753 -0.11984708 25.25214105 -0.13343883 27.58154297 -0.15087891 C62.90833517 -0.40851746 62.90833517 -0.40851746 76.8125 7.625 C82.79307481 14.1181955 85.31208454 22.17214427 85.1484375 30.89453125 C84.60296483 38.63163048 81.8420834 45.41933671 76.10546875 50.765625 C72.28774655 53.77308493 68.77368455 55.80657886 64 57 C64 57.66 64 58.32 64 59 C64.74765625 59.25910156 65.4953125 59.51820313 66.265625 59.78515625 C75.21884261 63.76294293 79.01192206 73.52808207 82.67871094 81.99584961 C85.64911202 88.7512282 88.88158668 95.15205137 95.375 99 C96.24125 99.33 97.1075 99.66 98 100 C98 101.98 98 103.96 98 106 C93.69538574 106.24835783 89.39461433 106.42912304 85.08496094 106.54931641 C83.62165702 106.59942955 82.15884969 106.66755153 80.69726562 106.75439453 C68.72388668 107.44767601 68.72388668 107.44767601 64.92163086 104.25463867 C63.26309456 101.58201483 62.14571427 98.92985915 61 96 C60.13485999 94.2194443 59.26905588 92.4391489 58.38720703 90.66680908 C56.4902466 86.82944734 54.69335721 82.94367219 52.87817383 79.06713867 C51.97227034 77.13725301 51.05874049 75.21111789 50.14453125 73.28515625 C49.61190674 72.14957275 49.07928223 71.01398926 48.53051758 69.84399414 C46.74620942 66.47887371 46.74620942 66.47887371 44 64 C41.27513278 63.20837507 41.27513278 63.20837507 38.3125 62.8125 C37.31863281 62.65394531 36.32476563 62.49539062 35.30078125 62.33203125 C34.54152344 62.22246094 33.78226563 62.11289063 33 62 C33.06906922 66.32388583 33.15712654 70.64685148 33.26245117 74.9699707 C33.29561259 76.43926422 33.32367178 77.90868244 33.34643555 79.37817383 C33.38014519 81.49614368 33.43246433 83.61297995 33.48828125 85.73046875 C33.51446533 87.00301514 33.54064941 88.27556152 33.56762695 89.58666992 C34.02497433 93.19715761 34.82462906 95.11572224 37 98 C39.06700655 99.32793606 39.06700655 99.32793606 41 100 C41 101.98 41 103.96 41 106 C27.47 106 13.94 106 0 106 C0 104.02 0 102.04 0 100 C0.969375 99.54625 1.93875 99.0925 2.9375 98.625 C6.07079582 97.34213779 6.07079582 97.34213779 7 95 C7.11389469 92.36157544 7.16782766 89.74893048 7.17700195 87.10961914 C7.18685875 85.88745949 7.18685875 85.88745949 7.19691467 84.64060974 C7.21665984 81.93879104 7.22831122 79.23702787 7.23828125 76.53515625 C7.24235678 75.61399961 7.2464323 74.69284298 7.25063133 73.74377251 C7.27149446 68.87093199 7.28579672 63.99811968 7.29516602 59.12524414 C7.30624804 54.08312775 7.34066772 49.04145056 7.38033772 43.99948978 C7.40643006 40.1296657 7.41485112 36.25994759 7.41844749 32.39004326 C7.4233304 30.53083762 7.43499251 28.67163724 7.45348549 26.81251717 C7.47772698 24.21457763 7.47694011 21.6177924 7.4699707 19.01977539 C7.48918579 17.86247421 7.48918579 17.86247421 7.50878906 16.68179321 C7.48413457 12.44575531 7.48413457 12.44575531 5.15812683 9.06126404 C2.90730177 7.89417558 2.90730177 7.89417558 0 7 C0 4.69 0 2.38 0 0 Z M33 10 C33 23.86 33 37.72 33 52 C45.94788778 52.51182632 45.94788778 52.51182632 55.8125 46.6875 C61.13850671 40.14412032 60.74372404 32.04323776 60 24 C58.48109527 18.64688711 55.80837531 14.90738972 51 12 C44.58413207 9.43365283 40.49209698 10 33 10 Z " fill="#111111" transform="translate(682,126)"/>
<path d="M0 0 C9.70196027 8.41652704 13.39073492 21.77434645 14.4765625 34.1484375 C15.56980801 52.28130771 13.80769241 70.00036271 2.40625 84.84375 C-5.31253244 93.22651372 -15.59817651 97.36030809 -26.84863281 98.35375977 C-29.20271298 98.45048584 -31.54247344 98.47756954 -33.8984375 98.4609375 C-34.72843262 98.45602295 -35.55842773 98.4511084 -36.41357422 98.44604492 C-48.08021524 98.22392083 -58.4175572 94.99420731 -67.2109375 87.0859375 C-78.97650327 74.36493135 -80.26270366 56.47686305 -79.8046875 39.98828125 C-79.12058981 25.52816632 -75.14922126 11.89758706 -64.984375 1.1875 C-46.70534206 -13.95798444 -18.84856231 -13.83005965 0 0 Z M-46.2578125 5.9609375 C-57.50800213 21.1097077 -55.67063902 45.36577981 -53.20703125 63.12109375 C-51.75064757 72.35062775 -48.67262684 79.89289683 -41.5234375 86.1484375 C-37.07499825 88.91172461 -32.60701211 88.76819428 -27.5234375 88.1484375 C-22.86666197 86.65289613 -19.25490141 83.67723716 -16.65625 79.50390625 C-8.24431941 62.01289196 -8.48090096 34.51322994 -14.265625 16.16796875 C-16.85825104 9.94405594 -19.44195224 4.97379961 -25.4609375 1.5859375 C-33.1928477 -1.59779023 -40.50098771 -0.05520372 -46.2578125 5.9609375 Z " fill="#111111" transform="translate(861.5234375,134.8515625)"/>
<path d="M0 0 C25.41 0 50.82 0 77 0 C77 8.58 77 17.16 77 26 C73.04 26 69.08 26 65 26 C64.443125 24.618125 63.88625 23.23625 63.3125 21.8125 C61.47961498 17.69984281 59.56962765 14.85570212 56 12 C53.1528206 11.07953081 50.43243358 10.82450699 47.453125 10.68359375 C46.31085449 10.62643188 46.31085449 10.62643188 45.14550781 10.56811523 C44.18999023 10.52501221 43.23447266 10.48190918 42.25 10.4375 C39.1975 10.293125 36.145 10.14875 33 10 C33 21.88 33 33.76 33 46 C44.87302871 46.20329804 44.87302871 46.20329804 49.1875 42.75 C50.8692836 40.19832834 52.08496571 37.91147274 53 35 C55.97 35 58.94 35 62 35 C62 45.56 62 56.12 62 67 C59.03 67 56.06 67 53 67 C52.49339844 66.04287109 52.49339844 66.04287109 51.9765625 65.06640625 C51.53054688 64.24011719 51.08453125 63.41382813 50.625 62.5625 C50.18414063 61.73878906 49.74328125 60.91507813 49.2890625 60.06640625 C48.16581441 57.86533422 48.16581441 57.86533422 46 57 C41.71 56.67 37.42 56.34 33 56 C33 69.2 33 82.4 33 96 C36.361875 95.896875 39.72375 95.79375 43.1875 95.6875 C44.23832764 95.66260498 45.28915527 95.63770996 46.37182617 95.61206055 C53.21738008 95.40152563 53.21738008 95.40152563 59 92 C60.57899777 89.71915099 60.57899777 89.71915099 61.6875 87.125 C62.08324219 86.28195313 62.47898437 85.43890625 62.88671875 84.5703125 C63.9711614 82.06658176 64.9866625 79.53334376 66 77 C69.96 77 73.92 77 78 77 C77.85843505 80.52105163 77.71189095 84.04177889 77.5625 87.5625 C77.52318359 88.55314453 77.48386719 89.54378906 77.44335938 90.56445312 C77.40146484 91.53447266 77.35957031 92.50449219 77.31640625 93.50390625 C77.27974854 94.38892822 77.24309082 95.2739502 77.20532227 96.18579102 C76.9654877 99.47303596 76.4661223 102.73714389 76 106 C50.92 106 25.84 106 0 106 C0 104.02 0 102.04 0 100 C2.9375 97.75 2.9375 97.75 6 96 C7.5383216 92.9233568 7.1649466 89.68634115 7.17700195 86.30908203 C7.18685875 85.11859253 7.18685875 85.11859253 7.19691467 83.90405273 C7.2166606 81.27197175 7.22831223 78.63994782 7.23828125 76.0078125 C7.24235678 75.10996914 7.2464323 74.21212578 7.25063133 73.28707504 C7.27149617 68.53627501 7.2857969 63.78550392 7.29516602 59.03466797 C7.30624003 54.12268083 7.34065003 49.21114553 7.38033772 44.29931831 C7.406454 40.526389 7.41485333 36.75356825 7.41844749 32.98055649 C7.42332527 31.16962502 7.434973 29.35869878 7.45348549 27.54785538 C7.47777469 25.01477236 7.47693117 22.48287029 7.4699707 19.94970703 C7.48918579 18.82585098 7.48918579 18.82585098 7.50878906 17.67929077 C7.47426667 14.23606432 7.26295296 12.34753821 5.15812683 9.56564331 C2.99495894 7.83103354 2.99495894 7.83103354 0 7 C0 4.69 0 2.38 0 0 Z " fill="#111111" transform="translate(939,126)"/>
<path d="M0 0 C6.56124477 -0.05129926 13.12243662 -0.08598106 19.68383789 -0.10986328 C21.90944349 -0.1198342 24.13503628 -0.13341579 26.3605957 -0.15087891 C64.57950993 -0.44295422 64.57950993 -0.44295422 76.375 8.25 C82.93867304 15.1262289 84.30885634 22.59222515 84.21875 31.828125 C83.58192666 41.06206343 80.09302229 48.1684792 73.5 54.625 C63.85223051 62.74565514 50.12391194 63.68247186 38 63 C36.33081345 62.67952357 34.66372233 62.34773109 33 62 C33.06884472 66.64530679 33.15679304 71.28971059 33.26245117 75.93432617 C33.29570188 77.51430243 33.32373346 79.09439752 33.34643555 80.67456055 C33.37998016 82.94631579 33.43229227 85.21698203 33.48828125 87.48828125 C33.49467117 88.19463211 33.5010611 88.90098297 33.50764465 89.6287384 C33.62208897 93.51277012 33.62208897 93.51277012 35.36401367 96.89526367 C37.46204507 98.31200626 39.61800192 99.16308176 42 100 C42 101.98 42 103.96 42 106 C28.14 106 14.28 106 0 106 C0 104.02 0 102.04 0 100 C2.9375 97.8125 2.9375 97.8125 6 96 C7.19885324 92.40344027 7.14758448 89.12261443 7.14526367 85.37915039 C7.14862228 84.60485184 7.1519809 83.83055328 7.15544128 83.03279114 C7.16494677 80.47106323 7.16689414 77.9094007 7.16796875 75.34765625 C7.17118141 73.56790642 7.17454549 71.78815686 7.17805481 70.00840759 C7.18404492 66.27683907 7.18589481 62.5452937 7.18530273 58.8137207 C7.18520107 54.0308204 7.19885799 49.24806842 7.21607494 44.46520329 C7.22718959 40.78921323 7.22922211 37.1132591 7.22869301 33.43725395 C7.22987375 31.67379685 7.2343008 29.91033885 7.24202538 28.14689827 C7.25181526 25.68124094 7.24895133 23.2159066 7.24291992 20.75024414 C7.24853943 20.0212793 7.25415894 19.29231445 7.25994873 18.54125977 C7.23728724 14.89825588 7.17319399 12.01467059 5 9 C2.46229997 7.71745356 2.46229997 7.71745356 0 7 C0 4.69 0 2.38 0 0 Z M33 10 C33 24.19 33 38.38 33 53 C44.74297316 53.05232247 44.74297316 53.05232247 55 48 C60.31415958 40.59813487 59.61431895 31.72159859 59 23 C57.78288463 18.21499787 55.86804411 15.73595044 52.125 12.5625 C45.60992857 9.30496429 40.5328408 10 33 10 Z " fill="#111111" transform="translate(591,126)"/>
<path d="M0 0 C30.03 0 60.06 0 91 0 C91 9.24 91 18.48 91 28 C87.37 28 83.74 28 80 28 C79.54560547 26.77023438 79.54560547 26.77023438 79.08203125 25.515625 C78.66308594 24.43796875 78.24414062 23.3603125 77.8125 22.25 C77.40644531 21.18265625 77.00039062 20.1153125 76.58203125 19.015625 C74.68292263 15.39559573 73.57912777 14.01922837 70 12 C67.94686577 11.57405178 65.88043401 11.20977532 63.80786133 10.89160156 C62.72185135 10.72162659 61.63584137 10.55165161 60.516922 10.37652588 C59.68633774 10.25227234 58.85575348 10.1280188 58 10 C58.06118417 20.8833241 58.13827093 31.76640786 58.23571491 42.64947128 C58.28046035 47.70282144 58.31970727 52.75609019 58.34643555 57.80957031 C58.37242688 62.68561627 58.41279968 67.56134968 58.46318626 72.43720245 C58.47988323 74.29830287 58.49137985 76.15945738 58.49761391 78.02062225 C58.50722429 80.62573587 58.53524628 83.23004475 58.56762695 85.83496094 C58.56619186 86.60604187 58.56475677 87.3771228 58.5632782 88.17156982 C58.61927427 91.35268648 58.79226495 93.62823341 60.35905457 96.43218994 C62.38800757 98.37071444 64.34986178 99.14049571 67 100 C67 101.98 67 103.96 67 106 C52.81 106 38.62 106 24 106 C24 104.02 24 102.04 24 100 C25.134375 99.54625 26.26875 99.0925 27.4375 98.625 C31.04721692 97.42904194 31.04721692 97.42904194 32 95 C32.12248216 92.31574013 32.18569822 89.65572215 32.20532227 86.97021484 C32.21522186 86.14086929 32.22512146 85.31152374 32.23532104 84.45704651 C32.26697664 81.70837281 32.29170949 78.95968182 32.31640625 76.2109375 C32.33697227 74.30807031 32.35796865 72.40520773 32.37937927 70.50234985 C32.43463627 65.48823775 32.48402953 60.47408418 32.53222656 55.4598999 C32.58241512 50.34562478 32.63811498 45.23141006 32.69335938 40.1171875 C32.80098531 30.07817657 32.90242042 20.03911325 33 10 C31.06120088 10.28424448 29.12398074 10.57927433 27.1875 10.87890625 C26.10855469 11.04205322 25.02960938 11.2052002 23.91796875 11.37329102 C19.77985903 12.26205672 18.31503903 13.45509648 16 17 C14.46057347 20.63120544 13.22303345 24.24030458 12 28 C8.04 28 4.08 28 0 28 C0 18.76 0 9.52 0 0 Z " fill="#111111" transform="translate(1115,126)"/>
<path d="M0 0 C0 7.59 0 15.18 0 23 C-3.63 23 -7.26 23 -11 23 C-11.38671875 22.16855469 -11.7734375 21.33710938 -12.171875 20.48046875 C-12.69265625 19.39378906 -13.2134375 18.30710938 -13.75 17.1875 C-14.26046875 16.10855469 -14.7709375 15.02960938 -15.296875 13.91796875 C-17.63100752 9.91889307 -19.65322639 8.44892454 -24 7 C-30.02490284 6.40932325 -34.07205346 7.68351277 -39 11 C-47.40267216 18.8297627 -49.57906541 31.49450071 -50.12548828 42.53564453 C-50.65877409 57.96877497 -51.02495588 74.67491808 -42 88 C-37.98737871 91.91708269 -34.7286383 93.1478592 -29.1875 93.25 C-24.71470309 93.18489379 -21.72665933 92.66189952 -18 90 C-14.4982488 85.69784853 -12.78638956 81.18052971 -11 76 C-7.37 76 -3.74 76 0 76 C0 83.92 0 91.84 0 100 C-9.6512933 103.86051732 -19.33985554 104.21148667 -29.625 104.3125 C-31.05465088 104.33884521 -31.05465088 104.33884521 -32.51318359 104.36572266 C-44.1503649 104.35571304 -55.4755504 101.40178229 -64.1875 93.4375 C-68.52702894 88.82568689 -70.91047474 83.93615132 -73 78 C-73.3196875 77.11570312 -73.639375 76.23140625 -73.96875 75.3203125 C-79.34992433 56.93463353 -77.91154356 33.76404798 -68.85546875 16.859375 C-62.17180311 6.55949448 -52.79115952 0.14430921 -41 -3 C-27.663697 -5.20661052 -12.65417849 -5.0616714 0 0 Z " fill="#111111" transform="translate(1104,129)"/>
<path d="M0 0 C13.53 0 27.06 0 41 0 C41 2.31 41 4.62 41 7 C40.030625 7.45375 39.06125 7.9075 38.0625 8.375 C34.92920418 9.65786221 34.92920418 9.65786221 34 12 C33.88265448 14.68739918 33.82480415 17.35037009 33.81054688 20.03881836 C33.80225357 20.87000183 33.79396027 21.7011853 33.78541565 22.55755615 C33.76798992 24.36744704 33.75283005 26.17736081 33.73963928 27.98728752 C33.71860569 30.85955013 33.69157608 33.73170064 33.66296387 36.60389709 C33.60320058 42.71505449 33.55118869 48.82626563 33.5 54.9375 C33.44059278 61.98984704 33.3779632 69.04214082 33.30812073 76.09439278 C33.28176576 78.90974846 33.26080873 81.72510997 33.2401123 84.54051208 C32.98020192 114.43260747 32.98020192 114.43260747 23.8203125 124.375 C17.57330642 129.95172646 7.56129385 136 -1 136 C-4 129.5 -4 129.5 -4 125 C-2.11488177 123.62086363 -0.15102097 122.73272396 1.95703125 121.734375 C5.50768836 118.72005042 6.73540048 114.21872065 7.27445412 109.69864655 C7.38073761 107.15022412 7.39420311 104.61793035 7.37231445 102.06738281 C7.37596512 101.10703629 7.37961578 100.14668976 7.38337708 99.15724182 C7.39143615 96.00568568 7.37791499 92.85465106 7.36328125 89.703125 C7.36276226 87.50453695 7.36328147 85.30594843 7.36479187 83.10736084 C7.36470237 78.51111886 7.3543141 73.91505308 7.33618164 69.31884766 C7.31344185 63.42516356 7.31296241 57.5317355 7.31969929 51.63801956 C7.32303796 47.10332967 7.31641195 42.56869827 7.30657005 38.03401947 C7.30272005 35.86028092 7.30156901 33.68653587 7.3031559 31.51279449 C7.30352624 28.48008268 7.29091659 25.44770129 7.2746582 22.41503906 C7.27713562 21.51626541 7.27961304 20.61749176 7.28216553 19.69148254 C7.27508072 18.86454391 7.26799591 18.03760529 7.26069641 17.18560791 C7.25864354 16.46962559 7.25659067 15.75364326 7.25447559 15.01596451 C6.95179977 12.61815609 6.28902355 11.04008203 5 9 C2.46229997 7.71745356 2.46229997 7.71745356 0 7 C0 4.69 0 2.38 0 0 Z " fill="#111111" transform="translate(886,126)"/>
</svg>
